<svg width="200" height="200" viewBox="0 0 200 200" fill="none" xmlns="http://www.w3.org/2000/svg">
<circle cx="100.5" cy="99.5" r="82.5" fill="#FFEBCA"/>
<path d="M109.723 55.1329C110.23 56.4468 110.483 57.7044 110.483 58.9057L110.455 59.4407C110.361 60.2102 110.127 60.6795 109.751 60.8484C109.413 60.9798 109.038 60.886 108.625 60.5669C107.687 59.7973 106.964 58.2581 106.457 55.9494C105.969 53.7532 105.932 52.3736 106.344 51.8105L106.936 51.7823L107.583 52.0639C108.447 52.6082 109.16 53.6312 109.723 55.1329Z" fill="#0D131A"/>
<path d="M109.104 60.0038C108.503 59.497 108.034 58.5584 107.696 57.1882C107.414 56.0808 107.273 54.9733 107.273 53.8659L107.386 52.8241C108.081 53.3872 108.662 54.307 109.132 55.5833C109.545 56.7659 109.751 57.8733 109.751 58.9057L109.723 59.3562C109.685 59.8442 109.601 60.1164 109.47 60.1727L109.104 60.0038Z" fill="#3D62AC"/>
<path d="M108.851 56.8503L108.935 57.8921C108.898 58.2112 108.823 58.3895 108.71 58.4271C108.579 58.4646 108.447 58.352 108.316 58.0892C108.185 57.8264 108.081 57.4979 108.006 57.1037L107.922 56.062C107.959 55.7429 108.035 55.5646 108.147 55.527C108.279 55.5083 108.41 55.6209 108.541 55.8649L108.851 56.8503Z" fill="#0D131A"/>
<path d="M175.353 132.11L176.198 131.772C176.498 131.678 176.723 131.763 176.873 132.026H177.183C178.122 133.771 178.103 136.437 177.127 140.022C176.263 143.213 175.231 145.475 174.03 146.807C173.729 147.145 173.438 147.258 173.157 147.145C172.838 147.032 172.622 146.535 172.509 145.653C172.453 145.221 172.387 144.039 172.312 142.105L172.143 138.952C172.049 137.751 172.359 136.371 173.072 134.813C173.804 133.236 174.565 132.335 175.353 132.11Z" fill="#0D131A"/>
<path d="M175.55 132.814C175.775 132.758 175.953 132.87 176.085 133.152C176.479 133.865 176.676 134.804 176.676 135.967C176.676 137.713 176.272 139.74 175.465 142.049C174.771 144.057 174.133 145.381 173.551 146.019L173.466 146.103C173.279 145.803 173.138 144.461 173.044 142.077L172.875 138.53C172.875 137.46 173.185 136.277 173.804 134.982C174.424 133.687 175.005 132.964 175.55 132.814Z" fill="#FFF3C2"/>
<path d="M176.085 133.152L176.507 134.278L175.55 135.376C174.649 136.784 174.029 140.275 173.692 145.85L173.466 146.103C173.279 145.803 173.138 144.461 173.044 142.077L172.875 138.53C172.875 137.46 173.185 136.277 173.804 134.982C174.424 133.687 175.005 132.964 175.55 132.814C175.775 132.758 175.953 132.87 176.085 133.152Z" fill="#DBD2A9"/>
<path d="M137.906 93.1146C138.656 94.6162 139.914 95.9302 141.678 97.0564C142.992 97.9198 145.066 98.924 147.901 100.069L153.588 102.321C155.071 102.978 156.263 103.748 157.164 104.63C159.848 107.296 163.339 111.003 167.638 115.752C172.03 120.594 174.752 123.767 175.803 125.268C176.873 126.789 177.558 128.375 177.858 130.027C178.14 131.66 177.999 133.124 177.436 134.419C176.723 136.071 174.864 137.084 171.861 137.46L161.331 137.769C159.116 137.244 157.502 135.695 156.488 133.124C154.499 127.999 152.471 123.213 150.407 118.764C147.272 112.026 144.982 108.215 143.537 107.333C141.566 106.151 139.257 105.062 136.61 104.067L128.502 101.364C127.019 100.876 126.099 99.5341 125.742 97.3379C125.461 95.5548 125.564 93.6214 126.052 91.5379C126.371 90.1677 126.878 89.1259 127.573 88.4126C128.248 87.7369 129.055 87.4178 129.994 87.4554C133.448 87.5867 136.085 89.4732 137.906 93.1146Z" fill="#0D131A"/>
<path d="M147.535 100.998C149.769 101.918 151.374 102.603 152.35 103.054C153.983 103.842 155.109 104.555 155.729 105.193C158.675 108.122 162.195 111.782 166.287 116.174C170.81 121.017 173.57 124.133 174.565 125.522C175.541 126.892 176.169 128.29 176.451 129.717C176.714 131.125 176.601 132.392 176.113 133.518C175.362 135.207 173.908 136.202 171.749 136.502C166.925 137.103 163.528 137.037 161.557 136.305C159.811 135.648 158.469 134.118 157.53 131.716C155.991 127.868 154.293 123.954 152.434 119.975C148.699 112.035 145.893 107.54 144.016 106.489C140.299 104.349 135.466 102.322 129.516 100.407C128.352 100.013 127.526 98.8959 127.038 97.0564C126.606 95.3296 126.597 93.5558 127.01 91.735C127.198 90.9279 127.46 90.2428 127.798 89.6797C128.38 88.7412 129.065 88.3282 129.854 88.4408C131.468 88.6661 132.838 89.2949 133.964 90.3272C134.659 90.9654 135.672 92.2512 137.005 94.1846L138.075 95.705C138.694 96.5872 139.924 97.4975 141.763 98.436C142.833 98.9992 144.757 99.8532 147.535 100.998Z" fill="#E73820"/>
<path d="M168.343 135.855C172.116 135.273 174.828 134.128 176.48 132.42L176.114 133.518C175.363 135.207 173.908 136.202 171.75 136.502L163.585 136.784C161.745 136.54 160.337 135.902 159.361 134.869C163.153 135.864 166.147 136.193 168.343 135.855Z" fill="#C82E19"/>
<path d="M129.854 88.4408C131.074 88.6098 132.125 88.9946 133.007 89.5952C133.758 90.0832 134.527 90.8247 135.316 91.8195C135.428 95.7237 136.32 99.6186 137.991 103.504C135.588 102.49 132.763 101.458 129.516 100.407C128.352 100.013 127.526 98.8959 127.038 97.0564C126.606 95.3296 126.597 93.5558 127.01 91.735C127.198 90.9279 127.46 90.2428 127.798 89.6797C128.38 88.7412 129.065 88.3282 129.854 88.4408Z" fill="#C82E19"/>
<path d="M173.016 130.252C173.654 131.359 173.954 133.218 173.917 135.827C173.879 138.849 173.344 141.721 172.312 144.442L171.411 146.188C170.979 146.845 170.641 147.164 170.397 147.145C170.153 147.126 169.825 146.648 169.412 145.709L167.779 140.979C166.934 138.332 166.493 136.653 166.455 135.939C166.437 135.188 167.094 134.072 168.426 132.589C169.74 131.125 170.838 130.261 171.721 129.998C172.378 129.811 172.809 129.895 173.016 130.252Z" fill="#0D131A"/>
<path d="M172.255 130.984C172.781 131.904 172.959 134.043 172.79 137.403C172.64 140.913 172.161 143.344 171.354 144.696L170.735 145.484L170.509 145.597L170.2 145.202L168.679 140.5C167.891 137.891 167.487 136.239 167.469 135.545C167.431 135.038 167.947 134.203 169.017 133.039C170.106 131.857 171.035 131.153 171.805 130.927L172.255 130.984Z" fill="#FFF3C2"/>
<path d="M167.469 135.545C167.451 135.188 167.798 134.55 168.511 133.63C168.68 135.132 169.037 137.141 169.581 139.656C170.088 142.04 170.548 143.907 170.961 145.259L170.623 145.568L170.51 145.597L170.201 145.202L168.68 140.5C167.892 137.891 167.488 136.24 167.469 135.545Z" fill="#DBD2A9"/>
<path d="M162.29 128.225C163.172 128.075 163.764 128.281 164.064 128.844C164.646 129.895 164.805 131.866 164.543 134.757C164.205 138.323 163.172 141.458 161.446 144.161C161.295 144.405 161.08 144.452 160.798 144.301C160.216 144.039 159.475 142.18 158.574 138.727C157.729 135.498 157.344 133.574 157.419 132.955C157.494 132.392 158.095 131.528 159.221 130.364C160.423 129.107 161.446 128.394 162.29 128.225Z" fill="#0D131A"/>
<path d="M163.302 129.773C163.49 130.111 163.583 130.928 163.583 132.223C163.583 134.025 163.386 135.808 162.992 137.572C162.504 139.787 161.791 141.486 160.852 142.668C160.477 142.124 159.961 140.529 159.304 137.882C158.647 135.31 158.318 133.63 158.318 132.842L158.347 132.673C158.403 132.298 158.863 131.697 159.726 130.871C160.683 129.951 161.519 129.426 162.232 129.295C162.739 129.219 163.095 129.379 163.302 129.773Z" fill="#FFF3C2"/>
<path d="M158.347 132.673C158.384 132.373 158.778 131.829 159.529 131.04C159.792 133.011 160.102 134.954 160.458 136.868C160.89 139.252 161.265 140.801 161.584 141.514L160.852 142.668C160.477 142.124 159.961 140.529 159.304 137.882C158.647 135.31 158.318 133.63 158.318 132.842L158.347 132.673Z" fill="#DBD2A9"/>
<path d="M129.459 167.389C129.572 166.732 130.276 165.925 131.571 164.968C132.791 164.048 133.608 163.616 134.021 163.672C134.452 163.747 135.71 164.357 137.793 165.502C140.065 166.76 141.304 167.661 141.51 168.205C141.604 168.412 141.585 168.59 141.454 168.74C141.097 169.172 139.398 169.313 136.358 169.163L130.332 168.487C129.919 168.393 129.647 168.205 129.516 167.924C129.422 167.736 129.403 167.558 129.459 167.389Z" fill="#0D131A"/>
<path d="M130.164 167.558C130.183 167.145 130.746 166.526 131.853 165.7C132.886 164.911 133.59 164.489 133.965 164.433C134.378 164.526 135.514 165.09 137.372 166.122C139.268 167.173 140.216 167.793 140.216 167.98L136.274 168.234L130.502 167.755C130.277 167.717 130.164 167.652 130.164 167.558Z" fill="#FFF3C2"/>
<path d="M130.502 167.755C130.277 167.717 130.164 167.652 130.164 167.558C130.183 167.107 130.793 166.45 131.994 165.587C134.528 166.432 137.259 167.22 140.187 167.952L140.216 167.98L136.274 168.234L130.502 167.755Z" fill="#DBD2A9"/>
<path d="M120.816 126.113L122.365 125.916C122.721 125.897 122.937 125.991 123.012 126.197L125.518 133.152C126.438 135.292 127.677 137.253 129.235 139.036C132.426 142.64 134.303 145.475 134.866 147.539C135.823 150.956 134.969 155.188 132.304 160.238C132.21 160.425 132.275 160.679 132.501 160.998L133.458 162.068C134.922 163.532 135.795 164.564 136.076 165.165C136.358 165.784 136.395 166.375 136.189 166.939L135.119 168.515C133.974 169.942 131.787 170.965 128.559 171.584L121.689 171.809L113.833 170.374C108.578 169.304 105.725 168.45 105.274 167.811C104.786 167.117 104.842 165.906 105.443 164.179C105.894 162.884 106.438 161.73 107.076 160.716C107.508 160.04 107.771 159.449 107.865 158.942C107.958 158.379 107.883 157.807 107.639 157.225C107.208 156.286 105.865 155.301 103.613 154.269C102.224 153.649 99.5399 152.645 95.5605 151.256L95.7858 150.749L96.1518 149.792C96.3583 147.896 99.7839 143.616 106.429 136.953C113.299 130.064 118.094 126.451 120.816 126.113Z" fill="#0D131A"/>
<path d="M121.885 127.549C122.937 130.533 123.922 132.936 124.842 134.757C125.93 136.915 127.188 138.839 128.615 140.529C131.374 143.776 132.997 146.451 133.486 148.553C134.161 151.481 133.476 155.245 131.43 159.843C131.224 160.313 131.28 160.819 131.599 161.364C131.768 161.664 132.153 162.124 132.753 162.743C133.579 163.569 134.096 164.217 134.302 164.686C134.79 165.737 134.677 166.695 133.964 167.558C132.951 168.816 131.008 169.773 128.136 170.43C125.527 171.03 123.443 171.171 121.885 170.852L112.397 168.881C108.925 168.093 107.047 167.464 106.766 166.995C106.503 166.563 106.766 165.099 107.554 162.603L108.849 158.379C108.849 157.872 108.746 157.356 108.54 156.831C107.47 154.428 103.669 152.101 97.1367 149.848C97.193 148.384 100.365 144.47 106.653 138.107C113.185 131.5 117.831 127.849 120.59 127.155C121.266 126.986 121.698 127.117 121.885 127.549Z" fill="#E73820"/>
<path d="M120.59 127.155C121.266 126.986 121.698 127.117 121.885 127.549C122.73 129.952 123.518 131.941 124.25 133.518C125.095 135.339 126.006 136.972 126.982 138.417C123.659 140.407 120.806 142.894 118.422 145.878C115.475 149.595 114.452 152.87 115.353 155.704C115.804 157.093 115.832 158.314 115.438 159.365C115.156 160.134 114.556 160.988 113.636 161.927C112.585 162.997 112.097 163.935 112.172 164.742C112.228 165.531 112.829 166.169 113.974 166.657L117.549 167.868L120.168 168.459L122.364 168.909C122.852 169.06 123.434 169.369 124.11 169.839L124.87 170.937L121.885 170.852L115.663 169.557L109.863 168.262L109.328 168.093H109.3C107.798 167.661 106.954 167.295 106.766 166.995C106.503 166.563 106.766 165.099 107.554 162.603L108.849 158.379C108.849 157.872 108.746 157.356 108.54 156.831C107.47 154.428 103.669 152.101 97.1367 149.848C97.193 148.384 100.365 144.47 106.653 138.107C113.185 131.5 117.831 127.849 120.59 127.155Z" fill="#C82E19"/>
<path d="M129.009 168.346C129.441 167.558 130.229 166.676 131.374 165.7C132.613 164.667 133.467 164.264 133.936 164.489C134.331 164.677 135.354 165.512 137.005 166.995C138.92 168.722 139.999 169.97 140.243 170.74C140.337 171.04 140.29 171.246 140.103 171.359C139.596 171.678 137.991 171.706 135.288 171.443C132.435 171.162 130.502 170.711 129.488 170.092L129.066 169.895C128.859 169.782 128.756 169.651 128.756 169.501C128.756 169.05 128.84 168.665 129.009 168.346Z" fill="#0D131A"/>
<path d="M129.883 169.388C129.883 169.2 130.014 168.872 130.277 168.403C130.746 167.671 131.366 166.938 132.135 166.206C132.867 165.512 133.365 165.165 133.628 165.165C134.022 165.371 135.017 166.244 136.612 167.783C138.264 169.36 139.062 170.242 139.005 170.43L135.12 170.542C132.511 170.355 130.765 169.998 129.883 169.472V169.388Z" fill="#FFF3C2"/>
<path d="M134.81 170.542C132.37 170.336 130.727 169.979 129.883 169.472V169.388C129.883 169.2 130.014 168.872 130.277 168.403L130.671 167.868C133.299 168.881 136.049 169.754 138.921 170.486C138.451 170.693 137.081 170.711 134.81 170.542Z" fill="#DBD2A9"/>
<path d="M127.293 165.84C128.569 166.366 129.752 167.276 130.84 168.571C131.722 169.623 132.37 170.692 132.783 171.781L133.036 172.738C133.036 172.907 132.961 173.02 132.811 173.076C132.173 173.358 130.24 173.217 127.011 172.654C124.102 172.147 122.337 171.762 121.718 171.5C121.286 171.293 121.07 171.087 121.07 170.88C121.089 170.355 121.831 169.435 123.295 168.121C124.627 166.92 125.566 166.197 126.11 165.953L126.899 165.7L127.293 165.84Z" fill="#0D131A"/>
<path d="M129.938 169.078L131.458 171.106C131.815 171.706 131.918 172.053 131.768 172.147L127.263 171.781C124.729 171.35 123.068 170.993 122.279 170.711C122.411 170.336 123.021 169.595 124.109 168.487C125.198 167.398 125.94 166.788 126.334 166.657C126.653 166.544 127.16 166.723 127.854 167.192C128.511 167.642 129.206 168.271 129.938 169.078Z" fill="#FFF3C2"/>
<path d="M122.279 170.711C122.336 170.524 122.57 170.186 122.983 169.698C127.357 170.768 130.247 171.368 131.655 171.5C131.824 171.856 131.862 172.072 131.768 172.147L127.263 171.781C124.729 171.35 123.068 170.993 122.279 170.711Z" fill="#DBD2A9"/>
<path d="M144.636 19.2908C144.917 18.8404 145.753 18.6808 147.142 18.8122C148.512 18.9248 149.657 19.2439 150.577 19.7695C152.153 20.6329 152.942 21.7779 152.942 23.2045C152.942 23.7676 152.679 24.5372 152.153 25.5132L147.846 33.1152L144.692 38.4648C146.982 41.4493 148.906 44.781 150.464 48.46C152.21 52.5707 153.083 56.2403 153.083 59.4688C153.083 61.7588 152.313 64.0394 150.774 66.3106C149.347 68.4129 146.794 71.1627 143.115 74.5602C134.819 82.2372 130.671 88.9195 130.671 94.6069V94.8603C130.464 96.1742 130.37 97.7322 130.389 99.5341L130.333 103.898C130.108 107.239 129.441 111.303 128.334 116.09C127.32 120.463 126.185 124.395 124.927 127.887C122.299 135.132 118.686 140.698 114.087 144.583C107.874 149.82 99.4744 152.504 88.8879 152.635L68.1091 151.988C62.8534 151.124 56.6498 148.769 49.4983 144.921C33.093 136.099 24.515 124.358 23.7642 109.698C23.4639 103.973 24.0457 98.0982 25.5098 92.0729C26.7674 86.8172 28.8228 80.9609 31.6759 74.5039L31.8448 74.1378L32.239 74.2223C33.6092 74.5226 34.5008 74.9637 34.9138 75.5456L36.8283 74.5039L36.4623 75.6582C35.7303 78.0984 35.5144 81.4864 35.8147 85.8224C36.2277 92.148 37.9452 97.4694 40.9672 101.787C43.4074 105.259 46.3918 107.878 49.9207 109.642C53.5809 111.481 58.0764 112.533 63.4072 112.795C64.2706 112.852 65.6408 112.242 67.5179 110.965C68.8881 110.046 70.7464 108.591 73.0927 106.601C77.3535 103.016 83.3601 99.0179 91.1122 94.6069C92.3135 93.8936 94.4252 92.9739 97.4472 91.8477C101.727 90.2334 104.796 88.7412 106.654 87.3709C109.751 85.0434 111.919 81.8243 113.158 77.7136C112.895 77.9388 112.51 78.0233 112.004 77.967C111.459 77.9294 110.915 77.7511 110.371 77.432C108.174 76.1556 106.41 74.6728 105.077 72.9835C103.613 71.1252 102.881 69.2294 102.881 67.296C102.881 65.5879 103.463 63.9361 104.627 62.3407C105.734 60.839 107.32 59.45 109.385 58.1736C107.489 55.4519 106.185 53.0587 105.472 50.994C104.89 49.3046 104.739 48.0095 105.021 47.1085C105.509 45.513 106.729 44.3117 108.681 43.5046C109.282 43.2418 109.704 42.979 109.948 42.7163L110.399 41.7871C111.112 39.7412 112.266 38.1269 113.862 36.9444C115.814 35.4991 119.84 33.4625 125.941 30.8346C129.807 29.1641 133.956 26.8741 138.385 23.9647C142.158 21.487 144.242 19.929 144.636 19.2908Z" fill="#0D131A"/>
<path d="M150.379 21.4025C151.036 21.9844 151.365 22.6508 151.365 23.4016C151.365 23.9271 151.215 24.4621 150.914 25.0064L146.409 33.0308L143.791 37.423L142.13 35.79L141.482 35.8182C141.445 36.1748 141.576 36.5408 141.876 36.9162C142.533 37.7046 143.763 39.6098 145.565 42.6318C147.874 46.5173 149.45 49.6988 150.295 52.1765C151.196 54.8231 151.646 57.0193 151.646 58.7649C151.646 61.0174 150.942 63.251 149.535 65.4659C148.127 67.7184 145.706 70.4307 142.271 73.6029C139.005 76.6249 136.32 79.6563 134.218 82.6971C131.196 87.0331 129.685 91.003 129.685 94.6069L129.713 94.7477C129.319 97.2066 128.991 100.426 128.728 104.405C128.427 108.929 128.043 112.411 127.573 114.851C126.785 118.849 125.415 122.847 123.463 126.845L122.59 128.703C119.718 134.991 116.64 139.675 113.355 142.753C107.461 148.271 99.568 151.087 89.676 151.2C71.7316 151.425 58.2638 148.647 49.2728 142.866L48.7942 142.556C42.356 138.426 37.5414 134.522 34.3504 130.843C28.6067 124.255 25.5096 116.587 25.0591 107.84L24.9746 104.743C24.9746 99.9002 25.6503 94.9823 27.0018 89.9894C28.128 85.7849 29.9675 80.7919 32.5203 75.0107C33.4964 75.9304 34.5287 76.1463 35.6174 75.6582C34.9229 78.9618 34.5756 81.7117 34.5756 83.9078C34.5756 87.2489 34.9229 90.4305 35.6174 93.4525C36.4996 97.2817 37.898 100.557 39.8126 103.279C42.2527 106.751 45.9411 109.567 50.8777 111.725C55.7017 113.828 60.1315 114.644 64.1671 114.175C65.2746 114.062 66.5603 113.537 68.0244 112.598C69.3196 111.791 71.0465 110.477 73.205 108.657C76.2083 106.123 78.7423 104.077 80.807 102.519C84.2983 99.9283 87.8928 97.5726 91.5906 95.4516C92.8107 94.7383 94.8848 93.8373 97.813 92.7487C102.074 91.1719 105.19 89.6609 107.161 88.2156C110.427 85.7942 112.717 82.4625 114.031 78.2204C114.087 78.089 114.068 77.8638 113.974 77.5447L113.89 76.8408L114.706 75.8272L113.636 76.5029C113.017 76.8971 112.182 76.8971 111.131 76.5029C109.404 75.8459 107.836 74.6071 106.429 72.7864C104.964 70.9093 104.232 69.1168 104.232 67.4087C104.232 65.7944 104.674 64.2928 105.556 62.9038C106.569 61.2895 108.09 59.9475 110.117 58.8775C111.037 58.3707 111.543 57.9859 111.637 57.7232C111.712 57.4604 111.572 57.4041 111.215 57.5542L110.23 57.8076L109.047 55.9775C107.958 54.2506 107.198 52.8616 106.766 51.8105C106.034 50.0461 105.856 48.5726 106.231 47.3901C106.682 46.0011 107.63 45.0062 109.075 44.4056C109.845 44.0865 110.398 43.7205 110.736 43.3075C110.962 43.0447 111.159 42.6506 111.328 42.125C111.741 40.9425 112.613 39.8069 113.946 38.7182C116.292 36.8036 120.431 34.4761 126.363 31.7356C130.286 29.9149 134.471 27.6061 138.92 24.8093C143.012 22.2378 145.255 20.6048 145.649 19.9103L145.621 19.9666L147.564 20.0511C148.746 20.3326 149.685 20.7831 150.379 21.4025Z" fill="#E73820"/>
<path d="M151.365 23.4015C151.365 23.9271 151.215 24.462 150.915 25.0064L146.41 33.0307L143.792 37.423L142.13 35.7899L141.483 35.8181C141.445 36.1747 141.577 36.5407 141.877 36.9162C142.534 37.7045 143.763 39.6097 145.565 42.6317C147.874 46.5172 149.451 49.6988 150.296 52.1765C151.196 54.8231 151.647 57.0192 151.647 58.7649C151.647 61.0173 150.943 63.251 149.535 65.4659C148.128 67.7183 145.706 70.4306 142.271 73.6028C139.005 76.6248 136.321 79.6563 134.219 82.6971C131.197 87.033 129.686 91.0029 129.686 94.6068L129.714 94.7476L129.601 95.4797C128.794 94.4285 127.968 93.0114 127.124 91.2282L125.068 86.9204C123.304 83.6168 120.845 81.4488 117.691 80.4165C117.954 80.2475 118.705 80.0786 119.944 79.9097C121.277 79.7407 122.262 79.5061 122.9 79.2058L125.49 77.6854C126.973 76.7281 128.137 76.1837 128.982 76.0523L134.303 75.7145C137.137 75.3203 139.634 74.1941 141.793 72.3358C144.12 70.3649 145.64 67.3711 146.354 63.3542C146.879 60.426 146.964 57.0567 146.607 53.2464C146.438 51.3881 145.002 47.756 142.299 42.3502C139.991 37.7327 139.183 35.0579 139.878 34.3258L144.58 28.6947C146.87 25.6164 148.437 22.9416 149.282 20.6704C149.714 20.8957 150.08 21.1397 150.38 21.4025C151.037 21.9843 151.365 22.6507 151.365 23.4015Z" fill="#C82E19"/>
<path d="M117.607 97.9292C120.254 96.6716 122.497 96.2305 124.336 96.6059C125.725 96.8875 126.87 97.6289 127.771 98.8302C128.897 100.332 129.451 102.368 129.432 104.94C129.395 107.474 128.766 111.191 127.546 116.09C126.551 120.031 125.453 123.738 124.252 127.211L123.801 128.225C121.098 134.7 118.039 139.59 114.622 142.894C108.485 148.881 100.169 151.941 89.6766 152.072C71.5632 152.298 57.9359 149.473 48.7948 143.598L48.3161 143.288C41.784 139.083 36.8944 135.113 33.6471 131.378C27.8095 124.658 24.6561 116.831 24.1868 107.896C24.0554 105.4 24.2995 101.937 24.9189 97.5069C25.2943 94.8791 25.7166 92.4014 26.1859 90.0739L26.9179 90.2146C25.9606 95.6956 26.6082 101.552 28.8607 107.784C31.1131 113.997 34.5011 119.281 39.0248 123.635C43.3044 127.765 47.7624 130.608 52.3987 132.166C57.3353 133.856 62.5628 134.109 68.0813 132.927C76.1901 131.2 84.0549 127.417 91.6757 121.58C96.7249 117.713 101.774 112.805 106.823 106.855C110.427 102.612 114.022 99.6374 117.607 97.9292Z" fill="#0D131A"/>
<path d="M127.855 100.829C128.625 102.293 128.953 103.842 128.841 105.475C128.709 107.296 128.184 110.252 127.264 114.344C126.138 119.28 124.908 123.476 123.576 126.929L123.125 127.943C120.46 134.306 117.466 139.102 114.144 142.33C108.118 148.206 99.9627 151.209 89.6765 151.34C71.6945 151.528 58.1986 148.741 49.1889 142.978L48.7102 142.668C42.272 138.539 37.448 134.625 34.2383 130.927C28.4758 124.32 25.3693 116.624 24.9188 107.84L24.8906 106.545C24.8906 104.048 25.2097 100.642 25.8479 96.3243C25.7728 101.374 26.8615 106.46 29.114 111.585C31.3289 116.596 34.3509 120.951 38.18 124.649C42.4784 128.778 47.2555 131.669 52.5112 133.321C57.9358 134.991 63.52 135.226 69.2638 134.025C77.335 132.298 85.2467 128.337 92.9989 122.143C96.997 118.933 102.131 113.912 108.4 107.08C111.253 103.964 113.139 102.059 114.059 101.364C117.663 98.6425 120.91 97.4787 123.801 97.8729C125.565 98.0981 126.917 99.0836 127.855 100.829Z" fill="#FFF3C2"/>
<path d="M49.1875 142.978L48.7088 142.668L43.3593 139.064C41.1068 137.45 39.0984 135.808 37.334 134.137C40.6188 136.577 44.767 138.877 49.7787 141.035C56.0856 143.776 62.5707 145.7 69.2342 146.807C87.3101 149.867 103.715 146.62 118.45 137.065C112.256 146.432 102.664 151.19 89.6751 151.34C71.6931 151.528 58.1972 148.741 49.1875 142.978Z" fill="#DBD2A9"/>
<path d="M135.203 72.8145L127.939 72.5048L121.182 72.1388C120.394 72.3077 119.333 72.8521 118 73.7718C116.705 74.654 115.532 75.6207 114.481 76.6718C114.143 77.0097 114.171 77.5071 114.565 78.1641C114.922 78.7647 115.363 79.1777 115.889 79.4029C116.771 79.7971 117.991 79.9003 119.549 79.7126C120.957 79.5437 122.299 79.1871 123.575 78.6427C124.345 78.3049 124.73 78.2392 124.73 78.4456C124.73 78.6333 124.429 78.868 123.829 79.1495C122.271 79.8816 120.656 80.3602 118.986 80.5855L115.466 80.4165C114.641 80.0223 114.002 79.4217 113.552 78.6146L113.129 77.4602L111.891 77.0097C111.196 76.7281 111.149 76.6531 111.75 76.7845C112.557 76.9534 113.317 76.7281 114.03 76.1087L116.733 73.5466C118.254 72.2702 119.699 71.5194 121.069 71.2941L128.446 71.6883L134.95 72.0825C136.208 71.6883 137.231 71.1533 138.019 70.4776C138.563 70.0271 138.901 69.8676 139.033 69.999C139.145 70.1116 138.976 70.4213 138.526 70.9281C137.606 71.9417 136.499 72.5705 135.203 72.8145Z" fill="#0D131A"/>
<path d="M121.041 79.769L121.463 79.6282L121.97 79.5719L123.688 80.8107C124.082 81.0735 124.26 81.2518 124.223 81.3457L123.603 81.2894C123.284 81.1768 122.843 80.9515 122.28 80.6137L121.041 79.769Z" fill="#0D131A"/>
<path d="M109.835 51.1348C109.685 50.8344 109.675 50.5998 109.807 50.4309C109.938 50.2432 110.135 50.3183 110.398 50.6561C111.168 51.5571 111.562 52.6645 111.581 53.9785C111.599 54.6354 111.506 54.9358 111.299 54.8795C111.093 54.8231 110.942 54.551 110.849 54.0629C110.736 53.2746 110.398 52.2985 109.835 51.1348Z" fill="#0D131A"/>
<path d="M119.521 53.2183C119.334 52.7115 119.268 52.0545 119.324 51.2474C119.38 50.2338 119.625 49.3797 120.056 48.6852C120.769 47.6153 120.976 47.7655 120.676 49.1357C120.469 49.9241 120.328 51.2568 120.253 53.1338C120.216 53.7532 120.113 54.0348 119.944 53.9785C119.812 53.9222 119.671 53.6688 119.521 53.2183Z" fill="#0D131A"/>
<path d="M112.651 70.2806C112.838 69.7362 113.064 69.3514 113.326 69.1262C113.57 68.9009 113.824 68.8634 114.087 69.0136C114.368 69.1637 114.359 69.389 114.058 69.6893C113.814 69.9333 113.627 70.2899 113.495 70.7592L113.186 71.7446L112.791 72.1951C112.66 72.2139 112.547 72.045 112.454 71.6883C112.36 71.3317 112.425 70.8624 112.651 70.2806Z" fill="#0D131A"/>
<path d="M128.868 61.4679C126.559 61.3177 124.654 60.8203 123.152 59.9756L122.364 60.0601C122.251 59.985 122.242 59.8255 122.335 59.5815L122.533 59.2717C123.546 57.3572 125.592 55.2549 128.67 52.9649C131.524 50.8439 134.058 49.4079 136.272 48.6571C137.324 48.2817 137.877 48.1691 137.934 48.3192L137.399 48.9668L136.554 49.6425L136.132 49.8959C136.995 50.7218 137.746 51.9513 138.384 53.5843C138.797 54.6918 138.994 55.8086 138.975 56.9348C138.938 58.0423 138.713 58.9526 138.3 59.6659L138.694 59.9756C138.806 60.2196 138.525 60.4167 137.849 60.5669C134.489 61.3553 131.495 61.6556 128.868 61.4679Z" fill="#0D131A"/>
<path d="M135.203 50.3464C135.504 50.4778 135.842 50.8157 136.217 51.36C136.649 51.9795 137.024 52.7209 137.343 53.5843C137.85 54.8795 138.103 56.0995 138.103 57.2445C138.103 58.2018 137.916 59.0277 137.54 59.7222C134.556 60.5857 131.656 60.9048 128.84 60.6795C126.682 60.4918 124.87 60.0413 123.406 59.3281C124.457 57.8077 126.494 55.94 129.516 53.7251C132.35 51.6416 134.246 50.5154 135.203 50.3464Z" fill="white"/>
<path d="M131.628 51.6134L131.825 51.5007C132.838 52.4393 133.542 53.8095 133.936 55.6114C134.387 57.5636 134.274 59.328 133.599 60.9047L133.43 61.1862H133.289L126.278 60.9047H126.25L126.222 60.8765L124.392 60.1163C123.753 59.8535 123.312 59.45 123.068 58.9056L124.279 57.3008L124.364 57.2163C125.509 56.015 127.723 54.2975 131.008 52.0638L131.628 51.6134Z" fill="#0D131A"/>
<path d="M131.685 52.1765C132.905 53.8846 133.515 55.7898 133.515 57.8921C133.515 58.8118 133.365 59.7504 133.064 60.7076C131.412 60.8953 129.817 60.9329 128.278 60.8203C126.757 60.7076 125.659 60.4918 124.984 60.1727L123.97 59.7222C123.632 59.5157 123.519 59.3374 123.632 59.1872C124.233 58.2675 125.518 56.9817 127.489 55.3299C129.254 53.8283 130.652 52.7772 131.685 52.1765Z" fill="#3D62AC"/>
<path d="M128.783 53.5842C129.891 54.7292 130.276 56.1933 129.938 57.9765C129.619 59.7221 128.934 60.595 127.882 60.595C126.418 60.595 125.452 59.328 124.982 56.794L127.432 54.6823L128.783 53.5842Z" fill="#0D131A"/>
<path d="M55.7767 29.624C52.1916 33.4156 51.1217 35.837 52.567 36.8881L53.0175 36.8318L53.4117 36.3813C53.8809 35.424 54.3408 34.8234 54.7913 34.5794L57.1 34.4667L57.4098 34.6357L57.1845 34.9172C56.5275 35.3489 55.833 36.0998 55.101 37.1697L53.2427 40.3231L52.7359 41.1959C51.4596 43.5047 51.0091 44.9688 51.3845 45.5882C51.6473 46.0762 52.0602 46.1044 52.6233 45.6726C53.0926 45.316 53.4398 44.8561 53.6651 44.293C53.9091 43.6173 54.1062 43.2982 54.2563 43.3357C54.3877 43.3545 54.4534 43.6924 54.4534 44.3493C54.4534 46.339 54.1156 47.8782 53.4398 48.9668C52.8204 49.9804 51.6473 50.9659 49.9204 51.9232C49.2071 52.2986 48.7003 53.2371 48.4 54.7387C48.3249 55.1517 48.3531 55.3863 48.4845 55.4426C48.6346 55.5365 48.8974 55.3769 49.2728 54.964C49.9673 54.2319 50.5492 53.7157 51.0184 53.4154C51.8819 52.8711 52.9612 52.5332 54.2563 52.4018C54.5379 52.4018 54.6505 52.4581 54.5942 52.5707L53.7495 53.6688C52.7735 54.8138 51.957 56.109 51.3 57.5543C50.5116 59.2624 50.0612 60.9799 49.9485 62.7067C49.5919 67.7935 48.1466 71.1909 45.6126 72.899C44.4301 73.7062 42.4122 74.213 39.5591 74.4194C38.3391 74.5133 37.4381 74.7667 36.8562 75.1796C35.9177 75.8554 34.9323 76.0994 33.8999 75.9117C33.1303 75.7427 32.5203 75.358 32.0698 74.7573C31.8258 74.2505 31.3753 73.6217 30.7183 72.8709C29.8736 71.8761 28.372 70.8249 26.2134 69.7175C24.8057 68.9854 23.6794 67.8217 22.8348 66.2262C22.0839 64.8184 21.6241 63.2417 21.4551 61.496C21.2674 59.5064 21.5302 57.6575 22.2435 55.9494C22.938 54.2601 23.9891 52.8523 25.3969 51.7261C27.9497 49.6989 29.7235 47.8125 30.7183 46.0668C31.4691 44.7529 31.8821 43.2606 31.9572 41.5901C31.9947 41.0457 32.0604 40.7454 32.1542 40.6891L32.4358 40.9425C33.2054 42.0687 33.5902 43.5891 33.5902 45.5037C33.928 44.2836 34.5099 42.9322 35.3358 41.4493C36.9876 38.5024 39.0336 36.4845 41.4737 35.3959C41.8304 35.2082 42.0368 35.1425 42.0931 35.1988C42.1682 35.2363 42.065 35.424 41.7834 35.7619C41.1265 36.5315 40.554 37.5732 40.0659 38.8872C39.5967 40.1448 39.4747 40.8674 39.6999 41.0551L39.9533 41.2522C40.141 41.2898 40.385 41.149 40.6854 40.8299C41.7365 39.7787 42.5812 38.3897 43.2194 36.6629C43.989 34.6169 44.8055 33.0871 45.6689 32.0735C46.645 30.9098 47.7993 30.2716 49.132 30.1589L49.5825 30.2153L49.301 30.5813C48.7379 31.1068 48.3718 31.7732 48.2029 32.5803C48.0715 33.2748 48.0997 33.8849 48.2874 34.4104C48.3812 34.6732 48.5595 34.7764 48.8223 34.7201C49.1039 34.6826 49.3197 34.4667 49.4699 34.0726C50.2583 32.0641 51.2719 30.4405 52.5107 29.2017C53.712 28.0003 55.9644 26.3204 59.268 24.1618C59.925 23.7301 60.3098 23.533 60.4224 23.5705C60.535 23.6269 60.3942 24.0116 60.0001 24.7249C59.5496 25.532 58.5735 26.7052 57.0719 28.2444L55.7767 29.624Z" fill="#0D131A"/>
<path d="M59.5774 24.4434C59.1457 25.2317 58.1978 26.3861 56.7337 27.9065L55.4104 29.258C54.3405 30.4217 53.5522 31.3696 53.0454 32.1017C52.0881 33.4719 51.6094 34.6357 51.6094 35.593C51.6094 36.2124 51.8065 36.7473 52.2007 37.1978C52.4447 37.4606 52.6699 37.5826 52.8764 37.5638C53.1017 37.5451 53.4208 37.2447 53.8337 36.6629C54.2091 36.081 54.5376 35.6774 54.8192 35.4522C55.2884 35.058 55.8421 34.8703 56.4803 34.8891C55.8609 35.3959 55.2133 36.1561 54.5376 37.1697L52.792 40.0697L52.3133 40.9707C51.112 43.2043 50.5114 44.8092 50.5114 45.7853C50.5114 46.048 50.5583 46.2733 50.6521 46.461C50.8023 46.705 51.0182 46.827 51.2997 46.827C51.8628 46.827 52.4259 46.5548 52.989 46.0105C53.402 45.5976 53.7305 45.1001 53.9745 44.5183C53.9369 45.7008 53.6554 46.827 53.1298 47.8969C52.3978 49.3798 51.2434 50.5811 49.6667 51.5008C49.066 51.8387 48.5499 52.4675 48.1181 53.3873C47.724 54.2131 47.5269 54.9546 47.5269 55.6115V55.6679C47.5644 56.062 47.677 56.3154 47.8647 56.428L48.5686 56.3154L49.6385 55.3018C50.2016 54.6636 50.6897 54.2038 51.1026 53.9222C51.8159 53.4529 52.6793 53.1432 53.6929 52.9931L53.3832 53.3591C52.1631 54.7481 51.2903 55.8931 50.7648 56.7941C49.8826 58.3332 49.3758 59.9569 49.2444 61.665C48.9065 66.6016 47.555 69.999 45.19 71.8573C43.876 72.8897 41.9333 73.4997 39.3618 73.6874C37.9915 73.7625 37.1562 73.9314 36.8559 74.1942C36.0863 74.8324 35.298 75.0858 34.4909 74.9544C33.7964 74.8605 33.252 74.5508 32.8578 74.0253L30.6899 71.4631C29.7138 70.3932 28.1652 69.2764 26.0442 68.1126C25.2558 67.6809 24.5613 66.8644 23.9607 65.6631C23.3413 64.4242 22.9565 63.0446 22.8063 61.5242L22.75 60.2572C22.75 58.6054 23.0691 57.085 23.7073 55.696C24.3267 54.2882 25.2277 53.1151 26.4102 52.1766C28.8691 50.2244 30.5397 48.338 31.4219 46.5173C32.0038 45.316 32.3417 43.805 32.4355 41.9843C32.8672 42.9415 33.0831 44.1147 33.0831 45.5037C33.0831 46.461 33.008 47.3244 32.8578 48.094L32.8015 48.9668C32.8203 49.3798 32.9986 49.1264 33.3365 48.2066C33.6368 46.8364 34.1624 45.3254 34.9132 43.6736C36.4336 40.4075 38.3669 37.9956 40.7132 36.4376C40.1877 37.2447 39.7653 38.0706 39.4462 38.9153C39.1271 39.76 38.9676 40.4639 38.9676 41.027C38.9676 41.4399 39.0614 41.7309 39.2491 41.8998C39.6433 42.2564 40.244 42.0124 41.0511 41.1677L42.4026 39.2813L43.6414 36.8881C44.5424 35.1049 45.2557 33.8379 45.7812 33.0871C46.6447 31.867 47.5456 31.1068 48.4842 30.8065C47.921 31.5761 47.6395 32.4395 47.6395 33.3968C47.6395 33.9036 47.7052 34.2978 47.8366 34.5794C48.0243 35.1425 48.3152 35.424 48.7094 35.424C49.1411 35.4428 49.5447 35.058 49.9201 34.2696C50.8774 32.111 51.9942 30.3936 53.2706 29.1172C54.1153 28.2725 55.7201 27.0524 58.0852 25.457L59.5774 24.4434Z" fill="#E50020"/>
<path d="M45.4721 39.3657C46.0353 38.9153 46.4201 38.7369 46.6265 38.8308C46.7579 38.8683 46.6547 39.103 46.3168 39.5347C45.4158 40.8674 44.909 41.8904 44.7964 42.6036C44.7589 42.8852 44.8152 43.88 44.9653 45.5881C45.0967 47.2024 44.787 48.7134 44.0362 50.1212C43.4731 51.1348 42.6003 52.1953 41.4178 53.3027C40.2352 54.4477 39.5219 55.5083 39.2779 56.4843C38.9964 57.573 39.0621 58.2863 39.475 58.6241C39.8692 58.962 40.1414 58.8588 40.2915 58.3144C40.6294 57.1507 41.0517 56.2121 41.5585 55.4989C41.9902 54.8607 42.5815 54.2788 43.3323 53.7532C43.6514 53.5468 43.8391 53.4435 43.8954 53.4435C43.9893 53.4435 43.9799 53.5937 43.8673 53.894C42.8349 56.6532 42.5815 58.2112 43.1071 58.5678C43.276 58.6429 43.5482 58.5115 43.9236 58.1736C44.3553 57.7982 44.7401 57.3196 45.078 56.7377C46.0165 55.2173 46.4857 53.894 46.4857 52.7678C46.4857 51.9043 46.6453 51.8199 46.9644 52.5144C47.1146 52.8335 47.2084 53.3121 47.2459 53.9503C47.2835 54.7387 47.2178 55.4801 47.0489 56.1746C46.6171 57.8264 45.2563 59.8911 42.9663 62.3688C41.2957 64.1708 40.5355 65.6536 40.6857 66.8174C40.7983 67.6433 41.1362 68.075 41.6993 68.1125C42.1686 68.1125 42.6848 67.8685 43.2479 67.3805C43.9236 66.7799 44.4679 65.9258 44.8809 64.8184C44.9935 64.4993 45.0967 64.3303 45.1906 64.3116C45.2844 64.274 45.3877 64.4148 45.5003 64.7339C46.0446 66.2355 45.9977 67.6621 45.3595 69.0135C44.6463 70.4401 43.5388 71.2284 42.0372 71.3786C41.4553 71.4349 40.8359 71.632 40.1789 71.9699C39.5219 72.289 38.9494 72.6737 38.4614 73.1242L36.3779 74.5883C36.0025 74.9074 35.5614 75.1045 35.0546 75.1796L33.7313 75.0951C33.2996 74.9825 32.7834 74.4663 32.1827 73.5466L31.4507 72.6456L30.5497 71.4631L29.7614 69.8582C28.0345 65.2782 28.1002 61.5054 29.9584 58.5397C30.5591 57.6199 30.8219 57.5261 30.7468 58.2581C30.7093 58.9526 30.8125 59.5439 31.0565 60.0319C31.3193 60.5387 31.6384 60.7546 32.0138 60.6795C32.2954 60.6232 32.5394 60.2572 32.7458 59.5814C32.9523 58.8681 33.0556 58.0235 33.0556 57.0474C33.0743 54.7011 33.9659 52.5238 35.7303 50.5153C37.1193 48.9386 38.2362 48.0846 39.0808 47.9532C39.3999 47.9344 39.4375 48.0752 39.1935 48.3755C38.0109 49.7833 37.2789 50.9846 36.9973 51.9794C36.7533 52.8053 36.8378 53.2558 37.2507 53.3309C37.8326 53.406 38.4708 52.993 39.1653 52.092C39.8974 51.1348 40.7608 49.5487 41.7556 47.3338L42.6566 45.2503C42.8818 44.5933 43.0132 43.9176 43.0508 43.2231C43.1259 41.7965 43.933 40.5107 45.4721 39.3657Z" fill="#EFE908"/>
<path d="M57.9735 124.705C58.6117 122.453 60.7234 121.495 64.3085 121.833C67.3493 122.115 71.1034 123.279 75.5707 125.325C79.6064 127.183 83.2103 129.276 86.3825 131.603C89.6297 133.968 91.3191 135.78 91.4505 137.037C91.6757 139.346 89.8456 143.907 85.9601 150.721C82.3562 157.065 79.7284 160.894 78.0766 162.208C81.2863 166.019 82.7222 168.787 82.3844 170.514C82.253 171.209 81.8025 171.875 81.0329 172.513L78.5834 174.259C76.9128 175.404 73.018 176.023 66.8988 176.117C61.0237 176.192 57.5418 175.845 56.4531 175.075C54.5385 173.705 53.478 172.861 53.2715 172.541C52.2955 171.152 52.4175 169.275 53.6376 166.91C55.4771 163.306 56.4907 160.406 56.6784 158.21C56.8285 156.183 56.2936 154.156 55.0735 152.129C54.2101 150.683 53.5249 149.088 53.0181 147.342C52.1359 144.264 52.1641 141.552 53.1026 139.205L55.1298 134.053L57.9735 124.705Z" fill="#E73820"/>
<path d="M81.7081 149.707C86.0441 143.982 88.259 138.454 88.3528 133.124C90.3049 134.775 91.3373 136.08 91.4499 137.037C91.6752 139.346 89.8451 143.907 85.9596 150.721C82.3557 157.065 79.7278 160.894 78.0761 162.208C80.6101 165.212 82.0366 167.53 82.3557 169.163C82.6185 170.458 82.168 171.584 81.0042 172.541C78.7893 170.026 76.7621 168.074 74.9226 166.685C73.7401 165.784 71.9288 164.648 69.4886 163.278C67.743 162.283 67.3769 161.345 68.3905 160.463C68.7472 160.162 70.2113 159.421 72.7828 158.238C75.3168 157.056 78.2919 154.212 81.7081 149.707Z" fill="#C82E19"/>
<path d="M57.4935 124.593C57.9627 123.504 58.31 123.025 58.5352 123.157C58.7605 123.288 58.7323 123.842 58.4508 124.818L56.3109 131.575L53.5517 139.374C52.632 141.664 52.632 144.339 53.5517 147.399C54.0397 149.05 54.6873 150.543 55.4944 151.875C56.8084 154.053 57.3621 156.239 57.1556 158.435C56.9491 160.632 55.9262 163.532 54.0867 167.136C53.0731 169.088 52.8384 170.646 53.3828 171.809C53.7019 172.485 54.5371 173.255 55.8886 174.118L56.7333 174.681C57.7093 175.376 61.0598 175.695 66.7848 175.639C72.8101 175.582 76.6486 174.982 78.3004 173.837L79.0888 173.302C80.0273 172.682 80.6655 172.213 81.0033 171.894C81.5289 171.387 81.8292 170.852 81.9043 170.289C82.0357 169.482 81.7917 168.487 81.1723 167.304C80.5341 166.084 79.4454 164.564 77.9062 162.743C76.5735 163.457 75.7946 163.672 75.5693 163.391C75.4004 163.184 75.4004 163.006 75.5693 162.856L76.8645 161.814C79.2296 159.9 82.1108 156.305 85.5082 151.031C89.5251 144.799 91.3364 140.153 90.9423 137.094L91.9277 136.981L91.984 137.882C91.984 141.317 90.5105 145.54 87.5636 150.552C84.992 154.907 82.0545 158.717 78.7509 161.983C80.3464 163.935 81.4914 165.465 82.1859 166.572C83.0681 167.943 83.5092 169.05 83.5092 169.895L83.2558 170.937C83.1432 171.65 82.7115 172.26 81.9606 172.767L79.6519 174.118L78.8635 174.653C77.0991 175.873 73.1292 176.53 66.9537 176.624C60.9848 176.737 57.3902 176.352 56.1702 175.47L54.7061 174.991C53.2608 174.09 52.3598 173.264 52.0031 172.513C51.3274 171.143 51.5714 169.313 52.7352 167.023C54.5371 163.513 55.4194 160.369 55.3818 157.591C55.363 155.376 54.7436 153.264 53.5235 151.256C52.5475 149.66 51.8624 148.206 51.4682 146.892C50.6423 144.151 50.7174 141.561 51.6934 139.121L57.4935 124.593Z" fill="#0D131A"/>
<path d="M59.7751 168.346C60.7324 167.633 61.4269 167.464 61.8586 167.839C62.4592 168.309 63.0693 169.106 63.6887 170.233C64.4583 171.584 64.89 172.87 64.9838 174.09C65.0777 175.16 64.9369 176.295 64.5615 177.497C64.1673 178.811 63.5855 179.89 62.8159 180.735C62.6469 180.941 62.3935 181.007 62.0557 180.932C61.3612 180.8 60.2631 179.834 58.7615 178.032C57.4288 176.417 56.6123 175.244 56.3119 174.512C56.1055 173.968 56.4152 172.964 57.2411 171.5C58.067 170.036 58.9116 168.984 59.7751 168.346Z" fill="#0D131A"/>
<path d="M61.4918 168.994C62.0736 169.463 62.618 170.101 63.1248 170.908C63.7817 171.978 64.1572 173.058 64.251 174.146V174.625C64.251 176.258 63.594 177.797 62.2801 179.242C61.9235 179.318 61.0225 178.67 59.5772 177.3C58.1319 175.911 57.2778 174.897 57.015 174.259C56.8836 173.959 57.1746 173.245 57.8879 172.119C58.6387 170.899 59.4364 169.979 60.2811 169.36C60.8442 168.947 61.2477 168.825 61.4918 168.994Z" fill="#FFF3C2"/>
<path d="M61.8303 177.553C62.0555 177.553 62.3934 177.375 62.8439 177.018C63.3507 176.624 63.7918 176.155 64.1672 175.61C63.9419 176.887 63.3131 178.097 62.2808 179.242C61.9241 179.318 61.0231 178.67 59.5778 177.3C58.1325 175.911 57.2785 174.897 57.0157 174.259C56.9031 174.015 57.1377 173.395 57.7196 172.401C58.3953 173.996 59.2306 175.319 60.2254 176.371C60.9762 177.159 61.5112 177.553 61.8303 177.553Z" fill="#DBD2A9"/>
<path d="M71.7974 168.262C72.2667 167.98 72.98 168.224 73.9373 168.994C74.8007 169.688 75.5515 170.533 76.1897 171.528C76.903 172.673 77.4286 174.418 77.7664 176.765C78.0855 178.998 78.0761 180.247 77.7383 180.509C77.4379 180.772 76.9218 180.829 76.1897 180.678L74.5567 180.2C73.224 179.731 71.8162 178.952 70.3334 177.863C68.9819 176.887 68.2123 176.155 68.0246 175.667C67.7994 175.141 68.1372 173.921 69.0382 172.006C69.9767 170.017 70.8965 168.769 71.7974 168.262Z" fill="#0D131A"/>
<path d="M73.7397 170.204C74.528 170.805 75.1099 171.406 75.4853 172.006C76.2174 173.17 76.7148 174.493 76.9776 175.976C77.2216 177.384 77.1653 178.407 76.8086 179.045C76.7336 179.195 76.5459 179.28 76.2455 179.299C75.2882 179.317 73.918 178.801 72.1348 177.75C70.483 176.812 69.4882 176.07 69.1503 175.526C68.8688 175.094 69.141 174.062 69.9669 172.429C70.774 170.852 71.4497 169.885 71.994 169.529C72.3319 169.341 72.9138 169.566 73.7397 170.204Z" fill="#FFF3C2"/>
<path d="M69.7987 172.767C71.2065 174.475 72.5486 175.789 73.825 176.708C75.1952 177.684 76.2839 178.06 77.091 177.835C77.0535 178.36 76.9596 178.764 76.8095 179.045C76.7344 179.195 76.5467 179.28 76.2464 179.299C75.2891 179.317 73.9188 178.801 72.1357 177.75C70.4839 176.812 69.489 176.07 69.1512 175.526C68.8884 175.132 69.1042 174.212 69.7987 172.767Z" fill="#DBD2A9"/>
<path d="M81.2576 166.995C82.2149 166.938 83.5945 167.999 85.3964 170.176C87.2359 172.41 88.2214 174.278 88.3528 175.779C88.3716 175.986 88.2308 176.098 87.9304 176.117L87.3392 176.089C86.4382 176.183 84.7958 175.976 82.412 175.47C80.0469 174.982 78.7424 174.578 78.4983 174.259C78.3294 174.034 78.2637 173.527 78.3013 172.739C78.3388 171.988 78.4608 171.274 78.6673 170.599C78.9113 169.735 79.2116 168.994 79.5683 168.374C80.0938 167.492 80.6569 167.032 81.2576 166.995Z" fill="#0D131A"/>
<path d="M81.4539 167.98C81.7918 168.037 82.4863 168.656 83.5375 169.838C84.6824 171.096 85.574 172.307 86.2122 173.471C86.5876 174.184 86.7753 174.691 86.7753 174.991L86.7472 175.16C86.4093 175.366 85.1705 175.226 83.0307 174.738C80.9284 174.25 79.6895 173.855 79.3141 173.555L79.2578 173.048C79.2578 172.053 79.4643 171.03 79.8772 169.979C80.2902 168.928 80.8158 168.262 81.4539 167.98Z" fill="#FFF3C2"/>
<path d="M79.541 171.021L79.8789 169.979C80.2918 168.928 80.8174 168.262 81.4556 167.98C81.7935 168.037 82.488 168.656 83.5391 169.838C84.6841 171.096 85.5757 172.307 86.2139 173.471C86.5893 174.184 86.777 174.691 86.777 174.991L86.7488 175.16C86.3359 175.385 84.9563 175.207 82.61 174.625C82.4786 174.25 82.1313 173.743 81.5682 173.105L79.541 171.021Z" fill="#DBD2A9"/>
<path d="M77.2024 143.598C77.2587 142.884 78.3568 142.593 80.4966 142.725C81.7354 142.781 82.7584 143.185 83.5655 143.935C84.5228 144.818 85.0108 146.075 85.0296 147.708C85.0484 149.135 85.1986 151.613 85.4801 155.141L85.9869 159.703C86.0995 160.998 86.0057 161.72 85.7053 161.871C85.5364 161.964 85.2642 161.824 84.8888 161.448L84.1286 160.66C82.7209 159.346 81.2098 157.047 79.5956 153.762C77.6998 149.876 76.8739 146.723 77.1179 144.301L77.2024 143.598Z" fill="#0D131A"/>
<path d="M80.4412 143.457C81.2859 143.476 82.0367 143.72 82.6937 144.189C83.7448 144.921 84.2798 146.094 84.2985 147.708C84.3173 149.735 84.4675 152.232 84.749 155.198L85.0024 158.83L84.8617 159.787L84.4675 159.505C83.2474 158.36 81.9241 156.324 80.4975 153.396C78.8833 150.073 78.0762 147.267 78.0762 144.977L78.1325 144.133C78.1513 143.982 78.3671 143.832 78.7801 143.682L80.4412 143.457Z" fill="#FFF3C2"/>
<path d="M78.7801 143.682L80.4412 143.457C81.2859 143.476 82.0367 143.72 82.6937 144.189C83.7448 144.921 84.2798 146.094 84.2985 147.708C84.3173 149.735 84.4675 152.232 84.749 155.198L85.0024 158.83L84.918 159.674C84.6552 157.76 84.3079 155.845 83.8762 153.931C83.3882 151.772 82.9565 150.364 82.5811 149.707C82.2995 149.238 81.7552 148.741 80.948 148.215C80.1597 147.69 79.2587 147.23 78.2451 146.835C78.1325 146.197 78.0762 145.578 78.0762 144.977L78.1325 144.133C78.1513 143.982 78.3671 143.832 78.7801 143.682Z" fill="#DBD2A9"/>
<path d="M107.893 97.9292C104.758 99.825 102.065 101.486 99.8121 102.913C95.5137 105.653 92.8952 107.568 91.9567 108.656C91.5438 110.383 92.4072 114.86 94.547 122.087C96.8182 129.726 97.9538 133.752 97.9538 134.165C97.9538 137 97.0247 139.9 95.1664 142.865C92.4635 147.145 88.6907 148.665 83.8479 147.427L80.61 146.413C79.2586 145.944 78.1887 145.259 77.4003 144.358C75.1479 141.824 74.3407 136.577 74.9789 128.619C75.3919 123.57 75.8424 119.562 76.3304 116.596C76.9686 112.73 77.8133 109.642 78.8644 107.333C79.8405 105.156 81.6424 103.232 84.2703 101.561C85.4528 100.81 87.5175 99.7781 90.4645 98.4642C91.9473 97.826 93.7774 96.3243 95.9548 93.9593C97.6066 92.1761 98.9111 90.5525 99.8684 89.0884C100.507 88.1123 102.074 87.3427 104.57 86.7796L110.399 86.5825C111.731 86.9767 111.985 88.7693 111.159 91.9602C110.352 95.0761 109.263 97.0658 107.893 97.9292Z" fill="#E73820"/>
<path d="M93.6734 127.464L93.8705 119.722L96.5734 128.731C97.4744 131.753 97.9343 133.565 97.953 134.165C97.953 136.418 97.2585 138.905 95.8695 141.627C93.8986 145.493 91.1394 147.549 87.5918 147.793C90.5012 145.052 92.3407 140.838 93.1103 135.151C93.3918 133.142 93.5795 130.58 93.6734 127.464Z" fill="#C82E19"/>
<path d="M103.415 86.1603C105.48 85.6159 107.826 85.5972 110.454 86.104C111.167 86.2353 111.487 86.4324 111.412 86.6952C111.318 86.958 110.811 87.0425 109.891 86.9486C107.901 86.7421 105.996 86.9017 104.176 87.4273C102.28 87.9716 100.919 88.7787 100.093 89.8486C98.2347 92.2512 96.7519 94.025 95.6444 95.17C93.9175 96.972 92.2564 98.2202 90.6609 98.9147L89.9851 99.2244C87.3761 100.388 85.4239 101.392 84.1288 102.237C81.82 103.795 80.2152 105.559 79.3142 107.53C77.3996 111.735 76.1232 118.774 75.485 128.647C75.3724 130.261 75.3161 131.716 75.3161 133.011C75.3161 137.948 76.0669 141.448 77.5686 143.513C78.4508 144.714 80.0275 145.672 82.2987 146.385L83.9599 146.948C87.1696 147.755 89.9007 147.286 92.1531 145.54C93.9175 144.17 95.3065 142.115 96.3201 139.374C97.071 137.309 97.4464 135.573 97.4464 134.165C97.4464 133.64 96.7612 131.096 95.391 126.535C92.5191 117.15 91.2146 111.153 91.4774 108.544C91.6276 107.192 91.8622 106.62 92.1813 106.826C92.3502 106.939 92.5004 107.183 92.6318 107.558C93.6266 106.432 96.1418 104.593 100.177 102.04C103.5 99.9189 105.837 98.5205 107.188 97.8448C108.014 97.4319 108.493 97.2911 108.624 97.4225C108.755 97.5539 108.446 97.9762 107.695 98.6895L100.572 103.363C96.3108 106.047 93.7204 107.887 92.8007 108.882C92.7819 110.346 93.1855 112.964 94.0114 116.737C94.781 120.172 95.635 123.419 96.5735 126.479L98.1503 131.772C98.6383 133.443 98.8823 134.503 98.8823 134.954C98.8823 136.362 98.4224 138.117 97.5027 140.219C96.3201 142.866 94.7716 144.94 92.857 146.441C90.3981 148.356 87.3479 148.844 83.7065 147.905L80.9472 147.342C78.3381 146.535 76.5925 145.362 75.7103 143.823C74.2087 141.157 73.6925 136.268 74.1617 129.154C74.5371 123.541 74.9782 119.13 75.485 115.921C76.0669 112.204 76.8365 109.295 77.7938 107.192C78.7511 105.09 80.5437 103.204 83.1715 101.533C84.4479 100.707 86.5877 99.6374 89.591 98.3235L90.2667 98.0419C92.2939 97.0283 94.1522 95.4234 95.8415 93.2273L98.8541 88.9195C99.9991 87.5868 101.52 86.6671 103.415 86.1603Z" fill="#0D131A"/>
<path d="M95.7022 135.996C96.7346 134.325 97.5511 133.621 98.1518 133.884C98.865 134.184 99.5032 134.869 100.066 135.939C100.536 136.84 100.892 137.891 101.136 139.093C102.169 144.386 102.234 148.3 101.333 150.834L100.489 152.635C100.132 153.18 99.8505 153.433 99.644 153.396C99.4 153.358 99.1184 152.936 98.7993 152.129L98.011 150.073C96.9035 147.408 95.477 145.137 93.7313 143.26L93.4779 143.119C93.0087 142.725 93.1119 141.636 93.7876 139.853C94.3132 138.445 94.9514 137.159 95.7022 135.996Z" fill="#0D131A"/>
<path d="M94.1816 142.162C94.1816 141.523 94.435 140.538 94.9418 139.205C95.4862 137.76 96.0868 136.596 96.7438 135.714C97.2506 135.057 97.6072 134.785 97.8137 134.898C98.283 135.104 98.7241 135.63 99.137 136.474C99.55 137.356 99.8878 138.473 100.151 139.825C100.582 142.021 100.761 144.273 100.686 146.582C100.61 148.816 100.357 150.148 99.9254 150.58L99.6438 150.777C99.4936 150.758 99.2215 150.252 98.8273 149.257L97.3069 146.103C96.481 144.733 95.4674 143.532 94.2661 142.5C94.2098 142.443 94.1816 142.331 94.1816 142.162Z" fill="#FFF3C2"/>
<path d="M97.8419 137.403L98.7991 140.613C99.0807 141.964 99.2684 143.541 99.3623 145.343C99.4749 147.164 99.4655 148.834 99.3341 150.355L98.8273 149.257L97.3069 146.103C96.481 144.733 95.4674 143.532 94.2661 142.499C94.2098 142.443 94.1816 142.33 94.1816 142.162C94.1816 141.523 94.435 140.538 94.9418 139.205C95.4862 137.76 96.0868 136.596 96.7438 135.714L97.1661 135.263C97.2224 135.583 97.4477 136.296 97.8419 137.403Z" fill="#DBD2A9"/>
<path d="M90.239 141.458C91.6656 142.396 92.529 143.917 92.8293 146.019L93.8993 152.551L95.1099 158.773C95.3352 160.294 95.2507 161.12 94.8565 161.251C94.1433 161.495 92.2381 159.693 89.141 155.845C86.1753 152.166 84.4578 149.689 83.9885 148.412C82.5432 144.545 82.3649 141.974 83.4535 140.698C83.6788 140.416 84.0542 140.238 84.5798 140.163L86.0157 140.191L86.6351 140.275C88.1743 140.482 89.3756 140.876 90.239 141.458Z" fill="#0D131A"/>
<path d="M93.167 152.692C93.8052 156.014 94.1243 158.013 94.1243 158.689L94.0398 159.196C93.3641 158.933 91.7874 157.262 89.3097 154.184C86.7944 151.049 85.3022 148.844 84.8329 147.567C84.2698 145.916 83.9883 144.461 83.9883 143.203C83.9883 142.321 84.1478 141.683 84.4669 141.289C84.7673 140.932 85.2365 140.81 85.8747 140.923L86.5504 141.007C88.0333 141.214 89.1314 141.57 89.8446 142.077C91.0459 142.941 91.7968 144.452 92.0971 146.61L93.167 152.692Z" fill="#FFF3C2"/>
<path d="M91.2528 149.285C90.8398 147.633 90.8023 145.719 91.1402 143.541C91.5907 144.367 91.9098 145.39 92.0975 146.61L93.1674 152.692C93.8056 156.014 94.1247 158.013 94.1247 158.689L94.0402 159.196L93.8431 159.083L92.4072 153.649L91.2528 149.285Z" fill="#DBD2A9"/>
<path d="M130.389 53.0775C130.727 53.1714 130.999 53.4623 131.206 53.9503C131.393 54.4008 131.487 54.9358 131.487 55.5552C131.487 56.2122 131.337 56.7753 131.037 57.2445C130.755 57.7138 130.408 57.9484 129.995 57.9484C129.582 57.9484 129.225 57.7138 128.925 57.2445C128.625 56.7753 128.475 56.2122 128.475 55.5552C128.475 55.1235 128.55 54.7105 128.7 54.3164L130.389 53.0775Z" fill="white"/>
</svg>
