<svg width="200" height="200" viewBox="0 0 200 200" fill="none" xmlns="http://www.w3.org/2000/svg">
<circle cx="100.5" cy="99.5" r="82.5" fill="#FFEBCA"/>
<path d="M162.905 126.797C162.379 135.793 159.298 143.343 153.661 149.448C148.695 154.823 142.284 158.605 134.427 160.796C127.154 162.84 119.997 163.205 112.958 161.891C105.86 160.577 100.574 157.86 97.0977 153.742C97.711 152.311 98.3682 150.251 99.0693 147.564C100.092 143.65 100.515 140.569 100.34 138.32C103.757 142.029 107.993 144.877 113.046 146.863C118.391 148.966 123.78 149.74 129.213 149.185C142.503 147.842 152.521 139.517 159.269 124.212L160.057 125.526C160.817 126.373 161.766 126.797 162.905 126.797Z" fill="#EF8200"/>
<path d="M97.0968 153.873C104.837 160.825 114.286 163.761 125.444 162.68C135.638 161.687 144.97 157.714 153.441 150.763C144.824 160.781 133.871 165.937 120.581 166.229C115.294 166.316 110.314 165.572 105.64 163.994C101.259 162.475 97.9876 160.518 95.8262 158.123L97.0968 153.873Z" fill="#DDD583"/>
<path d="M98.4121 149.58C104.429 155.976 112.958 159.102 123.999 158.956C134.427 158.81 144.065 155.903 152.916 150.237C145.614 157.539 136.442 161.657 125.401 162.592C114.01 163.556 104.575 160.65 97.0977 153.873L98.4121 149.58Z" fill="#CF7100"/>
<path d="M85.0925 49.7296C84.742 51.599 83.7489 55.1332 82.1132 60.3324C80.6235 65.0934 79.8495 67.8829 79.7911 68.7007C79.7035 69.8399 79.9955 72.5709 80.6673 76.8938C81.1931 80.4281 81.7043 83.4512 82.2008 85.9632C84.7128 99.1364 87.5314 108.235 90.6568 113.259C94.3663 119.188 96.8783 123.789 98.1927 127.06C100.617 133.106 101.23 138.612 100.033 143.578L96.6592 155.363C95.7829 158.226 95.3156 160.592 95.2572 162.461L97.7983 167.894C99.3172 171.75 99.7115 174.305 98.9813 175.561C97.959 177.255 96.7176 178.643 95.2572 179.724C93.4754 181.038 91.5038 181.797 89.3424 182.002C86.8012 182.236 84.114 181.827 81.2807 180.775C78.2138 179.665 76.6657 178.336 76.6365 176.788L76.768 169.866C76.7388 166.536 76.3882 164.126 75.7164 162.636L72.9562 159.745C71.0284 157.466 69.8601 155.524 69.4511 153.918L62.8353 152.735L60.7761 154.268C59.3449 155.466 58.5562 156.517 58.4102 157.423L59.856 160.314C60.7615 162.417 61.0244 163.819 60.6447 164.52C60.1189 165.484 57.753 166.726 53.5469 168.244C48.9903 169.88 45.1056 170.698 41.8926 170.698C38.3875 170.698 35.1161 169.676 32.0784 167.631C29.0115 165.586 28.4857 164.009 30.5011 162.899L35.9778 159.832C33.6119 158.284 31.9616 156.079 31.0269 153.217C29.2159 147.521 31.947 141.445 39.22 134.99C37.7595 132.595 36.6788 128.55 35.9778 122.854C35.1307 116.311 35.2622 110.221 36.3721 104.584L33.6557 107.475C32.2829 108.819 31.246 109.389 30.5449 109.184C30.0484 109.038 29.6541 108.279 29.362 106.906L29.0991 104.847C26.0322 105.869 24.3819 105.986 24.1482 105.197C23.8853 104.292 23.8707 103.415 24.1044 102.568C24.5133 101.108 25.6379 99.3992 27.478 97.4422C28.6172 94.8719 30.209 91.9948 32.2537 88.811C36.3429 82.5019 40.6804 77.8723 45.2662 74.9222C43.3092 74.5425 41.7465 73.8561 40.5782 72.863C38.5044 71.1397 35.934 68.0873 32.8671 63.706C28.6026 57.689 26.5141 52.7089 26.6018 48.7657C26.631 46.7795 27.4926 44.5596 29.1867 42.1061C30.7056 39.8278 31.9032 38.6302 32.7794 38.5134L37.4674 26.64C37.263 26.2603 37.1315 25.8075 37.0731 25.2818C36.9271 24.2595 37.1754 23.3978 37.818 22.6968C40.5052 19.7759 43.134 17.6145 45.7043 16.2124C51.663 12.941 58.6147 11.8895 66.5595 13.0579C72.3136 13.8757 77.2061 17.9796 81.2369 25.3694C85.443 33.1097 86.7282 41.2298 85.0925 49.7296Z" fill="#EF8200"/>
<path d="M26.7324 102.656C28.631 101.254 30.1353 100.494 31.2452 100.377C32.1215 100.29 32.472 100.553 32.2967 101.166C32.0922 101.75 31.435 102.261 30.3251 102.699L27.6963 103.006L26.7324 102.656Z" fill="#CF7100"/>
<path d="M30.4121 109.447C32.632 105.942 34.808 102.992 36.9403 100.596L36.6336 104.233C33.187 107.796 31.1131 109.534 30.4121 109.447Z" fill="#CF7100"/>
<path d="M51.5752 74.0456C55.7228 73.3154 58.9942 72.3807 61.3893 71.2416L63.8867 71.1978C64.0327 71.8696 63.5946 72.8773 62.5723 74.2209C59.9143 77.8136 57.0518 79.5953 53.9849 79.5661C51.6482 79.5369 49.8664 79.0988 48.6397 78.2517C47.6174 77.5507 46.7557 76.3969 46.0547 74.7904L51.5752 74.0456Z" fill="#CF7100"/>
<path d="M70.2395 155.932C66.8805 150.324 66.0918 144.848 67.8736 139.502C67.5523 142.803 68.8667 145.695 71.8168 148.177C74.5332 150.427 77.9798 151.858 82.1567 152.471C86.3628 153.114 90.0723 152.69 93.2853 151.201C96.6443 149.653 98.7473 147.184 99.5944 143.796L98.6743 147.958L97.0094 154.574C96.6005 155.743 96.2208 157.247 95.8703 159.087C95.4905 160.956 95.3153 162.169 95.3445 162.723C95.4029 163.512 96.4106 166.199 98.3676 170.785C96.6151 167.689 92.7887 166.272 86.8885 166.535C80.9299 166.798 77.4687 168.667 76.5048 172.143C76.5048 166.769 76.2857 163.629 75.8476 162.723C73.803 161 71.9336 158.736 70.2395 155.932Z" fill="#CF7100"/>
<path d="M42.242 152.734C44.0529 151.595 45.0606 150.003 45.2651 147.958C45.4695 145.972 44.8562 143.913 43.4249 141.781C46.2582 145.373 50.2598 148.221 55.4298 150.324C58.2922 151.463 60.8626 152.194 63.1409 152.515C62.031 152.953 60.9064 153.917 59.7673 155.407L58.3652 157.466C59.0663 158.401 59.6066 159.54 59.9863 160.883C60.3368 162.139 60.4829 163.264 60.4245 164.257C60.3661 165.133 59.2561 166.024 57.0947 166.93C55.7511 167.514 52.9616 168.463 48.7263 169.777L43.1182 170.698L39.7446 170.566C42.7531 169.777 43.8338 168.405 42.9868 166.448C42.2274 164.637 39.9637 162.577 36.1957 160.27C34.2387 159.072 32.7053 156.999 31.5953 154.048L30.5 149.974C32.0189 152.106 33.9612 153.391 36.3272 153.829C38.4886 154.238 40.4602 153.873 42.242 152.734Z" fill="#CF7100"/>
<path d="M55.5172 81.231C57.9999 84.4732 60.322 88.4456 62.4835 93.1483C68.4129 105.883 70.9687 118.867 70.1508 132.098L67.8287 139.108C66.6604 144.6 67.0547 149.346 69.0117 153.348C64.3382 153.172 59.4604 151.946 54.378 149.667C44.2426 145.082 38.2401 137.502 36.3708 126.928C34.8811 118.575 35.2608 109.14 37.5099 98.6249C38.7951 92.7539 40.4892 87.1604 42.5923 81.8444C43.2933 80.9974 44.1549 80.1357 45.1772 79.2594C47.2219 77.5653 49.0328 76.7475 50.6101 76.8059C51.6616 76.8351 53.2973 78.3102 55.5172 81.231Z" fill="#FFF697"/>
<path d="M54.5977 79.5223L50.6983 79.3032C49.6468 79.0111 48.6829 78.4269 47.8066 77.5507L48.902 77.1125L51.1364 77.1564C52.188 77.5653 53.3417 78.3539 54.5977 79.5223Z" fill="#DDD583"/>
<path d="M52.1882 137.838C58.4097 139.123 63.7841 138.714 68.3115 136.611C67.6981 137.049 67.3038 139.094 67.1285 142.745C66.9241 147.185 67.5521 150.748 69.0125 153.435C64.3975 153.727 59.3152 152.442 53.7655 149.58C45.1197 145.14 39.3801 137.809 36.5469 127.585C39.8475 132.96 45.0613 136.377 52.1882 137.838Z" fill="#DDD583"/>
<path d="M31.332 52.4895L33.3913 54.2858C35.0854 55.6002 36.7649 56.5933 38.4298 57.2651L40.5766 57.7909C38.4152 58.4335 36.5604 59.4704 35.0123 60.9017C33.4643 58.3313 32.2375 55.5272 31.332 52.4895Z" fill="#922F00"/>
<path d="M40.578 57.7908L54.5544 59.149C60.5714 59.5287 64.354 59.6309 65.902 59.4557C64.8505 61.6463 61.7836 63.9538 56.7012 66.3782C51.0931 69.0946 46.3175 70.0439 42.3743 69.226C41.7609 69.08 40.797 68.306 39.4826 66.9039C37.8761 65.239 36.3865 63.2382 35.0137 60.9015C36.5617 59.4703 38.4165 58.4334 40.578 57.7908Z" fill="#ED8599"/>
<path d="M35.2763 60.9893C35.0719 60.668 35.9043 60.0254 37.7737 59.0615L40.6216 57.7471L56.8325 59.1053L65.9018 59.4558C64.8211 60.9746 63.1708 62.4497 60.9509 63.8809C59.8702 64.6112 58.8771 65.1807 57.9716 65.5896C55.7517 63.6327 52.1737 62.1284 47.2374 61.0769C42.2134 59.9962 38.2264 59.9669 35.2763 60.9893Z" fill="#CE7486"/>
<path d="M67.084 32.7734C65.6528 35.8404 64.7327 38.9949 64.3238 42.2371C63.8564 45.7714 64.0609 49.0428 64.9372 52.0513C63.3015 51.9637 62.4106 51.7592 62.2646 51.4379C61.5051 49.4517 61.5928 46.3848 62.5274 42.2371C63.5205 37.7974 65.0394 34.6428 67.084 32.7734Z" fill="white"/>
<path d="M70.8083 31.2838C73.4663 31.5175 74.8391 34.5844 74.9267 40.4846C75.0143 45.3332 74.6346 48.7653 73.7876 50.7807C73.5539 51.3357 72.4148 51.73 70.3701 51.9636C68.6176 52.1389 66.8067 52.1681 64.9373 52.0513C64.061 49.0428 63.8566 45.7714 64.3239 42.2371C64.7328 38.9949 65.6529 35.8404 67.0841 32.7734C68.2525 31.6635 69.4939 31.1669 70.8083 31.2838Z" fill="#0D131A"/>
<path d="M32.8652 38.4254C33.4202 36.0303 34.1212 33.6936 34.9683 31.4153C36.6624 26.8295 38.2543 24.8433 39.7439 25.4567C41.1167 26.0409 41.0437 29.3707 39.5249 35.4461C37.9768 41.5216 36.604 44.3694 35.4064 43.9897C34.5593 43.6976 33.8875 42.6899 33.391 40.9666L32.8652 38.4254Z" fill="#0D131A"/>
<path d="M29.5371 50.9998C29.8584 51.73 31.1144 52.7377 33.3051 54.0229C32.1659 55.0744 31.3627 55.5271 30.8953 55.3811C30.4572 55.235 30.0045 53.7746 29.5371 50.9998Z" fill="white"/>
<path d="M35.1875 61.1645L36.239 60.9016L37.4658 61.0331C37.641 61.3251 37.4804 62.2014 36.9838 63.6618L35.1875 61.1645Z" fill="white"/>
<path d="M50.4355 68.7442L50.7422 67.3422C51.0051 66.4075 51.2972 65.911 51.6185 65.8526C52.1443 65.7941 52.743 66.3491 53.4148 67.5175L50.4355 68.7442Z" fill="white"/>
<path d="M51.4434 58.7986L56.7886 59.1929C55.2113 61.0915 54.116 62.0408 53.5026 62.0408C52.86 62.0408 52.1736 60.96 51.4434 58.7986Z" fill="white"/>
<path d="M38.6945 168.332C39.045 167.835 39.673 167.324 40.5784 166.798L41.8052 166.141C42.7691 166.316 43.5431 167.046 44.1273 168.332L44.6969 170.259C43.7622 171.136 42.0243 171.778 39.4831 172.187L35.5399 172.319C35.3647 172.143 35.5253 171.778 36.0219 171.223L36.7667 170.391L32.1225 171.048L29.5375 170.785C29.3622 170.61 29.5813 170.186 30.1947 169.515L31.1586 168.595L27.6973 168.901C25.3314 168.989 24.09 168.77 23.9732 168.244C23.8272 167.747 24.8057 166.711 26.9087 165.133C29.0702 163.527 30.4868 162.957 31.1586 163.425C31.8888 163.892 32.4584 164.958 32.8673 166.623L33.8312 165.659C34.5906 165.016 35.3355 164.724 36.0657 164.783C36.7959 164.841 37.4531 165.455 38.0373 166.623L38.6945 168.332Z" fill="white"/>
<path d="M152.74 86.7076L153.222 88.5478C153.309 89.4241 153.207 90.1981 152.915 90.8699C152.71 91.3957 152.681 91.9798 152.827 92.6224C152.973 93.3234 153.295 93.966 153.791 94.5502L154.142 93.1044L156.99 95.9522L156.946 98.362L157.778 99.8516C158.099 100.407 158.289 101.356 158.348 102.699L160.757 104.189L159.093 106.993C158.771 107.519 158.596 108.366 158.567 109.534C158.538 110.119 158.552 110.644 158.611 111.112L162.51 108.746L162.598 109.622V110.98C162.276 112.733 162.335 113.857 162.773 114.354C163.766 115.522 164.365 116.457 164.569 117.158C164.832 118.063 164.671 119.115 164.087 120.312C163.474 121.568 163.153 122.883 163.123 124.256C163.123 125.453 163.313 126.242 163.693 126.622L161.721 126.49C160.962 126.14 160.188 125.424 159.399 124.343C158.698 123.321 157.442 122.576 155.631 122.109L152.214 121.495C151.484 121.349 150.68 120.648 149.804 119.392C148.84 118.02 148.461 116.749 148.665 115.581C148.811 114.675 149.264 113.463 150.023 111.944C150.666 110.571 150.987 109.695 150.987 109.315C150.958 108.936 150.637 108.176 150.023 107.037C149.41 105.956 149.103 105.197 149.103 104.759C149.103 104.35 149.41 103.4 150.023 101.911C150.637 100.48 150.914 99.6033 150.856 99.282L150.286 97.6171C149.965 96.7993 149.804 96.1567 149.804 95.6894C149.804 95.222 150.038 94.5794 150.505 93.7616L151.25 92.2281C151.308 91.4395 151.177 90.4026 150.856 89.1174C150.388 87.1312 150.899 85.4224 152.389 83.9912L152.433 85.0427C152.462 85.8314 152.564 86.3863 152.74 86.7076Z" fill="#EFE908"/>
<path d="M166.366 88.3287C167.242 89.0005 167.709 89.8622 167.768 90.9137C167.855 92.6954 167.695 94.667 167.286 96.8285L168.775 95.5579C169.856 94.7401 170.528 94.4188 170.791 94.594C171.229 94.9153 171.039 97.5587 170.221 102.524L171.01 101.911C171.565 101.531 171.901 101.429 172.018 101.604C172.193 101.867 172.091 104.131 171.711 108.395L175.26 102.568L175.216 104.321C175.187 105.577 175.201 106.336 175.26 106.599L175.347 108.483L174.953 110.805C174.281 112.674 174.048 113.857 174.252 114.354C174.369 114.675 174.34 115.113 174.164 115.668C173.96 116.311 173.639 116.822 173.201 117.202L171.229 118.867C170.382 119.655 169.9 120.298 169.783 120.794L169.082 122.24L167.33 123.642L163.649 126.578C163.299 126.169 163.123 125.38 163.123 124.212C163.153 122.839 163.474 121.539 164.087 120.312C164.672 119.115 164.832 118.063 164.569 117.158C164.365 116.457 163.766 115.522 162.773 114.354C162.335 113.857 162.276 112.733 162.598 110.98V109.622L162.51 108.746L158.611 111.112C158.552 110.644 158.538 110.119 158.567 109.534C158.596 108.366 158.771 107.519 159.093 106.993L160.758 104.189L158.348 102.699C158.289 101.356 158.1 100.407 157.778 99.8516L156.946 98.362L156.99 95.9522L154.186 93.1482C155.354 91.308 155.967 90.0959 156.026 89.5117L155.894 86.9267C155.836 85.5247 156.099 84.4001 156.683 83.5531C157.238 82.7352 158.289 81.5377 159.837 79.9604L162.247 77.463C162.539 77.0249 162.846 76.1194 163.167 74.7466C163.518 73.1985 163.649 71.9864 163.562 71.1101L164.657 73.5198C165.387 75.3892 165.665 76.9957 165.489 78.3393L164.394 83.2026C163.956 84.9843 163.927 86.1381 164.306 86.6638L166.366 88.3287Z" fill="#E50020"/>
<path d="M32.3848 165.352L32.7791 166.754L30.9389 168.594L27.0833 168.814L24.2793 168.594C24.659 168.127 26.1195 167.441 28.6606 166.535C29.9458 166.097 31.1872 165.703 32.3848 165.352Z" fill="#DBDCDC"/>
<path d="M29.9316 171.223C33.1738 168.887 35.861 167.441 37.9933 166.886L38.3876 168.332L36.8103 170.435L29.9316 171.223Z" fill="#DBDCDC"/>
<path d="M35.8457 172.669C36.7804 172.027 37.8173 171.355 38.9564 170.654C41.2055 169.252 42.7974 168.419 43.7321 168.156L44.2579 169.12C44.5499 169.851 44.5499 170.391 44.2579 170.741C43.7905 171.355 42.3739 171.837 40.008 172.187L35.8457 172.669Z" fill="#DBDCDC"/>
<path d="M153.967 93.1918L154.449 92.447C154.799 93.2065 155.676 94.1849 157.078 95.3825C157.428 95.6746 157.559 96.2734 157.472 97.1789C157.384 98.0843 157.443 98.6247 157.647 98.7999C158.114 99.2089 158.407 99.6616 158.523 100.158L158.611 101.735C158.611 102.436 159.166 102.962 160.276 103.313C161.707 103.751 161.766 104.729 160.451 106.248C159.925 106.803 159.546 107.504 159.312 108.351C159.137 109.052 159.093 109.666 159.181 110.191L161.678 108.702C162.408 108.118 162.817 107.84 162.905 107.869C163.051 107.899 163.153 108.38 163.211 109.315L162.949 112.032C162.832 113.054 163.022 113.813 163.518 114.31C164.482 115.274 165.052 116.208 165.227 117.114C165.49 118.253 165.183 119.582 164.307 121.101C164.044 121.597 163.869 122.24 163.781 123.029C163.664 124.022 163.708 125.03 163.912 126.052C163.971 126.432 163.825 126.709 163.474 126.884C163.095 127.06 162.905 127.03 162.905 126.797L162.467 124.212C162.35 123.219 162.598 122.05 163.211 120.707C163.737 119.538 163.971 118.574 163.912 117.815C163.825 116.909 163.387 116.062 162.598 115.274C161.868 114.544 161.59 113.726 161.766 112.82C162.028 111.477 162.072 110.483 161.897 109.841L160.013 111.068C159.137 111.593 158.582 111.783 158.348 111.637C158.173 111.491 158.085 110.878 158.085 109.797C158.027 107.957 158.48 106.482 159.443 105.372C159.765 105.021 159.867 104.729 159.75 104.496C159.633 104.262 159.195 103.926 158.436 103.488C158.085 103.284 157.866 103.05 157.779 102.787L157.691 101.779C157.691 100.932 157.34 100.129 156.639 99.3695C156.318 99.0482 156.201 98.4933 156.289 97.7046L156.201 95.9959L155.106 94.6815L153.967 93.1918Z" fill="#EFE908"/>
<path d="M71.3334 32.4667C72.0052 32.5835 72.5163 33.2115 72.8668 34.3506C73.1881 35.519 73.2465 36.921 73.0421 38.5567C72.7792 40.5137 72.2388 42.0034 71.421 43.0257C70.7492 43.8435 70.1066 44.194 69.4932 44.0772C68.7922 43.9019 68.2664 43.1279 67.9159 41.7551C67.6238 40.4699 67.58 39.1117 67.7845 37.6804C68.0766 35.9279 68.5877 34.5697 69.318 33.6058C69.9605 32.7295 70.6324 32.3498 71.3334 32.4667Z" fill="white"/>
<path d="M39.5705 26.289C39.8041 26.3182 39.9502 26.917 40.0086 28.0853C40.0378 29.2245 39.9502 30.3052 39.7457 31.3275C39.366 33.08 38.9133 34.409 38.3875 35.3145C37.9202 36.1032 37.482 36.4537 37.0731 36.366C36.7226 36.2784 36.5035 35.8257 36.4159 35.0078C36.2991 33.9855 36.4743 32.6127 36.9417 30.8894C37.3506 29.3997 37.8179 28.2314 38.3437 27.3843C38.811 26.6249 39.22 26.2598 39.5705 26.289Z" fill="white"/>
<path d="M64.0622 43.2885C64.7048 42.1786 65.4058 41.5798 66.1653 41.4922C65.9024 43.5952 65.9608 45.3039 66.3405 46.6183C66.7495 47.9327 67.4651 48.663 68.4874 48.809C69.276 48.9258 70.0793 48.5753 70.8971 47.7575C71.861 46.8228 72.5474 45.45 72.9563 43.639C73.8034 44.7198 74.2561 46.1364 74.3145 47.8889L73.3507 50.9997C72.0947 51.7007 70.3567 52.095 68.1369 52.1826L65.1576 52.0512C64.4566 50.5907 64.0622 48.6922 63.9746 46.3555L64.0622 43.2885Z" fill="#007F78"/>
<path d="M38.3867 36.2347C38.708 36.8189 38.8687 37.4031 38.8687 37.9872L37.9048 40.9227C37.1162 42.8505 36.3421 43.829 35.5827 43.8582C34.7941 43.8874 34.1369 43.1864 33.6111 41.7552L32.8663 38.8635C32.7786 38.4546 32.8809 37.6221 33.173 36.3662L33.6111 34.6136L34.1369 34.0879L35.276 33.4307C34.7502 35.0664 34.5458 36.5122 34.6626 37.7682C34.7795 38.8781 35.1154 39.5207 35.6703 39.696C36.1377 39.8712 36.6342 39.6521 37.16 39.0388C37.7441 38.367 38.1531 37.4323 38.3867 36.2347Z" fill="#007F78"/>
<path d="M62.9669 11.9183C73.2776 12.9406 80.3024 18.943 84.0411 29.9256C85.5892 34.5114 86.3048 39.433 86.188 44.6906C86.1003 49.8022 85.2533 54.461 83.6468 58.6671C82.3324 62.1137 81.5291 64.3044 81.237 65.2391C80.39 67.7802 79.908 69.8687 79.7912 71.5044C79.5867 74.6589 79.2362 76.207 78.7397 76.1486C78.2724 76.0902 78.1701 74.4983 78.433 71.3729C78.6959 67.6926 79.8788 63.3259 81.9819 58.2728C83.5299 54.534 84.3624 50.2257 84.4792 45.3478C84.5961 40.3531 83.9243 35.6213 82.4638 31.1523C78.9588 20.3158 72.416 14.4157 62.8355 13.4518C58.571 13.0428 54.2189 13.6562 49.7791 15.2919C45.3102 16.9568 41.7759 19.2643 39.1763 22.2144C38.5045 22.9739 38.0664 23.6749 37.8619 24.3175C37.6282 25.0477 37.672 25.8363 37.9933 26.6834C38.0518 26.8586 37.9057 27.0193 37.5552 27.1653L36.9418 27.1215C36.1824 24.9601 36.6059 22.9885 38.2124 21.2067C41.0165 18.0522 44.7114 15.6132 49.2972 13.8899C53.9122 12.1374 58.4687 11.4802 62.9669 11.9183Z" fill="#0D131A"/>
<path d="M72.9119 50.3864C74.1679 47.1734 74.5768 43.4055 74.1387 39.0826C73.7006 34.6136 72.576 32.2769 70.7651 32.0724C68.7789 31.8388 66.8511 33.5913 64.9817 37.33C62.9663 41.3901 62.2361 45.9174 62.7911 50.9122C63.1124 51.4379 64.7773 51.6278 67.7858 51.4817C70.8235 51.3357 72.5322 50.9706 72.9119 50.3864ZM61.6081 51.2627C60.8195 46.6185 61.4328 41.9888 63.4483 37.3738C65.5221 32.6712 68.0048 30.466 70.8965 30.758C73.9634 31.0501 75.4969 34.2193 75.4969 40.2655C75.4969 45.4063 74.9127 49.0136 73.7444 51.0874C73.2478 51.9929 71.1448 52.504 67.4353 52.6209C63.7257 52.7377 61.7834 52.285 61.6081 51.2627Z" fill="#0D131A"/>
<path d="M39.3072 26.0262C38.4309 26.0262 37.2333 27.6765 35.7145 30.9771C34.1956 34.3069 33.4362 36.9357 33.4362 38.8635V38.9073C33.4362 39.9588 33.7137 40.9811 34.2686 41.9742C34.7652 42.9089 35.1741 43.3324 35.4954 43.2448C36.693 42.9235 37.9051 39.9734 39.1319 34.3945C40.3587 28.8156 40.4171 26.0262 39.3072 26.0262ZM34.9258 30.1446C36.6784 26.3475 38.1972 24.5365 39.4824 24.7118C41.4102 24.9455 41.6877 28.2315 40.3149 34.5698C38.9713 40.8789 37.394 44.1941 35.583 44.5154C34.9404 44.6322 34.254 43.9896 33.5238 42.5876C32.8228 41.244 32.4577 39.988 32.4285 38.8197C32.3993 36.6582 33.2317 33.7665 34.9258 30.1446Z" fill="#0D131A"/>
<path d="M35.32 50.2549C35.0571 49.5831 35.0864 49.1303 35.4076 48.8966C35.7289 48.6922 36.0356 48.9405 36.3277 49.6415L36.5468 50.9559C36.576 51.4816 36.5176 51.7883 36.3715 51.8759C36.1379 52.022 35.7874 51.4816 35.32 50.2549Z" fill="#0D131A"/>
<path d="M46.7561 52.5769C47.4863 52.2556 47.8952 52.3141 47.9829 52.7522C48.0705 53.1611 47.7492 53.5554 47.019 53.9352C45.9967 54.4317 45.4125 54.607 45.2664 54.4609C45.1788 54.3441 45.2957 54.052 45.617 53.5847C45.9675 53.1173 46.3472 52.7814 46.7561 52.5769Z" fill="#0D131A"/>
<path d="M32.7782 37.5491C32.9243 37.4323 33.0411 37.5929 33.1287 38.031C33.2164 38.4692 33.1872 38.7467 33.0411 38.8635C29.6237 41.9888 27.7397 44.9389 27.3892 47.7138C26.9219 51.1896 28.7328 56.1551 32.822 62.6103C36.8821 69.0362 40.4894 72.702 43.6439 73.6074C45.0459 73.9871 47.1636 73.9871 49.9968 73.6074C52.8009 73.1985 55.6926 72.4975 58.6719 71.5044C60.6873 70.8326 61.7388 70.6865 61.8264 71.0663C61.9433 71.4168 60.9794 71.9717 58.9348 72.7312C55.897 73.8703 52.7863 74.6443 49.6025 75.0533C46.7693 75.3746 44.6662 75.3454 43.2934 74.9656C39.9636 74.031 36.1372 70.2484 31.8143 63.618C27.3454 56.8123 25.3592 51.3795 25.8557 47.3195C26.0894 45.713 26.8342 44.0335 28.0902 42.2809C29.317 40.4992 30.8797 38.9219 32.7782 37.5491Z" fill="#0D131A"/>
<path d="M67.6099 29.356C66.646 30.0862 65.9595 30.6704 65.5506 31.1085C65.0541 31.6635 64.6159 32.3499 64.2362 33.1678C63.8273 34.1317 63.4184 34.5698 63.0095 34.4822C62.6005 34.3653 62.5859 33.7958 62.9656 32.7734C63.6374 31.0501 64.8642 29.7065 66.646 28.7426C67.5222 28.3045 68.0626 28.173 68.2671 28.3483C68.4423 28.5528 68.2232 28.8887 67.6099 29.356Z" fill="#0D131A"/>
<path d="M41.0148 23.7917C40.7519 23.1784 40.7227 22.8133 40.9271 22.6964C41.1316 22.5796 41.4237 22.784 41.8034 23.3098C42.7965 24.5658 43.2054 26.2453 43.0302 28.3483C42.9426 29.3414 42.6797 29.8088 42.2415 29.7504C41.8034 29.7211 41.6282 29.2246 41.7158 28.2607C41.8326 26.5958 41.599 25.1061 41.0148 23.7917Z" fill="#0D131A"/>
<path d="M27.6958 47.4947C27.9002 46.3848 28.1047 45.8298 28.3092 45.8298C28.5428 45.859 28.6451 46.4432 28.6159 47.5824C28.6159 48.517 28.8787 49.2911 29.4045 49.9045C30.3392 50.956 31.8726 52.285 34.0049 53.8915C36.1079 55.4688 37.5976 56.418 38.4738 56.7393C39.8759 57.2359 44.1404 57.7617 51.2673 58.3166L64.5427 58.93C65.3022 58.9008 65.901 58.7694 66.3391 58.5357L67.7411 57.3089C68.4129 56.6079 68.8218 56.3596 68.9679 56.5641C69.1431 56.7393 68.9825 57.2359 68.4859 58.0537C68.077 58.7255 67.5951 59.2221 67.0401 59.5434C66.4559 59.8647 65.7111 60.0399 64.8056 60.0691L51.7931 59.4558C44.3156 58.93 39.7298 58.3604 38.0357 57.747C37.0718 57.4258 35.4069 56.3742 33.041 54.5925C30.6751 52.8107 29.127 51.4525 28.3968 50.5179C28.1339 50.1674 27.9294 49.7 27.7834 49.1158C27.6374 48.5024 27.6081 47.9621 27.6958 47.4947Z" fill="#0D131A"/>
<path d="M32.0784 54.7676L32.7794 54.8114C33.9185 57.9659 35.6418 61.0329 37.9493 64.0122C40.0816 66.7578 41.7903 68.3059 43.0755 68.6564C45.7043 69.3574 49.3846 68.7586 54.1164 66.86C59.0235 64.8738 62.8207 62.3181 65.5079 59.1927L66.3403 59.1489C66.7493 59.2365 66.8953 59.3388 66.7785 59.4556C64.0913 62.873 60.0896 65.7063 54.7736 67.9554C49.6329 70.1168 45.6167 70.8032 42.725 70.0146C41.2061 69.6057 39.2929 67.9116 36.9854 64.9323C34.5611 61.8361 32.7356 58.6085 31.5088 55.2495C31.4796 55.0743 31.6694 54.9136 32.0784 54.7676Z" fill="#0D131A"/>
<path d="M29.1426 51.2189C29.1426 51.0437 29.347 50.9561 29.756 50.9561C30.1357 50.9561 30.3255 51.0437 30.3255 51.2189C30.3255 51.5694 30.4278 52.2412 30.6322 53.2343C30.8367 54.3151 31.0119 54.87 31.158 54.8992C31.3332 54.9285 31.6107 54.797 31.9904 54.5049L32.7353 53.7163L33.5677 54.5487L32.1219 55.5564L30.8951 55.9508C30.5738 55.8339 30.1941 55.1621 29.756 53.9354C29.347 52.767 29.1426 51.8615 29.1426 51.2189Z" fill="#0D131A"/>
<path d="M56.7449 59.0614C57.0662 59.2659 57.1831 59.4411 57.0954 59.5872L55.2991 61.4712C54.4228 62.143 53.7802 62.4789 53.3713 62.4789C53.0208 62.4789 52.5535 62.0699 51.9693 61.2521C51.3559 60.4342 50.9616 59.704 50.7863 59.0614C50.7571 58.8862 50.9324 58.7547 51.3121 58.6671C51.721 58.5795 51.9401 58.6233 51.9693 58.7985L52.6703 60.5073C53.0208 61.1499 53.2691 61.4712 53.4151 61.4712C53.6488 61.5004 54.1015 61.2083 54.7733 60.5949L56.1316 58.9738L56.7449 59.0614Z" fill="#0D131A"/>
<path d="M35.1015 61.2521C34.9555 60.9892 34.9701 60.8285 35.1453 60.7701L36.5036 60.5072C37.1754 60.478 37.5989 60.551 37.7741 60.7263C37.9494 60.9016 37.964 61.3981 37.818 62.216C37.7011 63.0046 37.5405 63.5596 37.336 63.8809C37.19 64.0853 36.9125 63.9247 36.5036 63.3989L37.0731 61.9969L37.1608 61.2521C37.0147 61.106 36.4889 61.2082 35.5835 61.5588C35.4082 61.6172 35.2476 61.5149 35.1015 61.2521Z" fill="#0D131A"/>
<path d="M51.443 65.4144C51.6767 65.3559 52.0272 65.5458 52.4946 65.9839L53.809 67.4298C53.9258 67.5758 53.8528 67.7365 53.5899 67.9117C53.3562 68.0578 53.181 68.0578 53.0641 67.9117C52.3631 66.8018 51.8812 66.276 51.6183 66.3344C51.4723 66.3636 51.3262 66.6703 51.1802 67.2545L51.0049 68.6565C51.0049 68.8318 50.8443 68.9194 50.523 68.9194C50.2017 68.9194 50.041 68.8172 50.041 68.6127C50.041 68.1454 50.1871 67.532 50.4791 66.7726C50.8297 65.9255 51.151 65.4728 51.443 65.4144Z" fill="#0D131A"/>
<path d="M44.652 74.4399C44.7981 74.3523 44.9733 74.5422 45.1778 75.0095L45.3092 75.7982C41.775 78.3393 38.8541 81.085 36.5466 84.0351C34.3267 86.8683 31.508 91.3811 28.0906 97.5734C26.5133 99.3259 25.4618 100.962 24.9361 102.48C24.4979 103.678 24.4833 104.423 24.8922 104.715C25.4472 105.153 26.893 104.992 29.2298 104.233L29.8431 104.189L29.9308 105.022C29.9308 107.095 30.2375 108.22 30.8508 108.395C31.289 108.512 32.063 108.03 33.173 106.949C34.3121 105.898 35.3052 104.715 36.1523 103.401C36.3275 103.517 36.4443 103.722 36.5028 104.014L36.4151 104.803C35.9186 105.796 35.0277 106.891 33.7425 108.089C32.2821 109.432 31.216 109.987 30.5442 109.753C29.3758 109.432 28.8062 108.001 28.8354 105.46C27.6671 105.927 26.5571 106.175 25.5056 106.205C24.5125 106.234 23.8553 106.073 23.534 105.723C23.0667 105.226 23.0375 104.277 23.4464 102.875C23.9722 101.064 25.1843 99.063 27.0829 96.8723C30.3251 90.6509 33.3482 85.8314 36.1523 82.414C38.489 79.5223 41.3222 76.8643 44.652 74.4399Z" fill="#0D131A"/>
<path d="M28.4413 99.6762C27.5066 101.049 27.1853 101.896 27.4774 102.217C27.7695 102.48 28.6896 102.349 30.2377 101.823C31.1139 101.443 31.6105 101.385 31.7273 101.648C31.8149 101.94 31.4352 102.276 30.5882 102.656C28.4851 103.619 27.0393 103.882 26.2507 103.444C25.3452 102.918 25.8125 101.458 27.6527 99.0628C28.2661 98.2742 28.6896 97.9675 28.9233 98.1428C29.1861 98.2888 29.0255 98.8 28.4413 99.6762Z" fill="#0D131A"/>
<path d="M44.8278 74.5276L45.5289 74.6152C45.9086 74.8489 46.0546 75.0387 45.967 75.1848C38.1098 93.0606 34.9991 108.804 36.6348 122.416C38.767 140.437 49.5597 150.66 69.0128 153.085C69.188 153.114 69.3341 153.348 69.4509 153.786C69.5969 154.253 69.5677 154.472 69.3633 154.443C48.625 152.106 37.1459 141.62 34.926 122.985C33.2903 109.082 36.5909 92.9292 44.8278 74.5276Z" fill="#0D131A"/>
<path d="M41.102 83.9037C42.212 81.5085 43.5702 79.6246 45.1767 78.2517C46.7539 76.9081 48.3604 76.2363 49.9961 76.2363C52.1868 76.2363 54.6549 78.2079 57.4006 82.1511C60.0001 85.8606 62.4391 90.6947 64.7174 96.6533C70.0042 110.528 71.932 122.357 70.5007 132.142L69.7559 133.369L69.0987 134.026C70.5884 123.365 68.6022 111.082 63.1401 97.1791C60.9494 91.571 58.6127 86.9268 56.13 83.2465C53.618 79.5369 51.5734 77.6822 49.9961 77.6822C48.857 77.6822 47.528 78.2956 46.0091 79.5223C44.169 81.012 42.6647 83.0274 41.4963 85.5686C41.4087 85.7438 41.3065 85.554 41.1896 84.999C41.0436 84.4148 41.0144 84.0497 41.102 83.9037Z" fill="#0D131A"/>
<path d="M78.7822 71.0225C78.753 70.818 78.9429 70.1024 79.3518 68.8756C79.7899 67.6781 80.0236 67.1669 80.0528 67.3422C81.8345 80.0772 83.5287 89.5555 85.1351 95.777C87.2674 104.218 90.1737 111.404 93.854 117.333C99.8418 126.972 102.076 135.939 100.557 144.234C100.236 145.929 99.3306 149.142 97.841 153.873C96.6142 157.7 95.957 160.854 95.8694 163.337C95.7818 165.674 95.5043 166.784 95.0369 166.667C94.5988 166.55 94.4382 165.294 94.555 162.899C94.7302 160.153 95.3874 156.838 96.5266 152.953C97.8702 148.455 98.6734 145.359 98.9363 143.665C100.105 136.041 97.7534 127.293 91.8824 117.421C88.2313 111.287 85.4856 104.423 83.6455 96.8285C83.2074 95.076 81.5863 86.474 78.7822 71.0225Z" fill="#0D131A"/>
<path d="M75.3642 162.154C75.89 162.417 76.1821 162.636 76.2405 162.811C77.0291 164.827 77.3942 167.777 77.3358 171.662C77.3066 175.283 77.4965 177.401 77.9054 178.014C78.6064 179.066 79.9792 179.898 82.0239 180.512C84.0685 181.125 86.2153 181.359 88.4644 181.213C94.2185 180.862 97.5776 178.511 98.5415 174.159C98.7751 173.078 98.2348 170.99 96.9204 167.894C95.5183 164.564 94.8027 162.738 94.7735 162.417C94.7443 162.242 94.8757 161.891 95.1678 161.365C95.4307 160.84 95.5768 160.679 95.606 160.883C95.6936 161.906 96.526 164.111 98.1033 167.499C99.5053 170.566 100.104 172.845 99.8997 174.334C99.2279 179.124 95.5914 181.782 88.9902 182.308C86.3614 182.513 83.8494 182.279 81.4543 181.607C79.0592 180.935 77.4381 180.001 76.591 178.803C75.9192 177.81 75.7001 175.298 75.9338 171.267C76.1675 167.09 75.7585 164.009 74.707 162.023L75.3642 162.154Z" fill="#0D131A"/>
<path d="M70.1509 130.696C71.2316 128.739 71.9326 127.863 72.2539 128.067C72.546 128.301 72.1955 129.44 71.2024 131.485C68.4567 137.181 67.5221 142.701 68.3983 148.046C69.2746 153.421 71.9618 158.225 76.46 162.461C78.0664 163.98 78.7383 164.9 78.4754 165.221C78.2417 165.542 77.307 164.973 75.6713 163.512C70.7058 159.131 67.6973 154.224 66.6458 148.791C65.5359 143.008 66.7042 136.976 70.1509 130.696Z" fill="#0D131A"/>
<path d="M38.8255 134.376C38.9716 134.289 39.1906 134.479 39.4827 134.946C39.7456 135.384 39.804 135.662 39.658 135.778C37.5257 137.297 35.5833 139.59 33.8308 142.657C31.9614 145.87 31.1144 148.66 31.2896 151.026C31.4357 152.866 32.2535 154.706 33.7432 156.546C35.1744 158.357 36.9416 159.759 39.0446 160.752C40.8555 161.628 41.6734 162.212 41.4981 162.505C41.3521 162.826 40.286 162.578 38.2998 161.76C35.9338 160.767 33.9476 159.277 32.3412 157.291C30.7055 155.305 29.8146 153.245 29.6685 151.113C29.4349 148.105 30.4134 144.833 32.604 141.299C34.4442 138.32 36.518 136.012 38.8255 134.376Z" fill="#0D131A"/>
<path d="M57.7958 157.992C57.679 157.846 57.8104 157.641 58.1901 157.378C58.5406 157.116 58.7743 157.057 58.8911 157.203C59.8842 158.605 60.5852 159.993 60.9942 161.365C61.4031 162.797 61.4323 163.965 61.0818 164.871C60.7313 165.864 58.8473 167.032 55.4299 168.376C51.7788 169.836 48.1423 170.742 44.5204 171.092C44.3159 171.121 44.1991 170.917 44.1699 170.479C44.1114 170.041 44.1845 169.807 44.3889 169.778C47.9232 169.427 51.2968 168.595 54.5098 167.28C57.4015 166.083 59.1102 164.987 59.6359 163.994C59.8988 163.469 59.8696 162.651 59.5483 161.541C59.1978 160.343 58.6136 159.16 57.7958 157.992Z" fill="#0D131A"/>
<path d="M35.6262 159.35C35.8015 159.292 36.0351 159.467 36.3272 159.876C36.6193 160.285 36.6777 160.504 36.5025 160.533C35.7138 160.825 34.7207 161.292 33.5232 161.935C32.3256 162.607 31.4055 163.191 30.7629 163.688L29.9305 163.556C29.5216 163.352 29.3901 163.191 29.5362 163.074C30.2956 162.461 31.2595 161.774 32.4278 161.015C33.7422 160.197 34.8084 159.642 35.6262 159.35Z" fill="#0D131A"/>
<path d="M57.9275 159.744C57.3141 161.146 56.8614 161.789 56.5693 161.672C56.2772 161.555 56.3356 160.767 56.7445 159.306C57.2119 157.729 58.0589 156.239 59.2857 154.837C60.4541 153.406 61.5494 152.574 62.5717 152.34C62.7469 152.311 63.0682 152.457 63.5356 152.778C64.0029 153.099 64.149 153.275 63.9737 153.304C63.2143 153.479 62.2066 154.195 60.9506 155.451C59.5778 156.853 58.5701 158.284 57.9275 159.744Z" fill="#0D131A"/>
<path d="M32.5599 164.038C32.998 164.768 33.2901 165.601 33.4361 166.535C33.4653 166.711 33.2901 166.827 32.9104 166.886C32.5307 166.915 32.3116 166.842 32.2532 166.667L31.596 164.914C31.2163 164.33 30.9096 164.038 30.6759 164.038C29.7996 164.009 28.6167 164.564 27.127 165.703C25.6666 166.784 24.9948 167.514 25.1116 167.894C25.2284 168.186 25.9733 168.317 27.3461 168.288L31.0264 167.894C31.2017 167.864 31.3331 168.04 31.4207 168.419C31.5084 168.799 31.4645 169.003 31.2893 169.033L25.4183 169.339C24.1039 169.193 23.4175 168.945 23.3591 168.595C23.2422 167.835 24.2061 166.652 26.2508 165.046C28.2662 163.439 29.785 162.651 30.8073 162.68C31.4499 162.709 32.0341 163.162 32.5599 164.038Z" fill="#0D131A"/>
<path d="M37.8621 168.507C37.8328 167.748 37.643 167.047 37.2925 166.404C36.8836 165.732 36.46 165.425 36.0219 165.484C35.2333 165.601 34.0649 166.389 32.5168 167.85C30.998 169.252 30.297 170.113 30.4138 170.435C30.5014 170.698 31.3777 170.698 33.0426 170.435L36.942 169.602C37.1172 169.544 37.2049 169.705 37.2049 170.084C37.2049 170.493 37.1172 170.712 36.942 170.741C35.5107 171.209 33.875 171.515 32.0349 171.662C30.1363 171.808 29.0848 171.676 28.8803 171.267C28.5882 170.654 29.3623 169.383 31.2024 167.455C33.0426 165.469 34.5907 164.388 35.8466 164.213C36.6353 164.096 37.3363 164.476 37.9497 165.352C38.5923 166.229 38.9282 167.28 38.9574 168.507C38.9574 168.682 38.7821 168.77 38.4316 168.77C38.0519 168.77 37.8621 168.682 37.8621 168.507Z" fill="#0D131A"/>
<path d="M34.8373 172.932C34.516 172.406 35.2754 171.092 37.1156 168.989C38.9849 166.857 40.4746 165.747 41.5845 165.659C42.4024 165.571 43.2494 166.185 44.1257 167.499C45.0019 168.755 45.3232 169.807 45.0896 170.654C44.8851 171.442 43.1618 172.114 39.9196 172.669L34.8373 172.932ZM36.3269 172.012L39.9196 171.618C42.2563 171.121 43.4977 170.654 43.6437 170.216C43.819 169.719 43.6729 169.047 43.2056 168.2C42.7383 167.353 42.2417 166.944 41.7159 166.973C40.9857 167.032 39.8612 167.835 38.3423 169.383C36.8819 170.844 36.2101 171.72 36.3269 172.012Z" fill="#0D131A"/>
<path d="M158.522 124.08C158.581 123.905 158.814 123.905 159.223 124.08C159.632 124.256 159.807 124.431 159.749 124.606C156.536 132.23 152.155 138.247 146.605 142.657C141.61 146.6 136.002 148.996 129.781 149.843C124.026 150.631 118.418 150.018 112.956 148.002C107.553 146.016 103.128 142.979 99.6809 138.889C99.5641 138.743 99.6079 138.334 99.8124 137.663C100.046 136.991 100.221 136.728 100.338 136.874C104.077 141.314 108.663 144.527 114.095 146.513C119.441 148.499 124.917 149.039 130.525 148.134C136.367 147.17 141.654 144.76 146.386 140.905C151.556 136.699 155.601 131.091 158.522 124.08Z" fill="#0D131A"/>
<path d="M162.379 126.84C162.408 126.665 162.642 126.607 163.08 126.665C163.518 126.724 163.722 126.84 163.693 127.016C162.466 137.151 158.874 145.578 152.915 152.296C147.716 158.138 141.129 162.285 133.155 164.739C125.999 166.9 118.828 167.426 111.643 166.316C104.662 165.236 99.3168 162.855 95.6072 159.175C95.4904 159.058 95.5488 158.707 95.7825 158.123C96.0162 157.539 96.1914 157.305 96.3083 157.422C99.7841 160.898 104.896 163.22 111.643 164.388C118.624 165.615 125.576 165.265 132.498 163.337C140.268 161.175 146.694 157.291 151.776 151.683C157.618 145.227 161.152 136.947 162.379 126.84Z" fill="#0D131A"/>
<path d="M161.416 134.727L161.284 136.917C158.48 144.541 153.997 150.631 147.834 155.188C142.43 159.218 136.15 161.789 128.994 162.899C122.48 163.921 116.215 163.614 110.198 161.979C104.269 160.401 99.8288 157.875 96.8787 154.399C96.7619 154.253 96.8203 153.946 97.054 153.479C97.2877 153.041 97.4629 152.895 97.5797 153.041C100.501 156.458 104.911 158.97 110.811 160.577C116.828 162.183 123.079 162.461 129.563 161.409C136.69 160.27 142.926 157.641 148.272 153.523C154.347 148.82 158.728 142.555 161.416 134.727Z" fill="#0D131A"/>
<path d="M170.395 96.8284V95.4702C170.307 95.2949 170.001 95.4118 169.475 95.8207C168.044 97.0182 167.226 97.5294 167.021 97.3541C166.846 97.2081 166.846 96.288 167.021 94.5939C167.372 90.972 166.613 88.7229 164.743 87.8467C163.955 87.4962 163.531 86.9558 163.473 86.2256C163.414 85.6706 163.589 84.4438 163.998 82.5453C164.466 80.2962 164.699 78.6021 164.699 77.4629C164.699 76.2654 164.466 74.7465 163.998 72.9063C163.765 74.5128 163.487 75.7396 163.166 76.5866C162.845 77.4337 162.406 78.0909 161.851 78.5582C159.69 80.4276 158.2 82.0195 157.383 83.3339C156.681 84.473 156.375 85.656 156.462 86.8828C156.579 88.0511 156.565 88.942 156.419 89.5554L155.63 91.2641L154.885 92.4471C154.651 92.8852 154.491 93.4402 154.403 94.112C154.257 95.1051 154.097 95.6162 153.921 95.6454C153.775 95.6746 153.425 95.2657 152.87 94.4187C152.286 93.5716 152.213 92.2426 152.651 90.4316C152.884 89.5554 152.811 88.6061 152.432 87.5838C152.052 86.5907 151.964 85.7874 152.169 85.174C151.76 85.5538 151.453 86.2402 151.249 87.2333C151.044 88.314 151.117 89.2487 151.468 90.0373C151.789 90.7383 151.847 91.6146 151.643 92.6661L151.117 94.2434C150.737 94.9736 150.548 95.6308 150.548 96.215L150.898 97.7923C151.249 98.9022 151.322 99.7493 151.117 100.333C150.27 102.349 149.847 103.751 149.847 104.54C149.847 105.182 150.153 105.971 150.767 106.905C151.38 107.811 151.658 108.643 151.599 109.403L150.854 111.725L149.978 113.434C149.715 114.076 149.569 114.763 149.54 115.493C149.482 116.69 149.817 117.859 150.548 118.998C151.278 120.225 152.169 120.955 153.22 121.189L157.339 122.372C158.478 122.839 159.456 123.54 160.274 124.475C161.15 125.409 161.91 125.92 162.552 126.008C163.253 126.125 164.013 125.76 164.831 124.913C165.619 124.066 166.481 123.408 167.416 122.941C168.117 122.62 168.686 121.89 169.124 120.75C169.563 119.582 170.001 118.881 170.439 118.647C171.578 118.005 172.396 117.406 172.892 116.851C173.593 116.062 173.886 115.142 173.769 114.091C173.681 113.448 173.827 112.455 174.207 111.112C174.587 109.768 174.747 108.775 174.689 108.132V105.679C174.776 104.744 174.908 103.999 175.083 103.444L174.032 105.503L172.673 107.957C172.002 109.271 171.534 109.914 171.271 109.885C171.008 109.885 170.935 109.213 171.052 107.869L171.403 105.153L171.622 102.524C170.746 103.225 170.176 103.517 169.913 103.4C169.679 103.284 169.606 102.772 169.694 101.867L170.395 96.8284ZM165.707 75.6666L165.926 78.5144C165.897 79.3031 165.532 81.0118 164.831 83.6406C164.363 85.3055 164.509 86.3132 165.269 86.6637C166.846 87.3647 167.81 88.4893 168.161 90.0373C168.511 91.3809 168.423 93.2941 167.898 95.7769C169.767 93.9075 170.892 93.3525 171.271 94.112C171.709 94.9006 171.52 97.4564 170.702 101.779C171.607 101.02 172.177 100.859 172.41 101.297C172.732 101.852 172.673 103.459 172.235 106.117L173.593 104.189L174.47 102.48C174.937 101.283 175.258 100.669 175.434 100.64C175.667 100.64 175.799 101.327 175.828 102.699L175.653 105.153C175.594 106.263 175.667 107.168 175.872 107.869C176.135 108.687 175.989 109.812 175.434 111.243C174.849 112.703 174.66 113.755 174.864 114.398C175.244 115.712 174.791 116.866 173.506 117.859C171.724 119.202 170.687 120.195 170.395 120.838L169.606 122.591C169.168 123.321 168.672 123.803 168.117 124.036C167.007 124.504 166.16 125.059 165.576 125.701C164.174 127.133 163.093 127.804 162.333 127.717C161.691 127.658 160.683 126.87 159.31 125.351C157.645 123.481 155.382 122.372 152.519 122.021C151.351 121.875 150.314 121.145 149.408 119.83C148.561 118.604 148.094 117.333 148.006 116.019C147.919 115.113 148.299 113.857 149.146 112.251C149.993 110.673 150.402 109.68 150.372 109.271C150.343 108.746 150.139 108.264 149.759 107.826L148.883 106.73C148.299 105.62 148.634 103.473 149.89 100.29C150.241 99.4718 150.226 98.6831 149.847 97.9237C149.408 97.0182 149.189 96.288 149.189 95.7331C149.219 95.2365 149.467 94.5355 149.934 93.63L150.548 92.1404C150.664 91.527 150.635 90.8114 150.46 89.9935C150.139 88.5623 150.153 87.3209 150.504 86.2694C150.708 85.7144 151.176 84.882 151.906 83.772C152.344 83.1002 152.621 82.7789 152.738 82.8081C152.884 82.8373 152.972 83.2609 153.001 84.0787L152.957 85.3055C152.987 86.0357 153.162 86.8097 153.483 87.6276C153.834 88.5623 153.804 89.6722 153.396 90.9574C153.133 91.7168 153.176 92.5347 153.527 93.4109L154.929 90.6945C155.309 90.0227 155.484 89.3363 155.455 88.6353L155.279 86.7513C155.279 84.5315 155.893 82.7643 157.12 81.4499C157.85 80.6321 159.252 79.3761 161.326 77.682C162.144 76.6889 162.655 75.0386 162.859 72.7311C163.093 70.6573 163.297 69.6057 163.473 69.5765C163.706 69.5181 164.217 70.5696 165.006 72.7311C165.298 73.5197 165.532 74.4982 165.707 75.6666Z" fill="#0D131A"/>
<path d="M67.0841 32.6859L67.9165 32.5544C68.2962 32.5837 68.4277 32.6713 68.3108 32.8173C66.4123 34.8912 65.2439 38.1918 64.8058 42.7191C64.3968 46.896 64.7181 49.9629 65.7697 51.9199C65.8573 52.0952 65.7259 52.2412 65.3753 52.358L64.7181 52.2704C63.4914 49.9045 63.1263 46.5601 63.6228 42.2372C64.1194 37.8559 65.2731 34.6721 67.0841 32.6859Z" fill="#0D131A"/>
<path d="M41.146 57.4841C41.3505 57.4841 41.6572 57.6302 42.0661 57.9223C42.475 58.2144 42.5919 58.3604 42.4166 58.3604C41.219 58.448 39.9338 58.7839 38.561 59.3681C37.3343 59.9231 36.2681 60.5657 35.3627 61.2959C35.2458 61.4127 35.0852 61.3251 34.8807 61.033C34.6763 60.7409 34.6324 60.5365 34.7493 60.4196C36.9107 58.6379 39.043 57.6594 41.146 57.4841Z" fill="#0D131A"/>
<path d="M77.6876 178.935C77.8629 178.321 78.2426 177.766 78.8268 177.27C79.5278 176.715 80.2142 176.539 80.886 176.744C81.7915 177.036 82.4779 177.664 82.9452 178.628C83.3541 179.475 83.471 180.205 83.2957 180.819C83.0036 181.812 82.2588 183.068 81.0613 184.587C79.8929 186.018 79.1189 186.748 78.7391 186.777C78.2718 186.806 77.9067 185.74 77.6438 183.579C77.3809 181.447 77.3955 179.899 77.6876 178.935Z" fill="white"/>
<path d="M86.5813 180.512C86.4644 179.665 86.5375 178.92 86.8003 178.277C87.1216 177.489 87.6912 177.007 88.5091 176.832C90.0863 176.54 91.1963 177.138 91.8389 178.628C92.2186 179.533 92.3062 181.111 92.1017 183.36C91.8973 185.58 91.5906 186.777 91.1817 186.952C90.7727 187.128 89.9987 186.558 88.8596 185.244C87.6036 183.783 86.8441 182.206 86.5813 180.512Z" fill="white"/>
<path d="M94.9929 179.592C95.1974 177.693 95.7816 176.291 96.7455 175.386C97.6509 174.539 98.425 174.48 99.0676 175.21C99.6517 175.882 100.192 177.576 100.689 180.293C101.214 182.951 101.317 184.353 100.995 184.499C100.616 184.674 99.5057 184.002 97.6655 182.483C95.8254 180.965 94.9345 180.001 94.9929 179.592Z" fill="white"/>
<path d="M71.1583 75.0095L81.1039 90.4756C79.8188 95.0614 76.9855 99.6472 72.6042 104.233C71.0561 105.839 68.7048 107.899 65.5502 110.411L61.9575 113.565C60.4679 114.792 59.4748 115.318 58.9782 115.142C58.5401 115.026 58.1604 114.135 57.8391 112.47L57.4886 110.016L55.2541 111.418C53.6768 112.265 52.6837 112.484 52.2748 112.076C51.8951 111.696 51.8221 110.79 52.0557 109.359L52.4939 107.344C50.3324 107.344 49.2663 107.008 49.2955 106.336C49.3247 105.869 49.8797 105.182 50.9604 104.277C52.304 103.138 53.2241 102.203 53.7206 101.473C54.9182 95.6602 58.1896 89.5117 63.5348 83.0274C66.1928 79.7852 68.734 77.1126 71.1583 75.0095Z" fill="#EF8200"/>
<path d="M59.1973 115.055C60.8622 111.959 62.1182 109.899 62.9652 108.877L71.2897 101.297C75.7587 97.2958 78.8694 93.7907 80.622 90.7822C80.2715 93.7907 78.3583 97.5003 74.8824 101.911C71.6694 106 68.7924 108.687 66.2512 109.972C62.5125 112.981 60.1612 114.675 59.1973 115.055Z" fill="#CF7100"/>
<path d="M82.2874 177.664C83.3973 179.329 83.3681 181.242 82.1997 183.404C81.2066 185.244 80.1843 186.324 79.1328 186.646L81.3673 181.783C82.0391 179.942 82.3458 178.57 82.2874 177.664Z" fill="#DBDCDC"/>
<path d="M87.3704 177.62L88.4657 181.87C88.9331 183.564 89.4734 185.098 90.0868 186.47C89.561 186.587 88.8746 185.945 88.0276 184.543C87.1513 183.111 86.6548 181.768 86.5379 180.512C86.4503 179.431 86.5671 178.628 86.8884 178.102L87.3704 177.62Z" fill="#DBDCDC"/>
<path d="M95.694 177.357L97.9723 180.38C99.5204 182.513 100.338 183.929 100.426 184.63L97.8408 182.746C96.1175 181.315 95.2559 180.234 95.2559 179.504C95.2559 178.774 95.3289 178.204 95.4749 177.795L95.694 177.357Z" fill="#DBDCDC"/>
<path d="M80.6224 177.445C79.5125 177.357 78.7823 177.781 78.4318 178.716C78.0813 179.592 78.0083 181.023 78.2127 183.009C78.3588 184.879 78.5778 185.872 78.8699 185.989C79.162 186.105 79.8046 185.477 80.7977 184.105C81.7908 182.703 82.375 181.563 82.5502 180.687C82.6671 179.986 82.5356 179.3 82.1559 178.628C81.7762 177.927 81.265 177.533 80.6224 177.445ZM80.8853 176.35C81.8492 176.583 82.6086 177.182 83.1636 178.146C83.6602 178.993 83.8646 179.884 83.777 180.819C83.6602 181.695 82.9007 183.038 81.4987 184.849C80.0967 186.66 79.1328 187.537 78.607 187.478C77.9644 187.449 77.4825 186.149 77.1612 183.579C76.8691 181.038 76.9129 179.256 77.2926 178.234C77.5263 177.62 78.0083 177.109 78.7385 176.7C79.4979 176.291 80.2135 176.174 80.8853 176.35Z" fill="#0D131A"/>
<path d="M91.1379 178.716C90.9335 178.248 90.5976 177.898 90.1302 177.664C89.6921 177.43 89.2393 177.357 88.772 177.445C88.3631 177.533 87.998 177.781 87.6767 178.19C87.2969 178.657 87.1217 179.183 87.1509 179.767C87.1801 181.169 87.7497 182.673 88.8596 184.28C89.8527 185.711 90.5099 186.368 90.8312 186.251C91.1233 186.164 91.357 185.171 91.5322 183.272C91.7659 181.228 91.6345 179.709 91.1379 178.716ZM90.6122 176.525C91.284 176.875 91.7951 177.416 92.1456 178.146C92.6422 179.227 92.759 181.052 92.4961 183.623C92.2332 186.135 91.8243 187.464 91.2694 187.61C90.5099 187.814 89.4146 186.879 87.9834 184.806C86.5229 182.703 85.8219 180.994 85.8803 179.679C85.9387 178.891 86.187 178.175 86.6251 177.533C87.1217 176.802 87.7643 176.364 88.5529 176.218C89.2832 176.072 89.9696 176.174 90.6122 176.525Z" fill="#0D131A"/>
<path d="M95.825 179.373C95.8542 180.045 96.5991 180.965 98.0595 182.133C99.4323 183.272 100.206 183.783 100.382 183.666C100.615 183.462 100.498 182.191 100.031 179.855C99.5346 177.372 98.9358 175.912 98.2348 175.473C97.563 175.415 96.9788 175.853 96.4822 176.788C95.9857 177.635 95.7666 178.496 95.825 179.373ZM94.5983 179.46C94.5106 178.321 94.8904 177.138 95.7374 175.912C96.6137 174.597 97.5337 174.028 98.4976 174.203C99.5492 174.436 100.411 176.291 101.083 179.767C101.754 183.185 101.798 185.039 101.214 185.331C100.834 185.536 99.666 184.835 97.709 183.228C95.6936 181.563 94.6567 180.307 94.5983 179.46Z" fill="#0D131A"/>
<path d="M68.3548 76.6306C69.8737 75.4623 70.7499 74.9657 70.9836 75.141C71.2465 75.3454 70.6915 76.1049 69.3187 77.4193C65.9305 80.6907 62.9512 84.3126 60.3808 88.285C57.4891 92.7247 55.5029 97.0038 54.4222 101.122C54.2177 101.823 53.765 102.568 53.064 103.357L51.1362 105.109C50.4352 105.693 50.2015 106.102 50.4352 106.336C50.6688 106.57 51.4137 106.687 52.6696 106.687C52.8449 106.687 52.9179 106.891 52.8887 107.3C52.8595 107.709 52.7573 107.913 52.582 107.913C50.9463 107.913 49.7634 107.68 49.0331 107.212C48.04 106.54 48.3759 105.518 50.0408 104.145L52.1877 102.305C52.6842 101.809 52.9909 101.298 53.1078 100.772C54.3345 96.2152 56.2915 91.7754 58.9787 87.4525C61.7828 82.9251 64.9081 79.3178 68.3548 76.6306Z" fill="#0D131A"/>
<path d="M79.0458 93.1921C79.8636 91.1474 80.404 90.1982 80.6669 90.3442C80.9589 90.4902 80.7545 91.644 80.0535 93.8054C79.002 97.1353 77.2348 100.304 74.7521 103.313C72.4446 106.146 69.8742 108.424 67.0409 110.148C66.486 110.498 65.1424 111.637 63.0101 113.565C60.9363 115.259 59.4758 115.975 58.6288 115.712C58.1614 115.566 57.7525 115.011 57.402 114.047C57.0515 113.083 56.8908 112.076 56.9201 111.024C55.7809 111.842 54.671 112.368 53.5903 112.601L51.7063 112.514C51.3266 112.192 51.2097 111.462 51.3558 110.323C51.5018 109.213 51.8523 108.118 52.4073 107.037C53.1959 105.518 53.7509 104.817 54.0722 104.934C54.3935 105.022 54.2036 105.883 53.5026 107.519C52.6556 109.505 52.4365 110.703 52.8454 111.112L54.4665 110.849C55.3428 110.528 56.1898 110.104 57.0077 109.578C57.4166 109.315 57.6795 109.213 57.7963 109.272C57.9424 109.301 58.03 109.549 58.0592 110.016C58.2345 112.587 58.6142 113.96 59.1983 114.135C59.6949 114.281 60.761 113.653 62.3967 112.251L66.5152 108.877C68.8227 107.446 71.1594 105.285 73.5253 102.393C75.9788 99.3843 77.819 96.3174 79.0458 93.1921Z" fill="#0D131A"/>
</svg>
