<svg width="200" height="200" viewBox="0 0 200 200" fill="none" xmlns="http://www.w3.org/2000/svg">
<circle cx="100.5" cy="99.5" r="82.5" fill="#FFEBCA"/>
<path d="M135.677 79.7333L135.36 79.5129L135.774 80.3944C135.905 80.6556 136.197 80.9657 136.653 81.3248L137.336 81.9369L137.312 81.2514C137.279 80.9249 136.734 80.4189 135.677 79.7333ZM150.075 72.3144C150.271 71.5635 150.653 70.6412 151.222 69.5476L152.052 68.054C152.247 67.7602 152.516 67.6622 152.857 67.7602C153.183 67.8744 153.329 68.1111 153.297 68.4702L153.053 71.8491C152.906 74.2323 152.874 75.8483 152.955 76.6972C153.004 77.1052 153.11 77.4154 153.272 77.6276L153.98 78.1663L155.005 78.7784C155.477 79.1048 155.827 79.4558 156.054 79.8312C156.64 80.7617 157.031 82.1981 157.226 84.1406C157.421 85.9361 157.38 87.2746 157.104 88.1561C157.006 88.4662 156.99 88.7356 157.055 88.9641C157.104 89.1763 157.25 89.4212 157.494 89.6987L158.056 90.017L158.544 90.3842L158.739 91.2412C158.723 91.4534 158.609 91.6819 158.397 91.9268L157.86 92.6613C157.665 93.0204 157.567 93.3469 157.567 93.6407L157.714 94.6446C157.779 95.1833 157.755 95.6077 157.641 95.9178C157.494 96.3749 157.193 96.6116 156.738 96.6279C156.217 96.5789 155.859 96.5789 155.664 96.6279C155.273 96.7422 154.973 96.8891 154.761 97.0686C154.452 97.3951 154.249 97.8277 154.151 98.3663C154.037 98.8887 154.053 99.3131 154.2 99.6395L154.663 99.7864L155.225 99.9334L155.981 100.105C156.274 100.252 156.445 100.497 156.494 100.839L156.128 101.353L155.444 102.186L154.541 103.141C154.151 103.582 154.061 103.892 154.273 104.071C154.419 104.186 154.696 103.949 155.103 103.361C155.688 102.512 156.152 101.925 156.494 101.598C157.502 100.619 158.568 99.9415 159.691 99.5661C161.041 99.0437 161.716 98.8397 161.716 98.954L161.35 99.4437L160.96 99.9089C162.033 99.3865 163.53 98.7662 165.45 98.048L166.597 97.8521C167.183 97.7705 167.484 97.7705 167.5 97.8521C167.533 97.999 167.313 98.2439 166.841 98.5867L165.914 99.2233L159.642 104.145C158.991 104.667 158.348 105.426 157.714 106.422C157.177 107.222 156.819 107.899 156.64 108.454C156.526 108.83 156.323 109.115 156.03 109.311L155.151 109.825L154.688 110.168L154.712 110.315C154.826 110.805 154.81 111.449 154.663 112.249L154.151 112.788L153.59 113.253C157.413 119.538 159.894 125.773 161.033 131.96C162.757 141.231 161.204 149.442 156.372 156.591C150.238 165.651 142.844 171.331 134.188 173.633C130.495 174.612 126.265 175.086 121.498 175.053L107.636 174.049C99.7619 173.151 92.4406 170.172 85.6725 165.112C83.5249 163.496 81.5482 161.75 79.7423 159.872L77.4727 157.326L77.8875 155.294L117.52 144.594L118.203 147.483L119.326 146.455C119.407 146.177 119.407 145.908 119.326 145.647C119.245 145.418 119.139 145.247 119.009 145.133L124.573 147.899C128.282 149.728 132.106 150.038 136.043 148.83C140.794 147.377 144.845 143.835 148.196 138.203C150.409 134.482 151.32 130.14 150.93 125.177C150.637 121.407 149.669 117.644 148.025 113.89C146.821 113.939 146.138 114.053 145.975 114.233C145.504 114.771 145.056 115.098 144.633 115.212C143.738 115.489 142.608 115.163 141.241 114.233L141.143 114.159C140.704 113.865 140.517 113.245 140.582 112.298L140.509 111.564L140.289 111.025C140.159 110.878 139.956 110.748 139.679 110.633L138.679 110.217L137.678 110.315L136.482 110.829C135.555 111.384 134.985 111.686 134.774 111.735C134.058 111.915 133.48 111.417 133.041 110.242L132.504 108.16L132.382 107.793L131.821 106.593C131.642 106.136 131.691 105.687 131.967 105.247C132.13 104.969 132.301 104.292 132.48 103.214C132.659 102.137 132.74 101.305 132.724 100.717L132.7 99.713C132.7 99.2396 132.797 98.7907 132.992 98.3663C133.106 98.1215 133.326 97.7705 133.651 97.3135L134.457 96.0158L134.701 95.0609L134.579 94.2039C134.416 93.5673 134.351 93.0123 134.383 92.5389L134.457 91.3391C134.489 90.8658 134.579 90.4495 134.725 90.0904C134.79 89.9272 135.01 89.5273 135.384 88.8906C135.644 88.4336 135.766 88.1071 135.75 87.9113C135.718 87.5848 135.433 86.6625 134.896 85.1445C134.359 83.708 134.042 82.6796 133.944 82.0594C133.847 81.4227 133.798 80.729 133.798 79.9781L133.822 78.9743C133.838 78.7947 133.928 78.6396 134.091 78.509L131.919 76.5992C131.788 76.485 131.715 76.3462 131.699 76.183C131.666 76.0034 131.707 75.8402 131.821 75.6933C131.902 75.5627 132.032 75.4729 132.211 75.4239L132.675 75.4974C134.188 76.2646 135.156 76.6972 135.579 76.7951L136.873 76.7706L137.458 76.6727C138.321 76.5421 139.256 76.9828 140.265 77.9949L140.46 78.2152L140.143 75.5709C140.094 74.869 140.346 73.7671 140.899 72.2654C141.322 71.1881 141.843 70.0291 142.461 68.7885C142.722 68.2662 142.933 67.2378 143.096 65.7034L143.291 62.5204C143.291 62.1613 143.462 61.9491 143.803 61.8838C144.145 61.8022 144.397 61.9164 144.56 62.2266L144.877 63.0591C145.089 63.712 145.195 64.3323 145.195 64.9199C145.195 65.3443 145.308 66.1115 145.536 67.2215L145.317 65.2382C145.3 65.0587 145.341 64.8954 145.439 64.7485C145.552 64.5853 145.699 64.4873 145.878 64.4547C146.057 64.4384 146.228 64.4792 146.39 64.5771C146.537 64.6751 146.626 64.8138 146.659 64.9934L146.878 65.9728C147.074 66.691 147.285 67.295 147.513 67.7846C147.724 68.258 147.822 68.813 147.806 69.4496L147.611 71.0901L147.44 72.1919C147.407 72.7143 147.855 73.5876 148.782 74.8118L149.368 75.5953L149.636 76.0606L149.709 75.0322C149.791 73.8079 149.913 72.902 150.075 72.3144Z" fill="#0D131A"/>
<path d="M148.905 85.9281L149.344 85.6832C149.458 85.7322 149.458 85.9852 149.344 86.4423C149.181 87.1115 149.108 87.9114 149.124 88.8418C149.141 89.7069 149.23 90.4415 149.393 91.0454C149.539 91.5514 149.775 92.0167 150.1 92.4411C150.377 92.8328 150.523 93.2083 150.54 93.5674C150.556 94.4162 150.491 95.216 150.344 95.9669C150.344 96.1301 150.401 96.2444 150.515 96.3097C150.613 96.375 150.767 96.3178 150.979 96.1383C151.19 95.8771 151.378 95.518 151.54 95.061C151.622 94.8161 151.63 94.5223 151.565 94.1795C151.532 93.7551 151.597 93.3797 151.76 93.0532L152.15 92.2452C152.297 91.9514 152.443 91.8289 152.59 91.8779L152.663 92.2942L152.541 93.5429L152.834 93.9836L152.956 94.7182C152.923 94.9793 152.695 95.5996 152.272 96.579L151.711 98.2195C151.532 98.7745 151.459 99.1907 151.491 99.4682C151.573 100.235 151.727 100.619 151.955 100.619L152.15 100.301L152.346 99.6396L153.127 98.1461C153.289 97.8686 153.598 97.5013 154.054 97.0442C153.696 97.6972 153.517 98.3746 153.517 99.0765C153.517 99.3866 153.598 99.7457 153.761 100.154C153.875 100.415 154.2 100.603 154.737 100.717C155.258 100.799 155.534 100.954 155.567 101.182C155.6 101.443 155.421 101.737 155.03 102.064L154.103 102.872C153.859 103.182 153.729 103.5 153.712 103.827C153.68 104.202 153.81 104.488 154.103 104.684C154.428 104.912 154.9 104.594 155.518 103.729L156.909 101.843C157.43 101.403 158.552 100.766 160.277 99.9335L158.715 101.28C158.487 101.476 158.268 101.762 158.056 102.137L157.812 102.651L158.788 101.99C159.569 101.484 160.261 101.06 160.863 100.717C161.839 100.195 163.45 99.5172 165.695 98.6847L159.276 103.312C158.512 103.916 157.772 104.659 157.056 105.541C156.389 106.389 155.966 107.083 155.787 107.622C155.64 108.03 155.299 108.454 154.762 108.895L153.639 109.752C153.493 109.915 153.452 110.152 153.517 110.462L153.541 111.686C153.476 111.964 153.314 112.217 153.053 112.445L149.441 108.528L147.88 107.132L147.025 106.52L148.807 108.944L147.44 109.091L147.123 109.507L146.123 107.671L146.22 108.503C146.367 109.254 146.619 110.152 146.977 111.197L145.927 111.294L145.293 111.49L144.878 111.466C144.406 111.058 144.154 110.772 144.121 110.609C144.105 110.511 144.138 110.413 144.219 110.315L144.39 110.095C144.585 109.719 144.65 109.197 144.585 108.528C144.52 107.858 144.349 107.352 144.073 107.01C143.812 106.667 143.332 106.283 142.633 105.859C141.884 105.418 141.29 105.198 140.851 105.198C140.688 105.198 140.428 105.287 140.07 105.467L139.216 105.859C138.907 105.94 138.647 105.802 138.435 105.443C138.077 104.757 137.801 103.982 137.605 103.116C137.41 102.202 137.418 101.639 137.63 101.427C137.874 101.182 138.59 100.79 139.777 100.252L141.022 99.5417C141.38 99.2968 141.6 99.0438 141.681 98.7827C141.876 98.244 141.665 97.5911 141.046 96.8239C140.233 95.8282 140.054 94.8732 140.51 93.9591C140.705 93.5347 141.177 93.1838 141.925 92.9063C142.381 92.7267 142.852 92.3758 143.34 91.8534L144.097 90.4578L144.731 88.5235C144.894 87.9358 145.049 87.642 145.195 87.642C145.293 87.642 145.358 87.8705 145.39 88.3276C145.423 88.9316 145.39 89.5274 145.293 90.115L145.098 91.2903C145.065 91.5188 145.081 91.6657 145.146 91.731C145.26 91.8453 145.399 91.8861 145.561 91.8534C146.017 91.7392 146.391 91.4862 146.684 91.0944C147.025 90.6047 147.278 89.8538 147.44 88.8418C147.57 88.0583 147.855 87.3319 148.294 86.6626L148.905 85.9281Z" fill="#EFE908"/>
<path d="M150.711 72.4858C150.907 71.7676 151.289 70.878 151.858 69.8169L152.639 68.4213L152.395 71.8002C152.233 74.2161 152.2 75.8729 152.298 76.7707C152.379 77.5705 152.737 78.1826 153.371 78.607C154.234 79.1783 154.811 79.6925 155.104 80.1496C155.657 81.031 156.08 82.3777 156.373 84.1896C156.666 85.9525 156.699 87.2094 156.471 87.9603C156.292 88.5479 156.398 89.1192 156.788 89.6742L157.691 90.8985C157.837 91.2086 157.862 91.4371 157.764 91.584C157.569 91.8126 157.398 92.0737 157.252 92.3676C157.105 92.6777 157.032 93.0695 157.032 93.5428C157.032 94.1141 156.951 94.6202 156.788 95.0609C156.625 95.5669 156.259 95.9097 155.69 96.0893C154.958 96.3178 154.478 96.5463 154.25 96.7748L153.86 97.289C153.339 97.844 152.892 98.5541 152.517 99.4192L152.224 100.35L152.005 100.79C151.907 100.823 151.81 100.733 151.712 100.521L151.468 99.6396C151.419 99.2968 151.46 98.8887 151.59 98.4153L152.054 97.0197L152.566 95.7465L152.859 94.7671L152.835 94.1794L152.639 93.9101C152.509 93.7142 152.444 93.5183 152.444 93.3225L152.566 92.4165C152.615 92.1554 152.607 92.0166 152.542 92.0003C152.395 91.9676 152.192 92.2533 151.932 92.8573C151.688 93.3796 151.59 93.804 151.639 94.1305V94.9874C151.281 95.9995 150.915 96.4729 150.541 96.4076C150.264 96.3586 150.199 96.0485 150.345 95.4771L150.467 93.7632C150.467 93.3061 150.353 92.9144 150.126 92.5879C149.768 92.1145 149.54 91.7065 149.442 91.3637C149.084 90.1068 148.938 88.907 149.003 87.7644C149.019 87.389 149.117 86.9074 149.296 86.3198C149.524 85.5526 149.296 85.5771 148.613 86.3932C148.108 87.0625 147.767 87.797 147.588 88.5969C147.295 89.968 146.961 90.8821 146.587 91.3392C146.473 91.4698 146.294 91.6004 146.05 91.7309C145.774 91.8779 145.546 91.9432 145.367 91.9268L145.074 91.7309L145.001 91.4616L145.342 88.8907C145.391 88.1561 145.342 87.7889 145.196 87.7889C145.115 87.7889 145.025 87.9439 144.928 88.2541L144.586 89.3559C144.195 90.5965 143.87 91.3718 143.61 91.682L142.682 92.539L141.755 93.1021C141.462 93.2164 141.243 93.3306 141.096 93.4449C140.901 93.6081 140.738 93.853 140.608 94.1794C140.364 94.7344 140.34 95.2813 140.535 95.8199L141.218 96.9462L141.779 97.9011C141.893 98.195 141.901 98.5051 141.804 98.8316C141.739 99.0111 141.511 99.256 141.121 99.5661L139.485 100.497C138.737 100.774 138.159 101.109 137.753 101.5C137.346 101.925 137.598 103.223 138.509 105.394C138.672 105.72 138.9 105.842 139.193 105.761L139.974 105.394C140.38 105.198 140.73 105.1 141.023 105.1C141.348 105.1 141.901 105.345 142.682 105.834C143.415 106.275 143.894 106.626 144.122 106.887C144.35 107.132 144.513 107.597 144.61 108.283C144.708 108.919 144.708 109.401 144.61 109.727L144.269 110.339C144.171 110.503 144.187 110.641 144.317 110.756L144.806 111.221C144.968 111.368 145.139 111.425 145.318 111.392L145.977 111.172L146.929 111.074L147.466 112.519L147.222 112.47C146.847 112.388 146.376 112.649 145.806 113.253L144.537 114.404C144.033 114.535 143.057 114.118 141.609 113.155C141.348 112.976 141.226 112.739 141.243 112.445C141.275 111.972 141.243 111.605 141.145 111.343C140.998 110.919 140.706 110.592 140.266 110.364C139.697 110.152 139.241 109.948 138.9 109.752L137.045 109.85L135.288 110.56C134.881 110.658 134.45 110.38 133.994 109.727C133.653 109.221 133.368 108.634 133.14 107.964L132.774 106.667C132.709 106.259 132.799 105.859 133.043 105.467C133.27 105.092 133.401 104.186 133.433 102.749L133.384 99.713C133.384 99.1744 133.571 98.6357 133.946 98.097L135.068 96.3096C135.361 95.7057 135.442 95.0772 135.312 94.4243C135.133 93.4939 135.052 92.8817 135.068 92.5879C135.101 92.1472 135.353 91.331 135.825 90.1394C136.264 89.0458 136.459 88.2786 136.41 87.8378C136.378 87.3971 136.093 86.4422 135.556 84.9731C135.003 83.4224 134.686 82.4185 134.605 81.9615C134.507 81.3575 134.466 80.6882 134.483 79.9537L134.507 79.0233L134.629 79.4885C134.759 79.8802 134.946 80.2883 135.19 80.7127C135.386 81.0718 135.719 81.4473 136.191 81.839C136.711 82.2634 137.086 82.647 137.313 82.9898C137.541 83.3326 137.696 83.7489 137.777 84.2386C138.005 82.8674 138.078 81.8472 137.997 81.1779C137.948 80.7372 137.623 80.2802 137.021 79.8068L135.508 78.8029C135.182 78.5744 134.564 78.052 133.653 77.2359L132.359 76.0851L133.555 76.6727C134.417 77.0971 135.036 77.3583 135.41 77.4562L136.508 77.5297L137.533 77.3338C138.2 77.2359 138.957 77.6113 139.803 78.4601C139.965 78.6234 140.087 78.958 140.169 79.464C140.266 80.0027 140.478 80.5005 140.803 80.9576C141.405 81.7737 141.747 82.4104 141.828 82.8674C141.226 78.9498 140.885 76.5013 140.803 75.5219C140.754 74.869 141.023 73.808 141.609 72.3389C141.999 71.3105 142.487 70.225 143.073 69.0824C143.398 68.4295 143.642 67.1481 143.805 65.2383L143.951 62.5449L144.244 63.255C144.439 63.8426 144.537 64.3976 144.537 64.92C144.537 65.3607 144.635 66.0952 144.83 67.1236L145.196 69.4252C145.277 70.323 145.351 70.6984 145.416 70.5515C145.643 70.2577 145.871 69.768 146.099 69.0824C146.327 68.4131 146.286 67.0991 145.977 65.1403L146.221 66.1442L146.88 68.0785C147.108 68.5845 147.173 69.2456 147.075 70.0618L146.782 72.143C146.734 72.698 146.969 73.3754 147.49 74.1753L148.808 75.9871C149.263 76.6564 149.524 77.4073 149.589 78.2398C149.898 77.7174 150.126 77.1134 150.272 76.4279L150.419 74.7139C150.451 73.8651 150.549 73.1224 150.711 72.4858Z" fill="#E50020"/>
<path d="M86.2839 163.912C84.1363 162.345 82.1596 160.68 80.3537 158.918L78.2793 156.714L97.2658 151.597C99.0555 154.975 101.333 158.003 104.099 160.68C108.443 164.859 113.421 167.504 119.034 168.614C129.691 170.703 139.811 168.369 149.393 161.611C151.395 160.191 153.265 158.428 155.006 156.322C149.003 164.957 141.82 170.328 133.457 172.433C129.927 173.331 125.876 173.747 121.304 173.682L108.15 172.678C100.455 171.797 93.1659 168.875 86.2839 163.912Z" fill="#DDD583"/>
<path d="M99.2656 151.107L107.88 148.756C110.093 152.788 113.477 156.028 118.033 158.477C122.702 160.974 127.851 162.223 133.48 162.223C138.378 162.223 142.949 161.26 147.196 159.334C151.312 157.457 154.631 154.902 157.153 151.67C155.054 155.49 152.296 158.558 148.88 160.876C139.459 167.259 129.559 169.43 119.18 167.389C113.827 166.328 109.223 163.815 105.367 159.848C103.219 157.628 101.185 154.714 99.2656 151.107Z" fill="#D18200"/>
<path d="M147.367 108.895L147.025 106.961L148.026 107.842L148.904 109.091L151.857 113.082C154.412 116.738 156.527 121.015 158.202 125.912C159.813 130.613 160.618 134.686 160.618 138.13C160.618 142.929 159.463 147.442 157.153 151.67C154.631 154.902 151.312 157.457 147.196 159.334C142.95 161.26 138.378 162.223 133.481 162.223C127.852 162.223 122.702 160.974 118.033 158.477C113.478 156.028 110.094 152.788 107.881 148.756L117.911 146.039L118.448 146.553C119.359 147.173 121.181 148.152 123.914 149.491C127.868 151.433 132.017 151.752 136.361 150.446C141.599 148.879 146.008 145.1 149.588 139.109C151.898 135.241 152.777 130.654 152.223 125.349C151.817 121.529 150.718 117.554 148.929 113.425C148.034 111.368 147.269 109.801 146.635 108.723L146.391 107.573L147.367 108.895Z" fill="#F29600"/>
<path d="M103.854 158.159C102.292 156.281 100.762 153.931 99.2656 151.107L117.886 146.063L117.959 146.185C118.106 146.349 118.456 146.593 119.009 146.92C119.334 148.356 119.497 149.809 119.497 151.278C119.497 154.037 118.952 156.665 117.862 159.162C116.804 161.578 115.316 163.7 113.396 165.528C109.768 163.88 106.587 161.423 103.854 158.159Z" fill="#D18200"/>
<path d="M83.0382 161.391C82.062 159.726 81.3299 157.938 80.8418 156.028L97.2659 151.597C98.5837 154.127 100.243 156.502 102.244 158.722C105.222 162.084 108.606 164.655 112.397 166.434C110.672 167.855 108.785 168.948 106.735 169.715C104.587 170.515 102.366 170.923 100.072 170.94C93.9876 168.997 88.3095 165.814 83.0382 161.391Z" fill="#DDD583"/>
<path d="M60.3173 35.4156L53.2157 43.2997C52.9228 43.7078 52.7764 44.8586 52.7764 46.7521C52.7764 48.8741 52.9879 51.0859 53.4109 53.3875C53.6712 54.8892 54.257 56.8236 55.168 59.1904C56.0954 61.6389 56.8926 63.2713 57.5597 64.0874L61.1715 68.1764L64.5149 71.9716C65.0192 72.7061 65.3772 73.9222 65.5887 75.6198C66.0442 78.607 66.4184 80.5331 66.7113 81.3983C67.118 82.5735 67.6224 83.708 68.2243 84.8017C68.6636 85.5852 69.3225 86.638 70.2011 87.9602C71.3888 89.7068 72.7635 91.38 74.3254 92.9796L75.3992 92.5389L76.6926 92.4655C77.1319 92.6124 77.441 93.0204 77.62 93.6897L77.9372 95.3547L79.4747 96.383C79.7838 96.5952 79.9791 96.9054 80.0604 97.3135C80.1092 97.6889 80.0197 98.0317 79.792 98.3418L76.2289 102.969L73.9837 108.674C73.8048 109.148 73.4631 109.425 72.9588 109.507C72.731 109.556 72.3975 109.474 71.9582 109.262L71.0796 108.674C69.3551 106.585 67.5817 104.692 65.7595 102.994C63.0262 100.464 60.8461 99.0437 59.2192 98.7336C58.0315 98.5051 56.8113 98.603 55.5585 99.0274C55.1843 99.1743 54.2081 99.6395 52.63 100.423C51.6538 100.913 50.9461 101.215 50.5068 101.329C49.7747 101.525 49.1239 101.476 48.5545 101.182C48.0827 100.937 47.8142 100.521 47.7491 99.9334L47.798 98.807L47.92 98.2684C48.0664 97.3216 47.8386 96.2851 47.2367 95.1588C46.8462 94.4732 46.0896 93.7795 44.9671 93.0776C43.3076 92.0166 41.4447 91.4861 39.3785 91.4861C34.6115 91.4861 29.5842 93.4775 24.2966 97.4604C21.2868 99.713 18.6836 102.17 16.4873 104.83C16.4059 105.516 16.4059 106.357 16.4873 107.352L16.6337 108.944C16.6337 109.76 16.4384 110.478 16.048 111.098C15.6412 111.735 15.1532 112.053 14.5837 112.053C14.0468 112.053 13.5669 111.849 13.1439 111.441C12.607 110.935 12.2979 110.201 12.2165 109.238L12.1921 109.091C11.8504 105.206 11.6308 102.137 11.5332 99.8844C11.4681 98.3663 11.4681 97.4522 11.5332 97.1421C11.826 95.1343 12.4768 91.9594 13.4855 87.6174C14.4292 83.5366 15.2833 80.1577 16.048 77.4807C16.715 75.1301 17.7888 71.9389 19.2693 67.9071C20.6523 64.1364 21.5552 61.8756 21.9782 61.1247C22.5314 60.129 24.744 57.3704 28.6162 52.8488C32.4395 48.3926 34.8311 45.7727 35.791 44.9892C36.5882 44.3362 37.8573 43.618 39.5981 42.8345L41.16 42.1244C41.827 41.8143 42.2338 41.6021 42.3802 41.4878L48.4325 36.7867L54.68 32.0122C55.9002 31.1307 57.0634 30.6002 58.1698 30.4206C59.3249 30.2411 60.1872 30.4778 60.7566 31.1307C61.1796 31.6204 61.3749 32.257 61.3423 33.0405C61.2935 33.922 60.9519 34.7137 60.3173 35.4156Z" fill="#0D131A"/>
<path d="M35.6203 55.6157C39.1833 52.5796 41.2658 50.9309 41.8678 50.6698C42.6812 50.5555 43.8201 50.6861 45.2844 51.0615C46.7649 51.4533 47.6434 51.8695 47.92 52.3102C48.099 52.653 49.1321 55.8034 51.0194 61.7614L52.3616 65.7769C52.7033 66.6747 55.0867 69.0579 59.5121 72.9265C60.0815 73.4326 60.8136 75.22 61.7084 78.2887L62.2941 80.2475L63.4411 84.6793L65.003 91.1188C65.3447 92.441 65.6538 93.1919 65.9304 93.3715C67.0204 94.1223 68.2569 95.2894 69.6398 96.8728C69.9001 97.1829 70.4533 98.3745 71.2993 100.448L73.5933 106.251L72.7392 108.185C71.4051 106.699 69.8595 105.165 68.1024 103.582C64.5881 100.431 61.7735 98.6602 59.6585 98.2684C57.6411 97.893 55.4284 98.2521 53.0205 99.3458L50.7753 100.399C50.0757 100.676 49.5551 100.725 49.2135 100.546C49.0345 100.448 48.9125 100.113 48.8474 99.5417L48.7986 98.7337C48.9125 98.4725 48.9694 98.1134 48.9694 97.6563C48.9694 96.7585 48.701 95.8118 48.1641 94.8161C47.7085 93.9509 46.7974 93.1429 45.4308 92.3921C43.6411 91.3963 41.5993 90.8985 39.3053 90.8985C34.6848 90.8985 29.9178 92.5716 25.0044 95.9179C21.962 97.9909 19.1311 100.488 16.5117 103.41C16.6907 96.8157 16.8859 93.1184 17.0974 92.3186C17.797 89.462 19.2938 84.7691 21.5878 78.2398C24.6465 69.5721 27.095 64.0712 28.9335 61.7369C29.7144 60.7575 31.9434 58.7171 35.6203 55.6157Z" fill="#008086"/>
<path d="M59.048 34.779C54.9481 39.1537 52.4995 41.8389 51.7023 42.8346C51.1817 43.5038 51.0109 45.0872 51.1898 47.5847C51.3037 49.2496 51.564 51.1839 51.9708 53.3876C52.2311 54.873 52.89 56.8808 53.9475 59.4109C55.0213 61.9573 55.9487 63.7121 56.7296 64.6751L63.4164 72.5103C63.8719 73.1143 64.2705 74.4528 64.6122 76.5258C65.0352 79.0723 65.3606 80.6719 65.5884 81.3249C66.0114 82.5654 66.4425 83.6673 66.8818 84.6303L68.5169 87.8134C69.1188 88.9397 70.1276 90.3598 71.543 92.0738C72.8608 93.6571 73.6499 94.4978 73.9102 94.5957L74.7888 94.3264C75.2118 94.1142 75.5453 94.0489 75.7894 94.1305C76.2449 94.2774 76.5459 94.9548 76.6923 96.1627L78.7179 97.5094L75.0572 102.308L74.5447 103.582C72.5761 99.1254 71.3071 96.579 70.7377 95.9424C68.9968 93.9346 67.5651 92.5553 66.4425 91.8044C66.1334 91.4453 65.3443 88.7683 64.0753 83.7734L62.9039 79.2681L62.3182 77.3338L61.4152 74.4691C61.0573 73.604 60.6424 72.9592 60.1706 72.5348L56.4124 68.862C54.5902 66.9849 53.5977 65.8259 53.435 65.3852L52.0928 61.4186C49.9452 54.9546 48.7738 51.5757 48.5786 51.2819C48.1556 50.58 47.0574 50.0087 45.284 49.5679C43.6733 49.1762 42.3799 49.0537 41.4037 49.2007C40.8017 49.2986 38.5321 51.0778 34.5949 54.5384C30.7879 57.8683 28.5345 59.9822 27.8349 60.88C25.8338 63.4264 23.2957 69.3191 20.2208 78.5581C18.6752 83.1776 17.3248 87.593 16.1697 91.8044C15.9094 92.8818 15.6897 97.1503 15.5108 104.61L15.2911 108.944C15.2911 109.319 15.2179 109.646 15.0715 109.923C14.9251 110.184 14.7624 110.315 14.5834 110.315C14.3556 110.315 14.1929 110.25 14.0953 110.119C13.9164 109.923 13.8025 109.548 13.7537 108.993L13.4364 103.998L13.168 99.2234C13.1842 97.4931 13.6561 94.3998 14.5834 89.9436C15.3969 85.9607 16.186 82.696 16.9506 80.1496C18.0895 76.33 19.4561 72.241 21.0506 67.8827C22.3847 64.2915 23.2307 62.1695 23.5886 61.5166C24.093 60.6025 26.1673 57.9826 29.8117 53.6569C33.4723 49.2986 35.7501 46.7603 36.6449 46.0421C37.3933 45.4381 38.8738 44.6383 41.0865 43.6426C42.1928 43.1366 43.2259 42.6958 44.1858 42.3204L54.9969 33.3834C55.8917 32.6325 56.7866 32.1183 57.6814 31.8408C58.6087 31.5633 59.2188 31.6286 59.5117 32.0367C60.0974 32.8855 59.9428 33.7996 59.048 34.779Z" fill="#F29600"/>
<path d="M47.3831 58.2111C47.0089 58.0316 46.4558 57.8602 45.7236 57.6969L43.9177 57.4276C42.7789 58.2111 40.7126 59.8842 37.719 62.447C34.5628 65.1403 32.6755 66.8788 32.0572 67.6623C30.3489 69.8333 27.9817 75.171 24.9556 83.6754C22.6453 90.1068 21.1241 94.7508 20.392 97.6073L20.2456 99.6641C19.0091 100.79 17.7645 102.039 16.5117 103.41C16.6907 96.8157 16.8859 93.1184 17.0974 92.3186C17.797 89.462 19.2938 84.7691 21.5878 78.2398C24.6465 69.5721 27.095 64.0712 28.9335 61.7369C29.7144 60.7575 31.9434 58.7171 35.6203 55.6157C39.1833 52.5796 41.2658 50.9309 41.8678 50.6698C42.6812 50.5555 43.8201 50.6861 45.2844 51.0615C46.7649 51.4533 47.6434 51.8695 47.92 52.3102C48.099 52.653 49.1321 55.8034 51.0194 61.7614L52.3616 65.7769C52.7033 66.6747 55.0867 69.0579 59.5121 72.9265C60.0815 73.4326 60.8136 75.22 61.7084 78.2887L62.2941 80.2475L63.4411 84.6793L65.003 91.1188C65.3447 92.441 65.6538 93.1919 65.9304 93.3715C67.0204 94.1223 68.2569 95.2894 69.6398 96.8728C69.9001 97.1829 70.4533 98.3745 71.2993 100.448L73.5933 106.251L72.7392 108.185L70.616 105.981C69.9001 104.186 69.4365 103.133 69.225 102.823C67.9559 101.354 66.8903 100.341 66.028 99.7865C65.4586 99.3947 65.0193 98.7826 64.7102 97.9501C64.4824 97.3625 64.1163 96.0077 63.612 93.8856L62.6114 89.7477L61.4888 85.4628L60.8787 83.4061C60.4882 82.0676 60.1059 80.4271 59.7317 78.4846L59.2924 75.9872L52.4836 70.1108C51.3285 69.0498 50.5801 68.0132 50.2384 67.0012L47.3831 58.2111Z" fill="#00666C"/>
<path d="M184.73 78.3622C185.283 79.7823 185.975 83.2184 186.804 88.6703C187.602 93.8938 188 97.3462 188 99.0275V99.5661L187.927 110.266C187.715 112.274 186.869 113.261 185.389 113.229C184.738 113.212 184.274 112.91 183.998 112.323C183.738 111.768 183.607 110.854 183.607 109.58C183.607 108.781 183.526 108.046 183.363 107.377C180.093 104.145 176.66 100.921 173.065 97.7053C168.184 93.3633 164.914 90.8332 163.254 90.115C161.253 89.2498 158.772 88.8744 155.811 88.9887C153.387 89.1029 151.662 89.4131 150.637 89.9191C150.165 90.1476 149.01 91.3555 147.172 93.5428L145.049 95.8689C144.561 96.3423 144.105 96.6035 143.682 96.6524L142.755 96.53L141.315 95.9179C138.842 94.8405 137.036 94.1468 135.897 93.8367C133.245 93.1348 131 93.1592 129.161 93.9101C126.558 94.9711 123.654 96.6035 120.449 98.8071C118.009 100.488 116.374 101.745 115.544 102.578C115.267 102.888 114.429 104.414 113.03 107.156L108.833 115.457C108.621 115.849 108.149 116.061 107.417 116.093C106.897 116.093 106.49 115.873 106.197 115.432L95.1418 96.7749C94.8815 96.3505 94.8653 95.9179 95.093 95.4772C95.3371 95.0201 95.7031 94.7753 96.1912 94.7426L100.901 94.6202C101.585 92.6124 102.17 91.4208 102.658 91.0454C102.935 90.8495 103.464 90.6863 104.245 90.5557L106.514 90.6047L110.419 88.0093L116.349 83.6999C119.587 81.2188 122.353 78.5336 124.647 75.6444C125.053 74.6813 125.712 72.5185 126.623 69.1559C127.583 65.5974 128.486 61.9246 129.332 58.1376C130.113 54.6281 130.764 51.1105 131.285 47.5846C131.756 44.369 131.968 42.3122 131.919 41.4144C131.887 40.9247 131.407 39.9535 130.479 38.5007C129.471 36.9011 128.112 35.0239 126.404 32.8692C125.72 32.0204 125.273 31.1226 125.061 30.1759C124.801 29.0332 124.964 28.0375 125.55 27.1887C125.989 26.5521 126.534 26.1767 127.185 26.0624C127.901 25.9481 128.69 26.095 129.552 26.5031C130.284 26.8459 130.959 27.303 131.577 27.8743L135.555 31.7184L139.362 35.4156C139.493 35.5299 140.062 35.685 141.071 35.8809L143.072 36.2971C143.544 36.444 145.439 37.3744 148.758 39.0884L154.176 41.7817C155.77 42.2877 157.397 42.6387 159.057 42.8346L161.009 43.1039C161.757 43.2345 162.229 43.3977 162.424 43.5936C163.563 44.6709 165.841 48.1723 169.258 54.0976L176.384 66.7074C177.848 69.2375 179.654 71.8574 181.801 74.567L184.73 78.3622Z" fill="#0D131A"/>
<path d="M178.971 73.6121L181.265 76.7217L183.144 79.5864C183.681 80.9413 184.397 84.1488 185.291 89.209C186.186 94.2203 186.634 97.4931 186.634 99.0275V104.39L186.561 109.825C186.495 110.397 186.39 110.813 186.243 111.074C186.048 111.417 185.763 111.58 185.389 111.564C185.145 111.547 184.966 111.221 184.852 110.584C184.771 110.144 184.73 109.654 184.73 109.115L184.681 106.936L183.022 88.8907V88.7928C181.411 82.8185 178.052 75.3342 172.943 66.3401C168.306 58.1948 164.605 52.7428 161.839 49.9842C161.074 49.2007 157.65 47.7887 151.565 45.7483C145.936 43.8385 142.942 42.8836 142.584 42.8836C141.575 42.8019 140.55 43.0223 139.509 43.5446C138.468 44.0833 137.671 44.8015 137.117 45.6993C136.564 46.5808 135.084 51.6083 132.676 60.782C131.96 63.5733 131.187 67.7113 130.357 73.1959C129.886 76.2973 129.577 77.9949 129.43 78.2888C129.17 78.7784 127.136 80.3945 123.329 83.1368L120.547 85.1935C119.994 85.6506 119.408 86.3769 118.79 87.3727C118.464 87.8787 118.001 88.703 117.399 89.8456L116.862 90.8495C116.781 90.9475 116.349 91.0862 115.568 91.2658C114.039 91.6412 112.803 91.9921 111.859 92.3186C110.623 92.743 109.004 94.7508 107.003 98.3419C105.668 100.741 104.269 103.647 102.805 107.059L96.2891 96.0893L101.926 95.6486L102.488 94.057C102.911 92.9634 103.269 92.3105 103.562 92.0983C103.968 91.8208 104.652 91.6902 105.612 91.7065L106.905 91.8044L111.517 88.6704L117.155 84.8017C117.822 84.2957 119.408 82.8266 121.914 80.3945C124.403 77.9623 125.712 76.6075 125.843 76.33C126.672 74.5344 128.21 68.707 130.455 58.8477C132.765 48.662 133.831 42.6632 133.652 40.8513C133.587 40.2147 132.676 38.664 130.919 36.1992L127.6 31.8409C127.128 31.2532 126.803 30.5758 126.624 29.8086C126.412 28.9924 126.445 28.3395 126.721 27.8498C126.998 27.3764 127.551 27.303 128.381 27.6294C129.113 27.9069 129.861 28.3966 130.626 29.0985L134.579 33.1386L138.216 36.8358L140.29 37.1786L143.145 37.7907C143.812 38.0192 147.278 39.6434 153.542 42.6632L157.788 43.8629C159.952 44.4179 161.123 44.7771 161.302 44.9403C162.848 46.4257 166.167 51.5267 171.259 60.2434L178.971 73.6121Z" fill="#F29600"/>
<path d="M182.192 89.0866L183.705 105.981C180.321 102.782 177.076 99.8273 173.968 97.1176C168.941 92.743 165.524 90.1639 163.718 89.3804C161.522 88.4336 158.87 88.0663 155.762 88.2786C153.289 88.4418 151.435 88.8335 150.198 89.4538C149.661 89.715 148.523 90.8087 146.782 92.7348C145.171 94.4977 144.057 95.4363 143.438 95.5506C143.064 95.6322 142.332 95.4526 141.242 95.0119L137.85 93.6408C134.433 92.4328 131.464 92.3431 128.942 93.3714C126.144 94.5304 123.093 96.1056 119.791 98.097C117.008 99.7783 115.268 100.954 114.568 101.623C114.145 102.047 112.819 104.357 110.59 108.552L107.369 114.722L104.025 109.336C106.401 103.41 107.719 100.154 107.979 99.5661C109.541 96.0729 110.802 94.1631 111.762 93.8366C112.445 93.5918 113.795 93.2572 115.813 92.8327L117.033 92.5144L117.765 91.9758L118.4 90.825L119.522 88.2296C120.059 87.0706 120.547 86.3034 120.986 85.928L122.231 85.1445L123.988 84.0427L128.356 80.8106C129.544 79.8802 130.236 79.211 130.431 78.8029L130.87 77.0645L131.456 73.3672L132.286 67.5398C132.66 65.0587 133.058 63.0101 133.481 61.3941L136.093 51.4043C136.874 48.4987 137.354 46.899 137.532 46.6052C137.972 45.9196 138.736 45.3728 139.826 44.9647C140.819 44.573 141.746 44.4179 142.609 44.4995C143.422 44.6301 146.383 45.5768 151.492 47.3398C157.072 49.2496 160.172 50.5146 160.79 51.1349C163.621 53.9915 167.346 59.3129 171.967 67.0991C177.222 75.9463 180.63 83.2755 182.192 89.0866Z" fill="#008086"/>
<path d="M179.727 102.284L179.069 94.9629C177.539 89.3314 174.212 82.2063 169.087 73.5876C164.597 66.0626 161.018 60.937 158.349 58.2111C157.552 57.6561 154.754 56.5542 149.954 54.9056C145.659 53.4365 142.804 52.5224 141.388 52.1633C140.9 52.147 140.363 52.2531 139.778 52.4816C139.192 52.6938 138.793 52.9223 138.582 53.1672C138.338 53.8201 137.329 57.5418 135.556 64.3323L134.775 67.3929C134.254 69.368 133.725 72.3307 133.189 76.2809L132.798 79.1212L132.09 83.3081C131.928 84.1896 131.741 84.8262 131.529 85.2179C131.236 85.8219 130.585 86.5483 129.577 87.3971L124.403 91.3147L122.329 92.6124L121.523 93.1021C115.699 98.3582 112.429 101.109 111.713 101.353C110.802 102.104 108.988 105.965 106.271 112.935V112.959L104.025 109.336C106.401 103.41 107.719 100.154 107.979 99.5661C109.541 96.0729 110.802 94.1631 111.762 93.8366C112.445 93.5918 113.795 93.2571 115.813 92.8327L117.033 92.5144L117.765 91.9758L118.4 90.825L119.522 88.2296C120.059 87.0706 120.547 86.3034 120.986 85.928L122.231 85.1445L123.988 84.0427L128.356 80.8106C129.544 79.8802 130.236 79.211 130.431 78.8029L130.87 77.0645L131.456 73.3672L132.286 67.5398C132.66 65.0587 133.058 63.0101 133.481 61.3941L136.093 51.4042C136.874 48.4987 137.354 46.899 137.532 46.6052C137.972 45.9196 138.736 45.3728 139.826 44.9647C140.819 44.573 141.746 44.4179 142.609 44.4995C143.422 44.6301 146.383 45.5768 151.492 47.3398C157.072 49.2496 160.172 50.5146 160.79 51.1349C163.621 53.9915 167.346 59.3129 171.967 67.0991C177.222 75.9463 180.63 83.2755 182.192 89.0865L183.705 105.981L179.727 102.284Z" fill="#00666C"/>
<path d="M30.9588 107.303L30.4707 107.205L29.6165 106.593C29.0471 105.94 28.803 105.132 28.8844 104.169C28.9332 103.516 29.527 102.447 30.6659 100.962C31.6095 99.7213 32.3173 98.9051 32.7891 98.5133L32.9843 98.3419L32.0081 95.6731L31.8617 95.3793C31.6339 94.9059 31.5038 94.4897 31.4712 94.1305C31.4387 93.6735 31.5282 93.1593 31.7397 92.588C32.1302 91.6249 32.7972 90.9475 33.7408 90.5557C34.3916 90.2946 35.319 90.1803 36.5229 90.213L38.4021 90.4333C38.9552 90.6618 39.8582 91.6657 41.1109 93.445L41.5258 93.6164L42.0627 93.7633L43.8686 92.9063C44.6984 92.286 45.3085 91.9024 45.6989 91.7555C46.2196 91.5596 46.8053 91.5515 47.4561 91.731C48.3509 91.9595 49.1155 92.8165 49.7501 94.3019C50.3032 95.6241 50.4985 96.6688 50.3358 97.436C50.2707 97.7788 50.051 98.3419 49.6768 99.1255L48.5786 101.28L48.3102 101.77L48.3834 102.333C51.6536 105.288 53.7849 106.634 54.7773 106.373L56.6809 105.908C57.9662 105.581 59.1864 105.173 60.3415 104.684C62.245 103.884 63.872 103.084 65.2224 102.284C65.6128 101.256 65.9382 100.546 66.1985 100.154C66.8656 99.2071 67.8418 98.4562 69.1271 97.9012C70.2171 97.4278 71.9905 97.1667 74.4472 97.1177C75.8952 97.0851 77.1805 97.1095 78.3031 97.1912L80.109 97.3625L73.8615 110.829L72.9341 110.658L68.7122 109.287L65.9301 110.682L62.0254 112.568L60.3659 113.449L58.9505 114.306C57.4049 115.122 56.1847 115.571 55.2898 115.653C53.2399 115.8 50.7588 115 47.8465 113.253C46.0406 112.16 44.1859 110.788 42.2823 109.14C41.6804 109.483 41.1353 109.662 40.6473 109.678C39.9639 109.711 39.2155 109.491 38.4021 109.017C37.9302 108.756 37.4096 108.25 36.8402 107.499L35.742 105.859L35.1563 107.059L34.7414 107.499L30.9588 107.303Z" fill="#0D131A"/>
<path d="M31.0071 106.03C30.8118 106.03 30.6247 105.957 30.4458 105.81C30.0716 105.516 29.9089 105.026 29.9577 104.341C29.9902 103.851 30.1692 103.345 30.4946 102.823L31.7392 101.231L33.3011 99.7375L34.2772 98.856C34.4562 98.5785 34.082 97.3543 33.1546 95.1833C32.7316 94.2039 32.5201 93.5509 32.5201 93.2245C32.5038 92.4573 33.0326 91.8533 34.1064 91.4126L36.3516 91.2902L37.9867 91.5595L39.0117 92.7348L40.0854 94.1794C40.4108 94.6364 40.9884 94.8976 41.8181 94.9629L44.1366 93.8366C44.6897 93.4122 45.1697 93.1592 45.5764 93.0776L46.943 93.2C47.4474 93.3306 47.9355 93.9672 48.4073 95.1098C48.8466 96.1871 49.0174 96.9625 48.9198 97.4359C48.8547 97.795 48.5863 98.4479 48.1145 99.3947L47.1871 101.231C46.9593 101.688 46.9919 102.292 47.2847 103.043L50.384 105.516C52.678 107.116 54.4026 107.76 55.5578 107.45L57.8274 106.667L61.244 105.345L66.2712 103.214C66.3526 102.774 66.5722 102.268 66.9302 101.696C67.6623 100.554 68.7686 99.664 70.2491 99.0274C71.2416 98.603 72.8685 98.3826 75.13 98.3663L78.2049 98.4642L73.1288 109.433L69.5414 107.548C66.1899 109.295 63.5217 110.576 61.5368 111.392C60.8209 111.702 59.5926 112.306 57.8518 113.204C56.7129 113.808 55.875 114.126 55.3381 114.159C53.4834 114.306 51.1487 113.522 48.3341 111.809C46.6095 110.748 44.8524 109.442 43.0628 107.891C42.9977 107.842 43.079 107.613 43.3068 107.205L43.6729 106.593L42.3794 107.499C42.1517 107.76 41.8263 107.956 41.4033 108.087C40.5735 108.364 39.6624 108.226 38.67 107.671C37.824 107.181 37.1163 106.479 36.5468 105.565L35.9611 104.341L34.2284 106.201L31.0071 106.03Z" fill="#F29600"/>
<path d="M46.8959 97.8767L44.9191 99.0765C43.8128 99.6151 43.0481 99.8926 42.6251 99.909C42.3648 99.909 42.1452 99.8355 41.9662 99.6886C41.6571 99.3621 41.6164 98.5296 41.8442 97.1911C42.0557 95.9506 42.3078 95.0854 42.6007 94.5957C42.9912 93.9918 43.5199 93.551 44.187 93.2735L46.0661 93.2001C46.6355 93.4123 47.0504 93.804 47.3107 94.3754C47.5385 94.8651 47.6036 95.3956 47.506 95.9669L47.4572 96.3097C47.3595 97.0442 47.1724 97.5666 46.8959 97.8767Z" fill="#0D131A"/>
<path d="M45.9914 93.396L44.2587 93.4939C43.6404 93.7551 43.1524 94.1632 42.7944 94.7182C42.5178 95.1589 42.2738 95.9832 42.0623 97.1912C41.8508 98.4807 41.8752 99.256 42.1355 99.5172C42.2494 99.6315 42.404 99.6886 42.5992 99.6886C42.9897 99.6723 43.7299 99.403 44.82 98.8806C45.8775 98.3583 46.512 97.9747 46.7235 97.7298C46.9838 97.436 47.1547 96.9545 47.236 96.2852L47.2848 95.9424C47.3662 95.4037 47.3092 94.9059 47.114 94.4488C46.8862 93.9428 46.512 93.5919 45.9914 93.396ZM42.404 94.4733C42.827 93.8204 43.3964 93.3552 44.1123 93.0777L46.1378 92.9797C46.6747 93.1919 47.0896 93.5429 47.3824 94.0326C47.6427 94.4733 47.7729 94.963 47.7729 95.5017L47.6753 96.3587C47.5777 97.1259 47.3743 97.6808 47.0652 98.0236C46.8211 98.3175 46.1378 98.7337 45.0152 99.2724C43.8601 99.8274 43.0629 100.113 42.6236 100.129C42.2982 100.146 42.0298 100.048 41.8182 99.8355C41.4441 99.4601 41.379 98.5623 41.623 97.1422C41.8345 95.8853 42.0948 94.9957 42.404 94.4733Z" fill="#0D131A"/>
<path d="M45.6501 96.6034C45.3573 96.9625 44.2672 97.8276 42.38 99.1988C42.2335 99.0519 42.2254 98.4234 42.3555 97.3135C42.502 96.1871 42.6972 95.3955 42.9412 94.9384C43.2178 94.465 43.6083 94.1059 44.1127 93.8611C44.6333 93.5999 45.1132 93.5509 45.5525 93.7142C46.0243 93.8774 46.3497 94.2039 46.5287 94.6936C46.4799 95.1506 46.3741 95.5342 46.2114 95.8444L45.6501 96.6034Z" fill="white"/>
<path d="M46.2367 97.3135C46.0578 97.542 45.4151 97.9419 44.3088 98.5132C43.1537 99.1009 42.511 99.3294 42.3809 99.1988C44.2681 97.8277 45.3582 96.9625 45.651 96.6034L46.2123 95.8444C46.375 95.5343 46.4808 95.1507 46.5296 94.6936C46.6435 95.0037 46.6842 95.3384 46.6516 95.6975L46.5296 96.6279L46.2367 97.3135Z" fill="#DBDCDC"/>
<path d="M30.6419 104.071C30.9673 103.794 31.431 103.598 32.0329 103.484C32.6675 103.369 33.2206 103.5 33.6924 103.875C34.0178 104.137 34.2456 104.463 34.3758 104.855L35.6448 106.863C35.8237 107.059 36.1491 107.238 36.6209 107.401L37.3775 107.622L37.0358 108.332C36.6779 109.066 35.6366 109.385 33.9121 109.287L31.9353 109.017C31.252 108.805 30.707 108.397 30.3002 107.793C30.0237 107.385 29.8528 106.92 29.7878 106.397C29.7227 105.891 29.7796 105.451 29.9586 105.075L30.0318 104.953C30.1945 104.577 30.3979 104.284 30.6419 104.071Z" fill="#0D131A"/>
<path d="M30.7144 104.169C30.5029 104.349 30.3077 104.618 30.1287 104.977L30.0555 105.124C29.8928 105.483 29.8359 105.908 29.8847 106.397C29.9497 106.903 30.1124 107.352 30.3728 107.744C30.7795 108.315 31.3083 108.699 31.959 108.895L33.9114 109.164C35.6034 109.262 36.604 108.968 36.9131 108.283L37.2304 107.695L36.5958 107.499C36.0752 107.32 35.7254 107.132 35.5465 106.936C35.3187 106.675 34.9038 106.022 34.3018 104.977L34.2774 104.953L34.2042 104.83C34.0741 104.455 33.8544 104.145 33.5453 103.9C33.1223 103.573 32.6179 103.467 32.0322 103.582C31.4628 103.696 31.0235 103.892 30.7144 104.169ZM30.2019 107.866C29.8277 107.311 29.6406 106.707 29.6406 106.055C29.6406 105.663 29.7138 105.32 29.8603 105.026L29.9335 104.904C30.1287 104.496 30.3402 104.194 30.568 103.998C30.9096 103.688 31.3896 103.475 32.0078 103.361C32.6261 103.247 33.163 103.361 33.6185 103.704C33.9602 103.949 34.2205 104.283 34.3995 104.708L35.7173 106.789C35.88 106.985 36.1972 107.148 36.6691 107.279L37.4012 107.524L37.4744 107.573L37.4988 107.622L37.1327 108.381C36.7585 109.148 35.6848 109.482 33.9114 109.384L31.9102 109.115C31.1944 108.887 30.6249 108.47 30.2019 107.866Z" fill="#0D131A"/>
<path d="M30.5938 105.369L30.9842 104.757C31.2283 104.528 31.5943 104.373 32.0824 104.292C32.5868 104.194 32.9854 104.324 33.2782 104.683C33.4409 104.847 33.5467 105.026 33.5955 105.222L34.1324 106.128L34.9621 107.352C35.2224 107.646 35.6454 107.883 36.2311 108.062C33.3026 108.487 31.4235 107.589 30.5938 105.369Z" fill="white"/>
<path d="M30.8134 107.45C30.6019 107.14 30.4718 106.789 30.423 106.397C30.3904 106.038 30.4311 105.736 30.545 105.491L30.5938 105.369C31.4235 107.589 33.3027 108.487 36.2312 108.062C36.1824 108.177 36.0359 108.283 35.7919 108.381L33.8152 108.601L32.1069 108.405C31.57 108.242 31.1388 107.924 30.8134 107.45Z" fill="#DBDCDC"/>
<path d="M36.2546 93.1511C36.7589 93.7224 36.9704 94.3835 36.8891 95.1343C36.8403 95.8036 36.6369 96.277 36.279 96.5545L35.2296 97.5339L34.1802 98.7091C33.985 99.0193 33.8711 99.5335 33.8385 100.252L33.6677 100.888L32.96 100.864C32.537 100.733 32.1302 100.48 31.7398 100.105C30.9588 99.3376 30.5684 98.3011 30.5684 96.9952C30.5684 95.7546 31.0971 94.4161 32.1546 92.9797C32.2848 92.8001 32.5532 92.6287 32.96 92.4655C33.3342 92.3349 33.684 92.2614 34.0094 92.2451C34.9205 92.1961 35.6689 92.4981 36.2546 93.1511Z" fill="#0D131A"/>
<path d="M31.9603 92.8573C32.123 92.6288 32.4321 92.4329 32.8877 92.2697L33.9858 92.0248C34.9946 91.9758 35.808 92.3023 36.4263 93.0042C36.9469 93.6082 37.1828 94.3264 37.134 95.1589C37.0527 95.8771 36.8167 96.4076 36.4263 96.7504L35.4013 97.6808C34.8481 98.2358 34.5065 98.6194 34.3763 98.8316C34.1974 99.0928 34.0916 99.5825 34.0591 100.301L33.8882 100.937L33.815 101.06L32.9609 101.084H32.9121C32.5053 101.003 32.066 100.725 31.5942 100.252C30.7645 99.4519 30.3496 98.3664 30.3496 96.9953C30.3496 95.7384 30.8865 94.359 31.9603 92.8573ZM35.084 97.387L36.1334 96.3831C36.4425 96.1546 36.6215 95.7302 36.6703 95.1099L36.6947 94.914C36.6947 94.3264 36.4914 93.7877 36.0846 93.298C35.5803 92.7267 34.8888 92.4492 34.0103 92.4655L33.0585 92.6859L32.3264 93.1266C31.3014 94.5304 30.7889 95.82 30.7889 96.9953C30.7889 98.2032 31.1387 99.1663 31.8383 99.8845C32.2125 100.276 32.6029 100.529 33.0097 100.644L33.4978 100.668L33.6198 100.227C33.6198 99.5254 33.7418 98.9785 33.9858 98.5868C34.1323 98.3582 34.4983 97.9583 35.084 97.387Z" fill="#0D131A"/>
<path d="M35.2778 95.6975L33.7891 97.0442C33.1383 97.8767 32.9838 98.8642 33.3254 100.007V100.129C33.0163 100.031 32.699 99.8273 32.3736 99.5172C31.7391 98.8805 31.4219 98.0072 31.4219 96.8973C31.4219 96.2443 31.5927 95.5261 31.9344 94.7426C32.1947 94.155 32.4875 93.6489 32.8129 93.2245C33.0244 92.9634 33.48 92.8328 34.1796 92.8328C34.9605 92.8491 35.5381 93.0776 35.9123 93.5183L36.1563 93.8366C35.9936 94.6528 35.7008 95.2731 35.2778 95.6975Z" fill="white"/>
<path d="M36.0357 95.9424C34.8643 96.8238 34.1078 97.5176 33.7661 98.0236C33.5383 98.399 33.3919 99.0601 33.3268 100.007C32.9852 98.8642 33.1397 97.8767 33.7905 97.0442L35.2792 95.6975C35.7022 95.2731 35.995 94.6528 36.1577 93.8367C36.3855 94.2448 36.4587 94.6855 36.3774 95.1589C36.3123 95.5506 36.1984 95.8118 36.0357 95.9424Z" fill="#DBDCDC"/>
<path d="M35.9629 101.525C35.9629 100.415 36.3778 99.4111 37.2075 98.5133C38.0535 97.6155 39.0134 97.1503 40.0872 97.1177C38.867 98.7174 38.3789 100.064 38.623 101.158C38.7857 101.892 39.4446 102.513 40.5997 103.019C41.5596 103.443 42.5032 103.671 43.4306 103.704L42.3568 104.928C41.9338 105.287 41.4376 105.467 40.8682 105.467C39.6805 105.467 38.5823 105.092 37.5736 104.341C36.4998 103.525 35.9629 102.586 35.9629 101.525Z" fill="#D18200"/>
<path d="M39.5485 97.8766C40.3294 96.6361 40.785 96.0811 40.9151 96.2116L39.9146 97.9501C39.2475 99.2396 38.9953 100.268 39.158 101.035C39.3045 101.623 39.8902 102.17 40.9151 102.676C41.875 103.149 42.7617 103.386 43.5752 103.386C44.1446 103.386 44.7547 103.247 45.4055 102.969L46.2109 102.602C45.4787 103.337 44.5839 103.704 43.5264 103.704C42.6153 103.704 41.6554 103.484 40.6467 103.043C39.459 102.537 38.7838 101.908 38.6211 101.158C38.4259 100.292 38.735 99.1988 39.5485 97.8766Z" fill="#0D131A"/>
<path d="M66.7355 123.586L68.0777 122.949L83.8917 159.236L81.915 159.481C80.7273 159.628 79.7105 159.832 78.8644 160.093C78.4902 160.223 77.7906 160.672 76.7657 161.44L75.1794 162.492C75.6675 163.178 76.0498 164.141 76.3264 165.382C76.5867 166.541 76.6518 167.332 76.5216 167.757C76.3589 168.328 76.0579 168.826 75.6187 169.25C75.2119 169.642 74.7645 169.911 74.2764 170.058C72.438 170.45 70.9737 170.874 69.8837 171.331C69.1841 171.609 68.1347 172.213 66.7355 173.143L64.71 174.588L63.9046 175.371C63.4979 175.649 63.0017 175.837 62.416 175.935C61.9279 176.016 61.1144 175.877 59.9755 175.518L58.1696 175.935L56.2417 176.424C55.3794 176.718 54.631 177.012 53.9965 177.306L53.0447 177.771C52.5566 177.999 52.1987 178.089 51.9709 178.04C51.6293 177.959 51.4991 177.608 51.5805 176.987C51.6618 176.4 51.8814 175.706 52.2394 174.906L52.7519 173.878L48.3103 174.098C47.7571 174.196 47.2284 174.343 46.724 174.539L45.6502 175.004L44.7473 175.078C44.5846 174.98 44.5276 174.808 44.5764 174.563C44.6415 174.041 44.8042 173.478 45.0645 172.874C45.5689 171.65 46.3661 170.532 47.4561 169.52L45.5526 169.471C44.6415 169.487 43.9094 169.617 43.3562 169.862C42.5265 170.254 42.2824 169.895 42.6241 168.785C42.9007 167.887 43.7385 166.892 45.1377 165.798C45.9187 165.21 46.7647 164.696 47.6758 164.255C48.4404 163.88 49.0831 163.635 49.6037 163.521L49.8478 163.472L50.4091 163.423L53.4352 161.513C54.2812 160.925 55.1028 160.215 55.9 159.383L57.0226 158.012L57.2667 156.885L55.8268 155.808C55.0621 155.204 54.4602 154.608 54.0209 154.021C52.3289 151.735 51.3527 149.728 51.0924 147.997C50.6206 144.749 51.7187 140.84 54.3869 136.269C56.1766 133.184 58.9994 130.017 62.8552 126.769C65.9464 124.418 67.2399 123.357 66.7355 123.586Z" fill="#0D131A"/>
<path d="M63.3672 127.577C64.3271 126.777 65.2708 126.1 66.1981 125.545L67.3207 124.932L81.7192 158.012C80.4665 158.159 79.3683 158.379 78.4247 158.673C77.9203 158.836 77.2777 159.252 76.4967 159.921C75.6182 160.672 74.943 161.162 74.4712 161.391C74.1946 161.537 73.7634 161.807 73.1777 162.199L72.3968 162.737L73.0801 162.835C73.5519 162.9 73.8692 162.982 74.0319 163.08C74.2271 163.211 74.4305 163.635 74.642 164.353L75.0813 166.385C74.7559 166.908 74.0238 167.406 72.8849 167.879C72.0714 168.206 71.2091 168.475 70.298 168.687C69.452 168.883 68.5409 169.169 67.5648 169.544C66.4096 169.968 65.5229 170.393 64.9047 170.817L63.0744 171.968C62.4887 172.294 61.968 172.482 61.5125 172.531L60.2923 174.368C58.8606 173.894 57.2255 173.184 55.387 172.237C53.4184 171.209 51.9135 170.254 50.8722 169.373C49.6845 168.377 49.0012 167.438 48.8223 166.557L48.9199 165.528L54.4353 162.076C55.3952 161.407 56.2737 160.623 57.0709 159.726C57.6892 159.024 58.0796 158.477 58.2423 158.085L58.3399 157.399L59.2917 157.693L61.8786 157.889L60.5363 157.595L59.4869 157.204C59.2266 157.122 58.8931 156.959 58.4864 156.714L57.9251 156.347C57.3719 155.988 56.5747 155.106 55.5334 153.702C54.2319 151.988 53.4428 150.07 53.1662 147.948C52.6944 144.569 53.5323 140.913 55.6799 136.979C57.7461 133.208 60.3086 130.074 63.3672 127.577Z" fill="#F29600"/>
<path d="M72.8856 167.879C74.0244 167.406 74.7566 166.908 75.082 166.385C75.1633 167.071 75.1796 167.487 75.1308 167.634C74.9355 168.14 74.5613 168.548 74.0082 168.858L72.6415 169.373L69.713 170.279C69.3714 170.344 68.5172 170.793 67.1506 171.625L64.6369 173.192L63.6364 174.049C63.2133 174.408 62.709 174.637 62.1233 174.735C61.7979 174.784 61.1878 174.661 60.293 174.368L61.5132 172.531C61.9687 172.482 62.4894 172.295 63.0751 171.968L64.9054 170.817C65.5236 170.393 66.4103 169.968 67.5654 169.544C68.5416 169.169 69.4527 168.883 70.2987 168.687C71.2098 168.475 72.0721 168.206 72.8856 167.879Z" fill="#D18200"/>
<path d="M59.7311 158.648C59.4057 158.436 59.2674 158.297 59.3162 158.232L59.8043 158.379L60.8293 158.722L62.1715 158.844L62.928 158.942L62.1959 159.138L60.8537 159.089C60.4795 159.024 60.1053 158.877 59.7311 158.648Z" fill="#0D131A"/>
<path d="M67.2479 155.637C65.3769 152.878 64.4414 149.801 64.4414 146.406C64.4414 143.745 65.0352 141.248 66.2229 138.913C67.3781 136.661 68.9562 134.8 70.9574 133.331L81.7196 158.012C80.4669 158.159 79.3687 158.379 78.4251 158.673C77.9207 158.836 77.2781 159.252 76.4971 159.921C75.6186 160.672 74.9434 161.162 74.4716 161.391L74.4472 161.415C71.4861 160.272 69.0864 158.346 67.2479 155.637Z" fill="#D18200"/>
<path d="M50.3111 164.427C50.5389 164.361 50.7341 164.459 50.8968 164.721C51.0758 164.998 51.1978 165.414 51.2629 165.969C51.3442 166.769 51.2629 167.716 51.0188 168.809H45.7719C45.2188 168.842 44.5598 168.989 43.7952 169.25L42.819 169.642C42.7539 169.446 42.8109 169.16 42.9898 168.785C43.3315 168.05 44.0799 167.251 45.235 166.385C46.016 165.798 47.0409 165.316 48.31 164.941L50.3111 164.427Z" fill="white"/>
<path d="M47.9681 167.781C49.7741 167.651 50.7502 167.398 50.8967 167.022H50.9211L50.7502 168.467L45.7473 168.491C45.2267 168.508 44.641 168.622 43.9902 168.834C45.0152 168.263 46.3412 167.912 47.9681 167.781Z" fill="#DBDCDC"/>
<path d="M49.9199 164.182L50.2128 164.108L50.8717 164.206C51.2622 164.468 51.5062 165.047 51.6038 165.945V167.047L50.9205 167.022V166.018C50.8554 165.365 50.7171 164.949 50.5056 164.769C50.2128 164.574 49.4888 164.696 48.3336 165.137C47.1948 165.561 46.2267 166.067 45.4295 166.655C44.2093 167.569 43.4691 168.385 43.2088 169.103L43.9897 168.834L44.4778 169.397L42.9403 169.96H42.6719C42.558 169.911 42.4929 169.838 42.4766 169.74C42.4278 169.413 42.4929 169.063 42.6719 168.687C43.0298 167.887 43.8189 167.03 45.0391 166.116C46.1129 165.316 47.7398 164.672 49.9199 164.182Z" fill="#0D131A"/>
<path d="M45.7717 169.152L44.4783 169.397L43.9902 168.834C44.641 168.622 45.2267 168.508 45.7473 168.491L50.7502 168.467L50.921 167.022L51.6044 167.047L51.3603 168.883C51.3115 169.063 51.1976 169.152 51.0187 169.152H45.7717Z" fill="#0D131A"/>
<path d="M50.044 172.042C48.2218 172.531 46.782 173.217 45.7245 174.098L46.1393 174.245L45.0167 174.735C44.9842 174.408 45.0655 173.992 45.2608 173.486C45.6187 172.458 46.3264 171.47 47.384 170.523C48.1161 169.887 49.1492 169.152 50.4833 168.32L52.5821 167.096C52.8261 166.949 53.241 167.153 53.8267 167.708C54.4775 168.295 54.9086 168.956 55.1201 169.691L55.2421 170.156L54.2416 170.964C53.8023 171.225 53.4037 171.389 53.0457 171.454L50.044 172.042Z" fill="white"/>
<path d="M48.5536 173.437C48.0817 173.519 47.2764 173.788 46.1375 174.245L45.7227 174.098C46.7802 173.217 48.22 172.531 50.0422 172.041L53.0439 171.454C53.4019 171.389 53.8005 171.225 54.2398 170.964L55.2403 170.156C55.4518 171.119 55.4925 172.033 55.3624 172.898L48.5536 173.437Z" fill="#DBDCDC"/>
<path d="M45.4547 174.074L45.7231 174.049C47.0572 173.494 47.9846 173.176 48.5052 173.094L55.0456 172.58C55.1432 171.568 55.0618 170.638 54.8015 169.789C54.6226 169.169 54.2646 168.589 53.7277 168.05C53.2722 167.61 52.9387 167.389 52.7272 167.389L52.6051 167.463C50.2623 168.785 48.5947 169.887 47.6023 170.768C46.5122 171.731 45.8126 172.743 45.5035 173.804L45.4547 174.074ZM46.5041 174.465C45.6581 174.808 45.2106 175.004 45.1618 175.053L44.8446 175.029L44.6738 174.759C44.6575 174.384 44.747 173.919 44.9422 173.364C45.3164 172.286 46.0567 171.258 47.163 170.279C48.2042 169.332 49.9044 168.197 52.2635 166.875L52.4099 166.802C52.5726 166.704 52.8085 166.704 53.1176 166.802C53.5081 166.965 53.9392 167.316 54.4111 167.855C54.948 168.442 55.3303 169.063 55.5581 169.715C55.8672 170.597 55.9892 171.389 55.9241 172.09L55.7045 172.947C55.6719 173.111 55.5662 173.209 55.3872 173.241L48.6272 173.755C48.1717 173.821 47.464 174.057 46.5041 174.465Z" fill="#0D131A"/>
<path d="M57.3402 170.328C57.5355 170.164 58.0642 170.295 58.9265 170.719C59.8376 171.16 60.4721 171.642 60.8301 172.164L60.9277 172.335L60.5128 172.115C60.5128 172.703 60.2199 173.135 59.6342 173.413L56.7301 174.637C54.9568 175.437 53.7609 176.139 53.1427 176.743L53.3623 176.938L52.4838 177.33C52.3536 177.118 52.313 176.816 52.3618 176.424C52.4268 175.641 52.8661 174.833 53.6796 174C55.5831 171.993 56.8033 170.768 57.3402 170.328Z" fill="white"/>
<path d="M61.4156 174.172L56.6324 175.714C55.8352 175.975 54.7451 176.384 53.3622 176.939L53.1426 176.743C53.7608 176.139 54.9566 175.437 56.73 174.637L59.6341 173.413C60.2198 173.135 60.5127 172.703 60.5127 172.115L60.9275 172.335C61.3505 173.037 61.5132 173.649 61.4156 174.172Z" fill="#DBDCDC"/>
<path d="M60.5377 172.36C60.2448 171.919 59.7079 171.495 58.927 171.087C58.2437 170.727 57.7719 170.564 57.5116 170.597L53.8997 174.245C53.1513 175.012 52.7446 175.747 52.6795 176.449C52.647 176.726 52.7853 176.808 53.0944 176.694L56.511 175.396L59.2931 174.539L60.977 173.902C61.1397 173.511 60.9932 172.996 60.5377 172.36ZM57.1211 170.058C57.2512 169.96 57.4627 169.919 57.7556 169.936C58.2437 170.001 58.8294 170.23 59.5127 170.621C60.2448 171.046 60.7736 171.495 61.099 171.968C61.5383 172.621 61.7823 173.225 61.8311 173.78C61.8799 174.155 61.8311 174.433 61.6847 174.612C61.6359 174.694 61.4569 174.759 61.1478 174.808L59.4883 175.2L56.7306 176.032C55.8033 176.343 54.8434 176.702 53.8509 177.11L52.6307 177.624C52.4517 177.706 52.3053 177.665 52.1914 177.502C52.045 177.224 51.9881 176.865 52.0206 176.424C52.0694 175.559 52.5412 174.67 53.436 173.755C55.486 171.633 56.7143 170.401 57.1211 170.058Z" fill="#0D131A"/>
<path d="M94.4338 57.5744C94.7754 57.656 95.052 57.8356 95.2635 58.1131C95.475 58.3906 95.5727 58.7089 95.5564 59.068L95.2635 66.9766C95.1171 72.5429 95.1334 76.183 95.3123 77.8969C95.5401 79.9536 96.1909 82.6633 97.2647 86.0259C98.4198 89.617 99.6644 92.6205 100.999 95.0363C101.682 96.2606 103.154 98.6275 105.416 102.137L111.248 111.441C113.396 115.049 114.893 117.922 115.739 120.06C117.772 125.234 119.212 129.495 120.058 132.841C121.604 138.881 122.068 144.21 121.449 148.83C120.766 153.857 118.684 157.791 115.202 160.631C111.785 163.439 107.254 164.973 101.609 165.235C94.8405 165.545 88.6906 164.525 83.159 162.174C75.8865 159.105 70.1108 153.898 65.832 146.553C61.8947 139.778 60.8291 132.172 62.635 123.733C63.9528 117.579 66.8488 110.903 71.3229 103.704C75.2927 97.289 77.7006 88.4581 78.5466 77.2113C78.8069 73.5223 78.392 68.764 77.302 62.9366L75.5693 55.1994C75.5367 54.9872 75.6669 54.7668 75.9597 54.5383L76.7163 53.9996C77.1067 53.6242 77.5704 53.5018 78.1073 53.6323L94.4338 57.5744Z" fill="#0D131A"/>
<path d="M68.7617 148.438C74.4886 153.237 80.5653 156.249 86.9917 157.473C93.4345 158.697 99.023 157.873 103.757 155C104.701 157.71 105.873 159.652 107.272 160.827C107.922 161.399 108.768 161.921 109.81 162.394C107.418 163.39 104.685 163.961 101.61 164.108C95.6064 164.37 90.1317 163.57 85.1858 161.709C78.4502 159.162 72.9755 154.739 68.7617 148.438Z" fill="#DDD583"/>
<path d="M64.8808 120.795C66.345 116.616 68.2079 113.278 70.4694 110.78C73.6094 107.32 77.3026 105.744 81.5489 106.055C86.6413 106.446 91.1642 110.38 95.1177 117.856C98.6482 124.533 100.641 131.576 101.097 138.987C101.52 145.843 102.406 151.18 103.757 155C99.0224 157.873 93.4338 158.697 86.9911 157.473C80.5646 156.249 74.4879 153.237 68.7611 148.438L67.3944 146.259C63.083 138.864 62.2451 130.376 64.8808 120.795Z" fill="#FFF697"/>
<path d="M102.219 107.915C102.219 106.006 102.813 104.259 104 102.676C108.328 109.401 111.273 114.29 112.835 117.342H112.737C109.825 117.342 107.344 116.42 105.294 114.575C103.244 112.747 102.219 110.527 102.219 107.915Z" fill="#D18200"/>
<path d="M94.0685 59.0435L94.0441 60.1943L93.9465 69.6455C93.9465 72.8938 94.0034 75.3668 94.1173 77.0644L94.1905 77.8969C94.4346 80.2475 95.0609 83.1285 96.0696 86.5401C97.176 90.2944 98.3881 93.3632 99.7059 95.7464L107.027 107.426C110.802 113.4 113.242 117.791 114.348 120.599C116.398 125.822 117.855 130.14 118.717 133.551C120.149 139.248 120.572 144.276 119.986 148.634C119.563 151.784 118.554 154.494 116.96 156.763C115.447 158.934 113.437 160.64 110.932 161.88C109.647 161.391 108.613 160.811 107.833 160.142C106.271 158.803 105.067 156.494 104.221 153.213C103.44 150.095 102.87 145.63 102.512 139.819C102.301 136.261 101.699 132.49 100.706 128.507C99.6489 124.263 98.3392 120.615 96.7774 117.562C95.0691 114.216 93.0842 111.425 90.8227 109.189C87.9267 106.332 84.9169 104.79 81.7931 104.561C76.3428 104.153 71.6084 107.058 67.5898 113.278C68.8751 110.388 70.4207 107.483 72.2267 104.561C76.3591 97.9337 78.8402 89.0457 79.67 77.8969C79.8164 75.7096 79.67 72.7469 79.2307 69.0089C78.7589 65.075 78.1325 61.843 77.3516 59.3128L77.7664 55.1994V55.1014L94.0685 59.0435Z" fill="#F29600"/>
<path d="M94.0685 59.0435L94.0441 60.1943L93.9465 69.6455C93.9465 72.8938 94.0034 75.3668 94.1173 77.0644L94.1905 77.8969L94.6786 81.031C91.7175 81.8308 88.8297 81.2432 86.0151 79.2681C83.6723 77.6194 81.5003 75.0893 79.4991 71.6777C79.0924 66.7644 78.3765 62.6428 77.3516 59.3128L77.7664 55.1994V55.1014L94.0685 59.0435Z" fill="#D18200"/>
<path d="M121.108 127.797C123.629 130.686 125.72 133.804 127.379 137.15C129.592 141.574 130.698 146.267 130.698 151.229C130.698 153.792 130.105 156.559 128.917 159.53C128.331 161.031 127.737 162.296 127.135 163.325C127.005 164.108 126.94 164.9 126.94 165.7C129.104 167.365 130.528 168.638 131.211 169.519L132.334 170.891L133.163 171.87C133.912 172.311 134.4 172.784 134.628 173.29C134.839 173.796 134.929 174.4 134.896 175.102L136.433 177.918C137.003 179.191 137.231 180.407 137.117 181.566C137.052 182.186 136.905 182.692 136.678 183.084C136.385 183.737 136.076 184.08 135.75 184.113L135.213 183.721L134.896 183.305C134.083 182.456 133.513 181.95 133.188 181.786L131.626 181.199L129.747 180.538L127.941 180.636V181.762C127.908 182.643 127.786 183.378 127.575 183.966C127.331 184.667 127.022 185.271 126.647 185.777C126.273 186.3 125.972 186.528 125.744 186.463C125.631 186.447 125.378 186.128 124.988 185.508C124.679 185.018 124.337 184.594 123.963 184.235L121.962 182.913L119.985 181.811L118.936 181.444L117.423 181.468C117.162 182.513 116.633 183.721 115.836 185.092C115.413 185.908 115.104 186.308 114.909 186.292C114.795 186.275 114.592 186.071 114.299 185.68L113.908 185.116C113.371 184.235 112.94 183.623 112.615 183.28L111.151 181.982L109.442 180.489L108.32 180.097L107.539 179.509C107.262 179.265 107.067 178.971 106.953 178.628C106.872 178.383 106.815 178.04 106.782 177.6C106.652 174.825 107.612 171.756 109.662 168.393L109.516 166.483C107.238 165.357 105.074 163.529 103.024 160.999C101.299 158.877 100.209 156.151 99.7538 152.821L99.5586 148.438C99.6562 145.777 100.616 143.133 102.438 140.505C103.512 138.938 104.716 137.591 106.05 136.465L116.373 123.659L115.983 121.235L117.154 123.61L121.108 127.797Z" fill="#0D131A"/>
<path d="M124.159 85.1934L124.257 84.6548C124.371 83.5774 124.794 82.7204 125.526 82.0838L125.673 81.9614C126.128 81.5044 126.714 81.1616 127.43 80.933C128.422 80.6066 129.301 80.6719 130.065 81.1289C131.025 81.6839 131.782 82.6225 132.335 83.9447C132.937 85.3975 132.937 86.5809 132.335 87.495L131.652 88.7927C131.375 89.364 131.22 89.7476 131.188 89.9435C131.237 90.1394 131.448 90.474 131.822 90.9474L132.701 91.9757L134.922 91.5595C135.833 91.4942 136.492 91.7717 136.898 92.392C137.11 92.7185 137.289 93.755 137.435 95.5016C137.582 97.2645 137.557 98.3418 137.362 98.7336C137.232 98.9948 137.012 99.2396 136.703 99.4681L135.556 100.227L134.556 100.619C134.116 100.766 133.856 100.896 133.775 101.011C133.238 101.598 132.449 102.765 131.408 104.512C131.147 104.953 130.692 105.296 130.041 105.54L128.528 105.883C127.291 110.878 126.185 114.437 125.209 116.559C124.444 118.24 123.549 119.415 122.524 120.084C121.613 120.672 120.491 120.982 119.157 121.015C117.969 121.048 117.033 120.876 116.35 120.501C116.139 120.386 115.154 119.399 113.397 117.538L110.298 114.33L108.614 113.106L106.857 111.955C106.19 111.498 105.393 111.058 104.465 110.633L103.269 110.144L102.342 110.07L101.293 110.266L100.731 110.437L101.805 109.678C100.829 109.548 100.333 109.401 100.316 109.238C100.3 109.14 100.422 109.074 100.683 109.042H101.097L93.8249 97.7787C93.2718 98.0398 92.9545 98.0398 92.8732 97.7787C92.8244 97.6154 92.8325 97.4767 92.8976 97.3624L93.2148 97.0196C93.3938 96.8727 94.1178 96.4483 95.3868 95.7464C96.5419 95.1261 97.8679 94.6609 99.3647 94.3508C100.992 94.0243 102.236 94.0162 103.099 94.3263C104.66 94.8976 105.759 95.7056 106.393 96.7503C106.995 97.7787 107.304 99.3131 107.321 101.353L108.565 102.039C109.102 102.349 109.517 102.659 109.81 102.969L110.225 103.435L112.348 105.834C113.356 106.961 114.113 107.703 114.617 108.062C115.301 108.552 116.114 108.813 117.058 108.846L118.961 108.699L119.376 105.932C119.523 104.414 119.539 103.394 119.425 102.872L118.01 101.672C117.277 101.411 116.789 101.174 116.545 100.962C116.057 100.472 115.838 99.6803 115.886 98.5867L115.911 97.4114L115.496 97.0441C114.357 96.0974 113.592 95.3302 113.202 94.7425C112.6 93.8611 112.429 92.8409 112.689 91.6819C112.933 90.6209 113.356 89.9598 113.958 89.6986C114.43 89.5028 114.658 89.4212 114.642 89.4538L117.033 88.254C117.44 88.1071 117.831 88.1398 118.205 88.352L118.961 89.0376C119.417 89.4946 119.685 89.7313 119.767 89.7476L121.451 89.968L122.988 87.4705C123.671 86.2789 124.062 85.5199 124.159 85.1934Z" fill="#0D131A"/>
<path d="M125.501 85.4628L125.696 84.0917C125.794 83.5367 125.948 83.1694 126.16 82.9899L127.429 82.0349C128.193 81.7411 129.096 81.8799 130.138 82.4512L131.016 84.0917C131.521 85.2996 131.586 86.1892 131.211 86.7605C130.967 87.1196 130.707 87.7154 130.431 88.5479C130.138 89.3967 130.016 89.9517 130.064 90.2129C130.162 90.8169 130.593 91.4698 131.358 92.1717L132.481 93.0287L133.823 92.6369C134.783 92.4737 135.433 92.6451 135.775 93.1511C136.133 93.6734 136.328 94.5957 136.361 95.9179C136.393 97.0768 136.328 97.8114 136.166 98.1215L134.775 99.1254C133.847 99.6804 133.253 100.097 132.993 100.374L131.431 102.235C130.748 103.084 130.349 103.622 130.235 103.851C129.975 104.292 129.422 104.626 128.576 104.855L127.38 105.051L127.014 107.352C126.64 109.262 126.111 111.107 125.428 112.886C124.63 114.943 123.996 116.33 123.524 117.048C123.117 117.652 122.515 118.216 121.718 118.738C121.019 119.195 120.14 119.464 119.083 119.546C118.106 119.627 117.391 119.538 116.935 119.277C116.675 119.146 116.097 118.534 115.202 117.44C114.259 116.281 113.535 115.514 113.03 115.139L110.541 113.106C109.353 112.111 108.385 111.36 107.637 110.854C106.645 110.168 104.79 109.605 102.073 109.164L100.926 109.017H100.486L93.5801 97.9257L96.9723 96.4076C99.4452 95.4772 101.194 95.1915 102.219 95.5506C103.423 95.9913 104.302 96.4729 104.855 96.9952C105.359 97.4523 105.733 98.0807 105.977 98.8806C106.27 99.8763 106.368 100.954 106.27 102.113L107.295 102.7C108.06 103.174 108.646 103.631 109.052 104.071L111.2 106.397C112.274 107.491 113.136 108.275 113.787 108.748C115.202 109.76 116.805 110.193 118.594 110.046C118.464 110.503 118.115 110.911 117.545 111.27L116.325 112.127L115.324 112.715C115.064 112.927 114.926 113.229 114.909 113.62C114.893 114.061 115.072 114.739 115.446 115.653C115.821 116.551 116.073 116.975 116.203 116.926L115.934 116.069C115.642 115.318 115.52 114.551 115.568 113.767C115.568 113.604 115.674 113.441 115.886 113.278C116.016 113.196 116.333 113.008 116.837 112.715L117.911 112.102C118.513 111.711 119.058 111.123 119.546 110.34L119.741 109.899L120.083 108.626L120.693 105.81C120.84 104.928 120.864 104.08 120.766 103.263L120.547 102.308C119.489 101.28 118.79 100.692 118.448 100.546L117.643 100.129C117.366 99.8355 117.228 99.3213 117.228 98.5868L117.252 97.3135L117.155 96.7749L115.788 95.7465C114.861 95.1099 114.251 94.5875 113.958 94.1795C113.242 93.1837 113.087 92.286 113.494 91.4861L114.299 90.5802L117.472 89.5273L118.155 90.1394C118.611 90.6291 119.001 90.9311 119.327 91.0454L120.962 91.3147L122.182 91.1923C122.393 91.078 122.979 90.1966 123.939 88.5479C124.915 86.8993 125.436 85.8709 125.501 85.4628Z" fill="#F29600"/>
<path d="M120.522 93.9591C120.457 94.612 120.107 95.0364 119.473 95.2323C118.887 95.4119 118.415 95.3466 118.057 95.0364C117.374 94.4488 116.78 94.0489 116.276 93.8367L115.495 93.7143L114.909 93.6408C114.34 93.5429 113.941 93.0776 113.713 92.2452C113.567 91.6738 113.551 91.1025 113.665 90.5312C113.827 89.8456 114.169 89.2662 114.69 88.7928C115.308 88.2378 116.056 88.0011 116.935 88.0827C117.732 88.1643 118.269 88.401 118.545 88.7928L118.692 88.9397C119.717 89.9681 120.294 90.8822 120.425 91.682C120.571 92.5961 120.604 93.3551 120.522 93.9591Z" fill="#0D131A"/>
<path d="M120.328 93.249L120.206 91.731C120.076 91.0127 119.523 90.1395 118.547 89.1111L118.376 88.9397C118.116 88.6132 117.627 88.4092 116.912 88.3276C116.131 88.2296 115.439 88.4418 114.837 88.9642C114.154 89.5845 113.812 90.3598 113.812 91.2902L113.934 92.1717C114.146 92.9226 114.479 93.3388 114.935 93.4204L115.521 93.4939L116.375 93.6163C116.879 93.8448 117.416 94.204 117.985 94.6937C118.327 94.9548 118.766 95.0446 119.303 94.963C119.889 94.8651 120.214 94.5631 120.279 94.057L120.328 93.249ZM120.645 91.6575C120.808 92.6369 120.751 93.5265 120.475 94.3264C120.165 95.1425 119.873 95.6241 119.596 95.771C119.319 95.9179 118.945 95.7792 118.473 95.3548C118.002 94.9303 117.237 94.4896 116.179 94.0326L114.862 93.8612C114.211 93.7632 113.755 93.2409 113.495 92.2941C113.332 91.6902 113.316 91.0862 113.446 90.4822C113.609 89.764 113.975 89.1519 114.544 88.6459C115.195 88.0419 116 87.7807 116.96 87.8624L118.034 88.1562L118.717 88.6459L118.864 88.7928C119.905 89.8375 120.499 90.7924 120.645 91.6575Z" fill="#0D131A"/>
<path d="M116.959 88.7193C117.48 88.8009 117.821 88.9397 117.984 89.1356L118.814 90.066C119.302 90.67 119.586 91.2005 119.668 91.6575C119.847 92.7675 119.839 93.6653 119.643 94.3509L119.277 95.0609L119.106 94.8895C118.846 94.155 118.179 93.396 117.105 92.6124L116.422 92.441C116.015 92.3757 115.674 92.2533 115.397 92.0738L114.348 90.9719C114.413 90.2537 114.697 89.6824 115.202 89.258C115.69 88.8173 116.276 88.6377 116.959 88.7193Z" fill="white"/>
<path d="M115.08 92.8083C114.885 92.7756 114.706 92.5798 114.543 92.2207C114.381 91.8289 114.315 91.4127 114.348 90.9719L115.397 92.0737C115.674 92.2533 116.016 92.3757 116.422 92.441L117.106 92.6124C118.179 93.3959 118.847 94.155 119.107 94.8895C118.147 93.9754 117.293 93.3551 116.544 93.0287L115.837 92.8818L115.08 92.8083Z" fill="#DBDCDC"/>
<path d="M129.382 81.1535C130.211 81.5289 130.748 82.1655 130.992 83.0633C131.155 83.6346 131.179 84.2549 131.065 84.9241C130.984 85.5118 130.846 85.928 130.651 86.1729C128.422 88.3276 126.957 89.4865 126.258 89.6497C125.932 89.6987 125.697 89.6334 125.55 89.4539C125.192 89.0131 124.94 88.0827 124.794 86.6626C124.631 85.1608 124.72 84.059 125.062 83.3571C126.054 81.0555 127.494 80.321 129.382 81.1535Z" fill="#0D131A"/>
<path d="M129.211 81.5207C128.251 81.0963 127.437 81.1371 126.77 81.6431C126.282 82.0022 125.835 82.6307 125.428 83.5285C125.119 84.1977 125.013 85.2669 125.111 86.736C125.192 88.1398 125.371 89.0131 125.647 89.3559L126.014 89.4048C126.388 89.3232 127.177 88.7682 128.381 87.7399L130.333 85.928L130.602 85.2424L130.724 84.1161L130.602 83.1612C130.406 82.394 129.943 81.8472 129.211 81.5207ZM124.842 83.1857C125.249 81.9777 125.875 81.1616 126.721 80.7372C127.551 80.3128 128.487 80.3291 129.528 80.7862C130.536 81.2269 131.163 82.0675 131.407 83.3081C131.635 84.4834 131.431 85.4709 130.797 86.2708C130.179 87.1522 129.292 88.0337 128.137 88.9151C126.916 89.8619 126.079 90.2455 125.623 90.0659C125.119 89.8701 124.761 89.0049 124.549 87.4705C124.321 85.8545 124.419 84.4262 124.842 83.1857Z" fill="#0D131A"/>
<path d="M125.672 83.406C126.063 82.5409 126.494 81.9451 126.966 81.6186L129.089 81.5452C129.544 81.7247 129.902 82.0512 130.163 82.5246C130.098 83.455 129.854 84.2548 129.431 84.9241C128.357 86.5401 127.169 87.9929 125.868 89.2824C125.607 89.3151 125.428 88.5234 125.331 86.9074C125.233 85.2587 125.347 84.0916 125.672 83.406Z" fill="white"/>
<path d="M128.161 87.4951C126.974 88.6051 126.217 89.2009 125.892 89.2825H125.867C127.169 87.993 128.356 86.5402 129.43 84.9242C129.853 84.2549 130.097 83.4551 130.162 82.5247C130.423 83.0307 130.512 83.651 130.431 84.3855C130.366 84.9405 130.26 85.3323 130.114 85.5608L128.161 87.4951Z" fill="#DBDCDC"/>
<path d="M129.942 95.722L131.114 93.4938C131.553 92.9878 132.106 92.7267 132.773 92.7103C133.44 92.7103 134.042 92.9878 134.579 93.5428C135.165 94.1305 135.384 94.8895 135.238 95.8199C135.092 96.5545 134.587 97.1339 133.725 97.5583L131.846 98.2194C130.723 98.5622 129.958 98.7091 129.552 98.6602L129.039 98.6112C128.909 98.2358 129.21 97.2727 129.942 95.722Z" fill="#0D131A"/>
<path d="M129.992 96.1872C129.358 97.591 129.065 98.3582 129.114 98.4888L129.87 98.4398L131.579 98.146C132.148 97.9991 132.84 97.7216 133.653 97.3135C134.45 96.9054 134.906 96.3912 135.02 95.771L135.044 95.2813C135.044 94.6447 134.841 94.1223 134.434 93.7142C133.913 93.1756 133.368 92.9226 132.799 92.9552C132.181 92.9552 131.684 93.1756 131.31 93.6163L129.992 96.1872ZM128.65 98.9295C128.471 98.7663 128.666 97.9583 129.236 96.5055C129.822 95.0038 130.391 93.9428 130.944 93.3225C131.448 92.7838 132.059 92.5063 132.774 92.49C133.507 92.49 134.165 92.792 134.751 93.3959C135.402 94.0489 135.638 94.865 135.459 95.8444C135.378 96.3178 135.182 96.7585 134.873 97.1666L133.921 97.9746C133.498 98.2031 132.571 98.4561 131.139 98.7336L128.65 98.9295Z" fill="#0D131A"/>
<path d="M134.702 94.6447C134.263 95.314 133.637 95.9587 132.823 96.579C131.815 97.3136 130.651 97.9012 129.334 98.3419C129.187 98.3256 129.504 97.5747 130.285 96.0893C131.034 94.6692 131.514 93.8367 131.725 93.5919C132.002 93.298 132.327 93.1266 132.701 93.0777C133.238 92.9961 133.743 93.2001 134.214 93.6898C134.491 93.9673 134.654 94.2856 134.702 94.6447Z" fill="white"/>
<path d="M133.749 97.0442L131.602 97.8032C130.381 98.195 129.625 98.3745 129.332 98.3419C130.65 97.9012 131.813 97.3135 132.822 96.579C133.635 95.9587 134.262 95.3139 134.701 94.6447C134.766 95.1344 134.668 95.6485 134.408 96.1872C134.197 96.6279 133.977 96.9136 133.749 97.0442Z" fill="#DBDCDC"/>
<path d="M125.575 96.2606C125.12 96.6361 124.68 97.085 124.257 97.6073C123.395 98.6683 123.021 99.5824 123.135 100.35C123.2 100.872 123.379 101.386 123.672 101.892C122.809 101.68 122.094 101.182 121.524 100.399C120.955 99.5987 120.67 98.6928 120.67 97.6808C120.67 96.4892 121.044 95.469 121.793 94.6201C122.525 93.7713 123.419 93.3469 124.477 93.3469C125.128 93.3469 125.738 93.5265 126.307 93.8856C126.86 94.2284 127.316 94.6936 127.674 95.2812C126.682 95.6077 125.982 95.9342 125.575 96.2606Z" fill="#D18200"/>
<path d="M125.574 96.2606C125.85 96.0484 126.33 95.8035 127.013 95.526C127.681 95.2485 128.03 95.1424 128.063 95.2077L127.209 95.6974L125.915 96.432C125.476 96.7748 124.996 97.3543 124.475 98.1704C123.873 99.1498 123.613 99.9415 123.695 100.545C123.841 101.606 124.451 102.61 125.525 103.557L127.038 104.708C126.957 104.92 126.355 104.569 125.232 103.655C124.012 102.659 123.312 101.558 123.133 100.35C123.019 99.5824 123.394 98.6683 124.256 97.6073C124.679 97.0849 125.118 96.636 125.574 96.2606Z" fill="#0D131A"/>
<path d="M114.738 121.578L115.153 122.582C115.495 123.349 115.845 123.969 116.203 124.443L119.351 127.626C121.384 129.927 123.28 132.849 125.037 136.391C126.989 140.309 128.21 143.925 128.698 147.238C129.056 149.768 128.999 152.339 128.527 154.951C128.218 156.747 127.73 158.575 127.063 160.436L126.086 163.129C125.973 163.7 125.907 164.329 125.891 165.014C125.859 165.716 125.899 166.116 126.013 166.214L127.624 167.512C128.779 168.491 129.568 169.266 129.991 169.838L132.334 172.8L132.895 173.094C133.302 173.323 133.538 173.527 133.603 173.706C133.831 174.261 133.798 174.98 133.505 175.861C133.147 176.889 132.529 177.64 131.651 178.114L129.625 179.191C129.527 178.212 129.348 177.795 129.088 177.942C128.226 178.465 127.396 178.579 126.599 178.285V180.097L123.158 180.44L121.425 180.513C120.742 178.946 120.181 178.35 119.741 178.726C119.318 179.101 118.765 179.216 118.082 179.069C117.48 178.938 117.016 178.677 116.691 178.285L116.618 180.489C114.291 180.407 112.404 180.162 110.956 179.754L110.272 177.82C109.784 177.559 109.361 177.142 109.003 176.571C108.645 175.984 108.41 175.339 108.296 174.637C108.637 172.743 109.418 170.842 110.638 168.932C110.736 168.752 110.769 168.034 110.736 166.777L111.712 166.973L113.933 167.071L115.08 166.9L113.957 166.704L111.908 166.361L110.712 166.018V165.994C110.337 165.912 109.801 165.635 109.101 165.161C107.686 164.198 106.164 162.713 104.537 160.705C102.862 158.632 101.78 156.257 101.292 153.58C101.031 152.16 100.942 150.291 101.023 147.973C101.121 145.247 101.975 142.447 103.586 139.574L105.977 136.073L114.738 121.578Z" fill="#F29600"/>
<path d="M129.089 177.942C129.349 177.795 129.528 178.212 129.626 179.191C128.829 179.583 127.82 179.885 126.6 180.097V178.285C127.397 178.579 128.227 178.465 129.089 177.942Z" fill="#D18200"/>
<path d="M119.741 178.726C120.18 178.35 120.742 178.946 121.425 180.513C119.765 180.562 118.163 180.554 116.617 180.489L116.69 178.285C117.016 178.677 117.479 178.938 118.081 179.069C118.765 179.216 119.318 179.101 119.741 178.726Z" fill="#D18200"/>
<path d="M108.297 174.637C108.411 175.339 108.647 175.984 109.005 176.571C109.362 177.142 109.785 177.559 110.274 177.82L110.957 179.754C109.086 179.265 108.126 178.538 108.077 177.575C108.028 176.645 108.102 175.665 108.297 174.637Z" fill="#D18200"/>
<path d="M129.65 177.6L129.553 177.649C129.943 176.669 130.439 175.91 131.041 175.372C131.692 174.8 132.164 174.441 132.457 174.294C132.782 174.115 133.034 174.139 133.213 174.368L134.287 176.057L135.532 178.359C136.036 179.501 136.24 180.57 136.142 181.566C136.093 182.072 135.995 182.456 135.849 182.717C135.751 182.031 135.263 181.297 134.385 180.513C133.669 179.877 133.067 179.469 132.579 179.289C131.977 179.093 131.416 178.873 130.895 178.628C130.114 178.236 129.699 177.893 129.65 177.6Z" fill="white"/>
<path d="M129.308 179.118C129.096 179.036 129.178 178.546 129.552 177.649L129.65 177.6C129.698 177.893 130.113 178.236 130.894 178.628C131.415 178.873 131.976 179.093 132.578 179.289C133.066 179.469 133.668 179.877 134.384 180.513C135.263 181.297 135.751 182.031 135.848 182.717C134.905 181.738 134.213 181.134 133.774 180.905L131.431 179.95L129.308 179.118Z" fill="#DBDCDC"/>
<path d="M124.085 174.882L125.672 177.085C126.615 178.554 127.087 179.722 127.087 180.587C127.087 182.137 126.916 183.37 126.575 184.284L126.062 185.165L125.842 184.847C125.891 183.884 125.379 182.913 124.305 181.933C123.557 181.231 122.824 180.734 122.109 180.44C120.986 179.95 120.352 179.33 120.205 178.579C120.596 177.469 121.035 176.645 121.523 176.106C122.044 175.551 122.589 175.159 123.158 174.931L124.085 174.882Z" fill="white"/>
<path d="M122.108 180.44C122.824 180.734 123.556 181.232 124.305 181.933C125.379 182.913 125.891 183.884 125.842 184.847L124.793 183.598C124.468 183.288 123.613 182.709 122.23 181.86C120.913 181.044 120.14 180.603 119.912 180.538C119.814 180.521 119.798 180.317 119.863 179.926C119.912 179.534 120.026 179.085 120.205 178.579C120.351 179.33 120.986 179.95 122.108 180.44Z" fill="#DBDCDC"/>
<path d="M111.518 175.812C111.876 175.371 112.25 175.02 112.641 174.759C113.096 174.482 113.405 174.441 113.568 174.637L115.13 176.522C116.008 177.632 116.497 178.359 116.594 178.701C116.855 179.583 116.659 180.856 116.008 182.521C115.683 183.353 115.325 184.096 114.935 184.749L114.788 184.504V184.382C114.739 183.566 114.447 182.782 113.91 182.031L112.543 180.44L111.396 179.264L110.42 178.163C110.81 177.004 111.176 176.22 111.518 175.812Z" fill="white"/>
<path d="M112.544 180.44L113.91 182.031C114.447 182.782 114.74 183.566 114.789 184.382V184.504C114.171 183.574 113.723 182.962 113.447 182.668L110.225 179.534C110.095 179.436 110.16 178.979 110.42 178.163L111.397 179.265L112.544 180.44Z" fill="#DBDCDC"/>
<path d="M129.846 177.33C129.488 178.097 129.333 178.636 129.382 178.946L129.48 179.093L130.065 179.314L133.726 180.783C134.133 181.011 134.792 181.591 135.703 182.521C135.849 182.293 135.947 181.909 135.996 181.37C136.093 180.44 135.898 179.444 135.41 178.383L134.238 176.179L133.189 174.563C133.108 174.449 133.01 174.392 132.896 174.392C132.62 174.359 132.026 174.735 131.115 175.518C130.659 175.926 130.236 176.53 129.846 177.33ZM129.748 180.17L129.138 179.926C128.796 179.811 128.585 179.542 128.503 179.118C128.422 178.612 128.601 177.893 129.04 176.963C129.48 176.033 129.976 175.322 130.529 174.833L131.847 173.804C132.27 173.56 132.652 173.453 132.994 173.486C133.352 173.535 133.661 173.715 133.921 174.025L134.995 175.714L136.215 178.016C136.785 179.256 137.004 180.44 136.874 181.566C136.809 182.137 136.679 182.603 136.484 182.962L136.191 183.5L135.849 183.721C135.703 183.753 135.581 183.704 135.483 183.574L135.068 183.158C134.157 182.244 133.563 181.721 133.287 181.591C132.896 181.362 131.717 180.889 129.748 180.17Z" fill="#0D131A"/>
<path d="M120.01 180.415L120.108 180.538C120.352 180.619 121.092 181.044 122.328 181.811C123.63 182.594 124.435 183.133 124.744 183.427L125.94 184.921C126.119 184.774 126.282 184.488 126.428 184.064C126.754 183.198 126.916 182.031 126.916 180.562C126.916 179.354 125.997 177.591 124.159 175.273L124.061 175.127L123.817 175.029C123.573 175.012 123.272 175.102 122.914 175.298C122.458 175.526 122.027 175.861 121.621 176.302C121.181 176.775 120.783 177.51 120.425 178.505C120.067 179.452 119.929 180.089 120.01 180.415ZM119.815 181.395C119.489 181.297 119.27 181.052 119.156 180.66C119.009 180.154 119.14 179.338 119.546 178.212C119.969 177.102 120.441 176.261 120.962 175.69C121.417 175.184 121.913 174.792 122.45 174.514C122.971 174.237 123.443 174.106 123.866 174.123C124.256 174.155 124.565 174.31 124.793 174.588L124.866 174.71C126.835 177.191 127.819 179.142 127.819 180.562C127.819 182.162 127.632 183.451 127.258 184.431C127.046 184.986 126.802 185.386 126.526 185.631L126.135 185.949L125.769 186.071L125.452 185.851L125.184 185.41C124.858 184.888 124.508 184.447 124.134 184.088C123.874 183.843 123.134 183.345 121.913 182.594C120.726 181.86 120.026 181.46 119.815 181.395Z" fill="#0D131A"/>
<path d="M113.786 175.151L113.566 174.882C113.485 174.8 113.396 174.759 113.298 174.759C113.07 174.759 112.794 174.89 112.468 175.151C112.143 175.396 111.858 175.682 111.614 176.008C111.354 176.318 111.053 176.922 110.711 177.82C110.353 178.767 110.239 179.346 110.369 179.558L111.809 180.905L113.444 182.521C113.786 182.897 114.258 183.558 114.86 184.504C115.38 183.623 115.803 182.701 116.129 181.738C116.552 180.448 116.658 179.452 116.446 178.75C116.316 178.293 115.429 177.094 113.786 175.151ZM110.906 175.445C111.118 175.151 111.411 174.849 111.785 174.539C112.338 174.082 112.842 173.853 113.298 173.853C113.672 173.853 113.989 174 114.25 174.294L114.469 174.563C116.194 176.588 117.138 177.893 117.3 178.481C117.593 179.46 117.439 180.783 116.837 182.448C116.495 183.345 116.096 184.186 115.641 184.97L115.275 185.606L114.884 185.851L114.518 185.631L114.103 184.994L112.785 183.133L109.784 180.219C109.312 179.811 109.336 178.922 109.857 177.551C110.247 176.555 110.597 175.853 110.906 175.445Z" fill="#0D131A"/>
<path d="M113.591 168.148L112.225 167.855C111.753 167.691 111.533 167.569 111.566 167.487L112.176 167.561L113.42 167.732L115.422 167.683C116.3 167.634 116.739 167.634 116.739 167.683L115.495 167.977L113.591 168.148Z" fill="#0D131A"/>
<path d="M91.0913 14.1137C92.2627 14.0321 93.2388 14.8646 94.0198 16.6112C94.2313 17.0683 94.4835 18.0721 94.7763 19.6229L95.3864 23.0507C95.5003 23.72 96.0616 26.2011 97.0703 30.4942C97.4282 32.0612 98.5752 34.3791 100.511 37.4479L101.902 39.8964L102.317 41.243C102.382 41.7654 102.114 42.9651 101.512 44.8423C101.821 45.8707 101.935 47.3398 101.854 49.2496L103.44 53.7793L104.294 55.983L105.295 57.9662C105.425 58.1784 105.661 58.2927 106.002 58.309C106.295 58.3417 106.58 58.6192 106.856 59.1415C107.393 60.1699 106.848 62.0879 105.221 64.8955L102.634 68.8131C102.846 70.2005 102.195 71.1146 100.682 71.5554L97.2411 71.9716C96.8669 72.0206 96.3219 72.241 95.6061 72.6327C94.9553 72.9755 94.2069 73.1469 93.3609 73.1469C92.3522 73.1469 91.1808 72.7715 89.8467 72.0206C88.6915 71.4003 87.9838 70.878 87.7235 70.4536L86.186 68.5437L84.0628 65.9728L81.2075 62.8387L78.5963 60.0964C78.2546 59.7047 77.8397 59.4353 77.3517 59.2884L76.7416 59.1905C75.6352 58.2111 74.6916 56.9379 73.9107 55.3708C73.2924 54.1139 72.9833 53.2243 72.9833 52.702C72.9833 52.3265 73.0728 51.5675 73.2517 50.4249C73.447 49.2006 73.6504 48.2131 73.8619 47.4622C74.3499 45.7319 74.594 44.2955 74.594 43.1529C74.594 42.1571 74.1628 40.4269 73.3006 37.9621C72.9264 36.8521 71.7305 34.6321 69.7131 31.3022L67.59 28.6823L65.1007 25.7686C64.5801 25.132 64.3442 24.3321 64.393 23.369C64.4418 22.5366 64.637 21.9979 64.9787 21.753C65.3204 21.5082 65.8979 21.3776 66.7114 21.3613C67.4761 21.3613 68.078 21.4511 68.5173 21.6306C68.8915 21.7775 69.6318 22.3896 70.7381 23.467L73.9839 26.7235C76.6683 29.4168 78.9786 31.4327 80.9147 32.7713C81.7282 33.3426 82.8752 33.465 84.3557 33.1385C85.5434 32.8937 86.7229 32.4285 87.8943 31.7429C88.7241 31.2532 89.2528 30.3228 89.4806 28.9516C89.5782 28.3313 89.627 27.156 89.627 25.4258L89.3586 20.8226C89.1959 18.619 89.1227 17.3294 89.1389 16.954C89.1715 16.2358 89.3179 15.64 89.5782 15.1666C89.9036 14.5137 90.408 14.1627 91.0913 14.1137Z" fill="#F29600"/>
<path d="M96.4856 62.7408L97.6326 63.1815L98.6088 63.3039L99.4629 63.2795L99.9266 63.157L100.195 63.206C100.244 63.3366 100.114 63.459 99.8046 63.5733L98.6332 63.7692C97.8848 63.7692 97.1201 63.5733 96.3392 63.1815C96.144 63.0836 95.8104 63.0101 95.3386 62.9612L94.4113 62.9367C94.216 62.9693 93.671 63.4345 92.7762 64.3323C92.4508 64.6588 92.2067 64.7078 92.044 64.4792C91.9302 64.3323 92.0847 64.0875 92.5077 63.7447L93.5327 62.9856C94.1021 62.6102 94.5902 62.4225 94.997 62.4225C95.42 62.4225 95.9162 62.5286 96.4856 62.7408Z" fill="#0D131A"/>
<path d="M96.5345 66.6584L95.4607 66.3646L94.6065 66.6095C94.2486 66.6584 94.0046 66.5931 93.8744 66.4136C93.8093 66.3156 93.9313 66.1524 94.2405 65.9239C94.5496 65.7117 94.8018 65.5974 94.997 65.5811C95.176 65.5648 95.4851 65.6627 95.9244 65.8749L96.7297 66.3401C96.8436 66.4381 96.8761 66.5278 96.8273 66.6095L96.5345 66.6584Z" fill="#0D131A"/>
<path d="M105.222 62.2511C105.303 62.3491 105.254 62.5123 105.075 62.7408L104.636 63.2305L103.806 64.5037C103.676 64.7323 103.53 64.8302 103.367 64.7975C103.188 64.7486 103.147 64.6343 103.245 64.4548C103.359 64.2262 103.652 63.7855 104.124 63.1326C104.237 62.9367 104.441 62.7327 104.734 62.5205C105.027 62.2919 105.189 62.2022 105.222 62.2511Z" fill="#0D131A"/>
<path d="M92.2627 47.4377L92.1895 47.1684C92.1895 47.0541 92.2301 46.9806 92.3115 46.948L92.7263 47.1439L93.0436 48.0253L93.3608 48.4661L93.5317 48.8578L93.3364 49.323C93.19 49.4536 93.068 49.5026 92.9704 49.4699C92.8565 49.421 92.7996 49.119 92.7996 48.564L92.5799 48.0009L92.2627 47.4377Z" fill="#0D131A"/>
<path d="M92.9703 49.7393C93.1167 49.8046 93.0679 50.3106 92.8238 51.2574L91.7012 54.4649L91.0667 55.3219C90.7088 55.681 90.481 55.8279 90.3834 55.7626C90.2207 55.6483 90.3102 55.33 90.6519 54.8077L90.9691 54.3914L91.2864 53.9017L91.8965 52.4326L92.4822 50.8901C92.7262 50.0576 92.8889 49.674 92.9703 49.7393Z" fill="#0D131A"/>
<path d="M98.656 47.3643L98.778 47.756L98.8024 48.4416L98.656 49.6169C98.656 50.4004 98.5258 50.7677 98.2655 50.7187C98.1028 50.686 98.0215 50.5636 98.0215 50.3514L98.0703 49.8128L98.3387 48.7109C98.4526 47.8295 98.5584 47.3806 98.656 47.3643Z" fill="#0D131A"/>
<path d="M87.5034 65.9728L87.5766 67.295C87.5604 67.5725 87.6824 67.7602 87.9427 67.8582C88.203 67.9561 88.4471 67.85 88.6748 67.5399L88.9677 67.9806C88.5935 68.454 88.1867 68.6906 87.7475 68.6906C87.4546 68.6906 87.235 68.3397 87.0886 67.6378C86.9421 66.9522 86.8933 66.1116 86.9421 65.1158L87.5034 65.9728Z" fill="#0D131A"/>
<path d="M87.8457 67.9561C87.5529 67.8255 87.439 67.1644 87.5041 65.9728L88.6755 67.5398L88.1874 67.9316L87.8457 67.9561Z" fill="white"/>
<path d="M101.487 46.2379L101.584 46.8745C101.682 47.6417 101.69 48.4579 101.609 49.323C101.592 49.6658 101.421 50.131 101.096 50.7187C100.689 51.4369 100.209 51.9266 99.6562 52.1878C99.6888 51.2084 99.8515 50.2616 100.144 49.3475C100.486 48.3028 100.933 47.2663 101.487 46.2379Z" fill="white"/>
<path d="M139.265 48.564C139.379 48.515 139.55 48.5885 139.777 48.7844L140.217 49.2496C141.958 51.5675 143.617 55.3953 145.195 60.733C146.838 66.2503 147.977 72.0042 148.612 77.9949C148.677 78.5172 148.669 78.9824 148.587 79.3905C148.522 79.766 148.417 79.9618 148.27 79.9782C147.977 80.0108 147.774 79.3742 147.66 78.0683C147.123 72.649 146.049 67.1807 144.439 61.6634C142.942 56.5216 141.331 52.4979 139.607 49.5924C139.232 48.9721 139.118 48.6293 139.265 48.564Z" fill="#0D131A"/>
<path d="M146.245 52.9713C146.359 52.9224 146.603 53.1509 146.977 53.6569L147.587 54.5873C151.394 65.1322 152.826 75.1791 151.882 84.7283L151.785 85.9525C151.703 86.6381 151.606 86.9809 151.492 86.9809C151.394 86.9809 151.288 86.6789 151.174 86.0749L151.028 84.9486C151.418 72.4777 149.938 62.3817 146.586 54.6608C146.131 53.6324 146.017 53.0693 146.245 52.9713Z" fill="#0D131A"/>
<path d="M44.1379 54.7587L44.4552 54.269C44.6016 54.0568 44.7236 53.967 44.8213 53.9997C44.9351 54.0323 44.9921 54.1956 44.9921 54.4894L44.8945 55.126C43.9508 57.7377 43.235 61.3125 42.7469 65.8504C42.21 70.6984 42.1042 75.1792 42.4296 79.2926V80.1986C42.3971 80.6556 42.3239 80.8841 42.21 80.8841C42.0961 80.8841 41.9822 80.6556 41.8683 80.1986L41.7219 79.3171C41.2176 75.073 41.2338 70.3393 41.7707 65.1158C42.2913 59.9577 43.0804 56.5053 44.1379 54.7587Z" fill="#0D131A"/>
<path d="M40.7685 60.4637C40.9149 59.974 41.0695 59.7536 41.2322 59.8026C41.346 59.8189 41.4193 59.9495 41.4518 60.1943V60.733C40.3292 65.124 39.4832 69.621 38.9137 74.2242C38.3118 79.1212 38.084 83.7243 38.2304 88.0337C38.2304 88.9804 38.1491 89.462 37.9864 89.4783C37.8725 89.4783 37.7911 89.2743 37.7423 88.8662L37.6935 88.0337C37.1241 83.806 37.1648 79.1702 37.8155 74.1263C38.3687 69.719 39.353 65.1648 40.7685 60.4637Z" fill="#0D131A"/>
<path d="M81.4513 47.1194C81.6628 47.0215 81.8987 47.0541 82.159 47.2174L87.1619 50.9391L87.5036 51.2329C87.7964 51.4124 88.0079 51.6818 88.1381 52.0409L88.4797 52.751L88.9922 53.9507L88.8946 54.2935L87.8208 54.3425L84.7703 53.7548L84.5019 53.6814L81.915 52.9958C81.2479 52.751 80.8737 52.4653 80.7924 52.1388C80.7111 51.7634 80.7029 51.0697 80.768 50.0576L81.012 47.805C81.0771 47.4459 81.2235 47.2174 81.4513 47.1194Z" fill="white"/>
<path d="M81.4513 47.1194C81.6628 47.0215 81.8987 47.0541 82.159 47.2174L87.1619 50.9391L87.5036 51.2329C87.7964 51.4124 88.0079 51.6818 88.1381 52.0409L88.4797 52.751L88.9922 53.9507L88.8946 54.2935L87.8208 54.3425L84.7703 53.7548L84.5019 53.6814L81.915 52.9958C81.2479 52.751 80.8737 52.4653 80.7924 52.1388C80.7111 51.7634 80.7029 51.0697 80.768 50.0576L81.012 47.805C81.0771 47.4459 81.2235 47.2174 81.4513 47.1194Z" fill="white"/>
<path d="M84.0878 48.5885L84.1366 48.6375L87.5044 51.2329C87.7973 51.4124 88.0088 51.6818 88.1389 52.0409L88.4806 52.7509L88.9931 53.9507L88.8955 54.2935L87.8217 54.3425L84.9908 53.8038C84.2912 52.6938 83.9414 51.4451 83.9414 50.0576C83.9414 49.5516 83.9902 49.0619 84.0878 48.5885Z" fill="#008086"/>
<path d="M99.9988 52.2858L99.3887 52.6041L99.4131 52.1633C99.4293 51.1513 99.592 50.1882 99.9012 49.2741L100.609 47.4377C100.837 48.0417 100.951 48.6702 100.951 49.3231C100.951 50.4494 100.633 51.437 99.9988 52.2858Z" fill="#008086"/>
<path d="M99.949 51.3552C99.8026 51.3552 99.6562 51.2573 99.5098 51.0614L99.9002 49.274C100.079 48.7027 100.307 48.1151 100.584 47.5111C100.811 47.9682 100.925 48.5232 100.925 49.1761C100.925 49.78 100.828 50.2942 100.632 50.7186C100.453 51.143 100.226 51.3552 99.949 51.3552Z" fill="#00666C"/>
<path d="M100.292 50.8169C100.178 51.2741 99.942 51.47 99.584 51.4047C99.6165 51.0618 99.7467 50.5475 99.9746 49.8617C100.284 50.1229 100.39 50.4413 100.292 50.8169Z" fill="#0D131A"/>
<path d="M84.0878 48.5885L84.1366 48.6375L87.5044 51.2329C87.7973 51.4124 88.0088 51.6818 88.1389 52.0409L88.6758 53.1672L86.4794 53.3141C85.6009 53.1509 84.8688 52.7836 84.2831 52.2123C84.0553 51.5267 83.9414 50.8085 83.9414 50.0576C83.9414 49.5516 83.9902 49.0619 84.0878 48.5885Z" fill="#00666C"/>
<path d="M85.1849 53.6324L84.5992 53.6079C83.981 52.5469 83.6719 51.3634 83.6719 50.0576C83.6719 49.6005 83.7288 49.0537 83.8427 48.4171L83.8671 48.3926C83.8834 48.6211 84.0298 48.7354 84.3064 48.7354L84.1844 50.0576C84.1844 51.3471 84.5179 52.5387 85.1849 53.6324Z" fill="#0D131A"/>
<path d="M86.5524 53.1672C86.2758 53.1672 86.048 53.0693 85.869 52.8734C85.7063 52.6775 85.625 52.449 85.625 52.1878C85.625 51.9266 85.7063 51.6981 85.869 51.5022C86.048 51.3227 86.2514 51.2329 86.4792 51.2329C86.6907 51.2329 86.8778 51.3308 87.0405 51.5267C87.2031 51.7226 87.2845 51.9511 87.2845 52.2123L87.1137 52.8489L86.5524 53.1672Z" fill="#0D131A"/>
<path d="M85.5995 51.87C85.3554 51.87 85.1601 51.7801 85.0136 51.6005C84.8835 51.4373 84.8184 51.2495 84.8184 51.0372C84.8184 50.7923 84.8916 50.5882 85.0381 50.4249C85.2008 50.2453 85.388 50.1555 85.5995 50.1555C85.7948 50.1555 85.9738 50.2535 86.1366 50.4494C86.283 50.629 86.3563 50.8413 86.3563 51.0862L86.1366 51.625C85.9738 51.7883 85.7948 51.87 85.5995 51.87Z" fill="white"/>
<path d="M100.144 50.2538L99.8515 50.0334L99.7539 49.5925C99.7539 49.3803 99.7946 49.2088 99.876 49.0782C99.9411 48.9313 100.031 48.8578 100.144 48.8578L100.413 49.1027L100.511 49.617L100.413 50.0579L100.144 50.2538Z" fill="white"/>
<path d="M82.0131 47.4377C81.6064 47.1928 81.3542 47.3316 81.2566 47.8539L81.0125 50.0821C80.9474 51.0615 80.9556 51.7226 81.0369 52.0653C81.1183 52.3918 81.6958 52.702 82.7696 52.9958L84.844 53.4855L87.8701 54.0976L88.5778 54.171C88.708 54.1547 88.7649 54.0894 88.7487 53.9752L87.9189 52.1388C87.8213 51.8939 87.6342 51.6573 87.3576 51.4287C86.2513 50.531 85.4378 49.8862 84.9172 49.4944L82.0131 47.4377ZM81.5006 46.5807C82.5907 47.201 83.7295 47.9519 84.9172 48.8333L87.3576 50.8656L87.9433 51.3798C88.2036 51.6083 88.3663 51.8123 88.4314 51.9919L89.7004 54.6607L89.8713 55.1015C89.9038 55.2647 89.8469 55.3708 89.7004 55.4198L89.5052 55.2729L89.3832 54.9546C89.3507 54.8729 89.2286 54.7913 89.0171 54.7097L88.407 54.5873C87.9027 54.5873 86.9021 54.4241 85.4053 54.0976L81.5982 53.1672C81.2403 53.0203 80.9475 52.7591 80.7197 52.3836C80.4594 51.9756 80.3292 51.494 80.3292 50.939C80.3292 50.482 80.378 49.8372 80.4756 49.0047L80.5977 47.707L80.6465 47.1928L80.5977 46.7521C80.1421 46.2624 79.9387 45.9768 79.9876 45.8951C80.0526 45.8135 80.557 46.042 81.5006 46.5807Z" fill="#0D131A"/>
<path d="M101.048 49.2496C101.048 50.735 100.584 51.9266 99.6571 52.8244L99.291 52.7019C99.714 52.3265 100.048 51.845 100.292 51.2573C100.552 50.6534 100.682 50.0086 100.682 49.323C100.682 48.719 100.584 48.1559 100.389 47.6336L100.658 47.1683C100.918 47.8539 101.048 48.5477 101.048 49.2496Z" fill="#0D131A"/>
<path d="M101.585 46.8746L101.488 46.2379C100.935 47.2663 100.487 48.3028 100.146 49.3475C99.8528 50.2616 99.6901 51.2084 99.6575 52.1878C100.211 51.9266 100.691 51.4369 101.097 50.7187C101.423 50.131 101.594 49.6658 101.61 49.323C101.691 48.4579 101.683 47.6417 101.585 46.8746ZM93.9957 17.4437C93.3775 15.4522 92.4908 14.4565 91.3357 14.4565C90.571 14.4565 90.026 14.8972 89.7006 15.7787C89.4565 16.4643 89.3752 17.2396 89.4565 18.1048L89.7738 22.0713L89.969 26.9928C89.9365 28.6904 89.7006 29.9392 89.2613 30.739C88.9359 31.3103 88.3339 31.8653 87.4554 32.404C86.7558 32.8284 85.9179 33.1304 84.9418 33.3099L82.6966 33.4568L83.6483 33.8731L84.7953 34.4852L85.6983 35.1952L86.8697 36.1991C87.2439 36.6235 87.431 36.8929 87.431 37.0071C87.4147 37.1377 87.1463 37.0153 86.6256 36.6399L85.6251 35.9788L84.8441 35.3911C84.4211 34.9667 83.9819 34.6974 83.5263 34.5831C83.2172 34.5342 82.8104 34.3709 82.3061 34.0934C81.7041 33.7833 81.1591 33.4078 80.671 32.9671C78.5234 31.1879 76.5955 29.4821 74.8872 27.8498L69.2254 22.3896C68.7699 21.9652 68.0865 21.7122 67.1754 21.6306C66.2643 21.5327 65.6054 21.6632 65.1987 22.0224C64.8245 22.3488 64.6618 22.8957 64.7106 23.6628C64.7594 24.3484 64.9221 24.8789 65.1987 25.2544L67.4927 27.9722L70.0551 31.2287C73.2928 36.4195 74.9116 40.3126 74.9116 42.908C74.9116 44.0996 74.8058 45.2177 74.5943 46.2624L74.033 48.3681L73.545 50.4983C73.3823 51.3798 73.3009 52.0164 73.3009 52.4082C73.3009 52.8815 73.4148 53.4447 73.6426 54.0976C73.8866 54.8485 74.2364 55.5504 74.692 56.2033C75.7332 57.7377 76.384 58.6192 76.6443 58.8477L77.108 58.9211C77.3846 58.9211 77.5961 58.9701 77.7425 59.0681L79.4752 60.4392C80.5327 61.386 81.4275 62.3082 82.1597 63.206L85.503 67.0501C86.6907 68.4376 87.4147 69.3762 87.675 69.8659C87.9191 70.274 88.578 70.829 89.6518 71.5309C91.0021 72.4123 92.2142 72.8531 93.288 72.8531C93.8412 72.8531 94.3699 72.747 94.8743 72.5348L95.8017 72.0695C96.5989 71.7104 97.4205 71.5227 98.2665 71.5064C99.9423 71.4248 101.008 71.2207 101.463 70.8943C101.756 70.6821 102 70.2821 102.196 69.6945C101.594 70.2821 101.016 70.6249 100.463 70.7229C99.7145 70.8861 98.7464 70.6821 97.5588 70.1108L96.3386 69.6945L94.8987 69.4986L93.1904 69.8414C92.3444 70.0047 91.6448 69.9965 91.0916 69.8169C90.4897 69.6211 90.0178 69.3436 89.6762 68.9844L88.8464 67.7847C88.2119 66.8053 87.3252 65.6871 86.1864 64.4302C84.1201 62.194 82.7698 60.8228 82.1353 60.3168C81.8749 60.1046 81.3381 59.8597 80.5246 59.5822L79.0115 58.9946C78.7512 58.8314 78.556 58.5375 78.4258 58.1131C78.3445 57.8356 78.255 57.3623 78.1574 56.693C78.0923 56.2196 78.1004 55.7952 78.1818 55.4198C78.2468 55.1097 78.3282 54.9546 78.4258 54.9546C78.5722 54.9872 78.6536 55.2158 78.6698 55.6402C78.8488 57.1093 79.0278 57.9989 79.2067 58.309C79.3206 58.5049 79.7274 58.7089 80.427 58.9211C81.2567 59.1823 81.8343 59.4353 82.1597 59.6802L84.7221 61.8593C85.9586 63.0183 86.886 63.9814 87.5042 64.7486C88.3828 65.8585 89.2044 67.042 89.969 68.2989L90.872 68.911C91.3438 69.1069 91.8726 69.2048 92.4583 69.2048L93.7029 69.0334L94.9963 68.862L96.4362 69.0334L97.8272 69.4007C99.0637 69.9394 99.7958 70.2087 100.024 70.2087C100.495 70.2087 101.114 69.8088 101.878 69.0089C102.806 68.0459 103.741 66.7073 104.685 64.9934C105.222 64.014 105.669 63.0591 106.027 62.1287C106.434 61.084 106.637 60.3005 106.637 59.7781C106.637 59.3537 106.466 59.0354 106.125 58.8232L105.026 58.0152C104.669 57.5908 104.254 56.8154 103.782 55.6891C103.359 54.7097 103.05 53.8528 102.854 53.1182C102.578 52.1062 102.236 51.0452 101.83 49.9352C101.504 50.8982 101.13 51.6328 100.707 52.1388L99.9992 52.7754C99.7226 52.9713 99.5843 53.1753 99.5843 53.3875L99.4623 53.6324L99.2427 53.5834C99.0962 53.2896 99.023 52.9305 99.023 52.5061L99.2427 50.9146C99.4054 50.0168 99.5599 49.4047 99.7063 49.0782L101.39 44.7199C101.813 43.4467 102.025 42.353 102.025 41.4389C102.025 40.8186 101.903 40.2473 101.659 39.725C101.463 39.3332 101.138 38.8517 100.683 38.2803C100.243 37.7417 99.7308 36.9582 99.145 35.9298C98.478 34.7708 97.933 33.6609 97.51 32.5998C96.5989 30.2656 95.8179 27.1724 95.1671 23.3201C94.5814 20.0228 94.191 18.064 93.9957 17.4437ZM94.5814 16.2929L95.8993 22.4876L97.2171 28.5353C97.6889 30.2493 98.4373 32.102 99.4623 34.0934L101.244 37.3744C101.976 38.7292 102.399 39.6842 102.513 40.2391C102.643 40.8594 102.692 41.4063 102.659 41.8796L102.366 43.1773L101.903 44.8423L102.074 46.0176C102.187 47.0133 102.212 48.0498 102.147 49.1272L104.002 54.3914L104.88 56.4237C105.238 57.0929 105.531 57.5255 105.759 57.7214L106.759 58.4314C107.215 58.7906 107.443 59.215 107.443 59.7047C107.443 60.7004 107.003 62.1205 106.125 63.965C105.262 65.8096 104.278 67.3848 103.172 68.6906C103.107 69.5394 102.732 70.3801 102.049 71.2126C101.691 71.6207 100.992 71.9145 99.9504 72.094L97.2415 72.4123C96.7697 72.4776 96.0945 72.7225 95.216 73.1469C94.4676 73.5223 93.768 73.71 93.1172 73.71C92.3037 73.71 91.3194 73.4325 90.1643 72.8775C89.2044 72.4042 88.4885 71.9471 88.0167 71.5064L86.406 69.6455L84.0144 66.6829L78.8163 60.8799C78.3607 60.4066 77.8482 60.1127 77.2788 59.9985L76.4247 59.8271L75.1068 58.309L73.789 56.5951L72.764 54.7097C72.3573 53.8772 72.1539 53.2733 72.1539 52.8978C72.1539 52.3755 72.4549 50.8901 73.0569 48.4416C73.5938 46.14 73.8622 44.2873 73.8622 42.8835C73.8622 41.9368 73.4717 40.4513 72.6908 38.4273C72.0075 36.6317 71.251 34.9994 70.4212 33.5303C69.803 32.4366 68.6885 31.0002 67.0778 29.2209L64.2225 26.0869C63.588 25.287 63.3114 24.3484 63.3928 23.2711C63.4579 22.2917 63.7751 21.5735 64.3445 21.1164C64.8652 20.6757 65.6542 20.439 66.7118 20.4063C67.9482 20.3574 68.9569 20.7083 69.7379 21.4592L74.1307 25.842L78.2306 29.931C79.8575 31.3838 81.0045 32.2571 81.6716 32.5509C82.0946 32.7468 82.8023 32.8284 83.7947 32.7957C84.8197 32.7468 85.6251 32.5917 86.2108 32.3305C87.0568 31.9714 87.6832 31.5796 88.0899 31.1552C88.7244 30.4697 89.0417 29.5556 89.0417 28.4129L89.0661 25.083L88.9685 22.1693L88.578 16.9785C88.5455 16.2276 88.757 15.4767 89.2125 14.7258C89.7169 13.8934 90.3595 13.42 91.1404 13.3057C91.9214 13.2078 92.6535 13.4771 93.3368 14.1137C93.9713 14.7177 94.3862 15.4441 94.5814 16.2929Z" fill="#0D131A"/>
</svg>
